<svg width="36" height="36" viewBox="0 0 36 36" fill="none" xmlns="http://www.w3.org/2000/svg">
<path d="M13.7648 8.81875C13.6558 8.57395 13.4829 8.36696 13.2665 8.22198C13.05 8.07699 12.7989 8 12.5426 8C12.2862 8 12.0351 8.07699 11.8187 8.22198C11.6022 8.36696 11.4294 8.57395 11.3203 8.81875L4.11743 24.968C3.97324 25.3086 3.96137 25.6953 4.08438 26.045C4.20739 26.3947 4.45546 26.6795 4.77532 26.8384C5.09519 26.9973 5.46135 27.0175 5.79518 26.8947C6.12901 26.7719 6.40389 26.5159 6.56079 26.1816L8.31537 22.25H16.7698L18.5232 26.1816C18.6758 26.5236 18.9508 26.7877 19.2879 26.9157C19.6249 27.0438 19.9964 27.0253 20.3206 26.8644C20.6447 26.7034 20.895 26.4132 21.0164 26.0576C21.1378 25.702 21.1202 25.31 20.9677 24.968L13.7648 8.81875ZM9.58713 19.4001L12.5426 12.7718L15.4991 19.4001H9.58713ZM26.048 12.7504C24.4893 12.7504 23.2603 13.2087 22.3959 14.1136C22.26 14.2428 22.1504 14.3998 22.0737 14.575C21.997 14.7502 21.9549 14.9401 21.9498 15.133C21.9448 15.326 21.977 15.518 22.0444 15.6974C22.1118 15.8769 22.2131 16.04 22.3421 16.1769C22.4711 16.3137 22.625 16.4216 22.7947 16.4938C22.9644 16.566 23.1462 16.601 23.3291 16.5969C23.512 16.5927 23.6922 16.5493 23.8587 16.4695C24.0252 16.3896 24.1747 16.2749 24.2979 16.1322C24.6356 15.776 25.2276 15.5955 26.048 15.5955C27.286 15.5955 28.2989 16.4481 28.2989 17.4954V18.0167C27.5934 17.6732 26.8251 17.4969 26.048 17.5002C23.3177 17.5002 21.096 19.6305 21.096 22.25C21.096 24.8695 23.3177 26.9997 26.048 26.9997C26.9103 27.0021 27.7601 26.7828 28.524 26.3609C28.6843 26.6159 28.9181 26.8096 29.1909 26.9135C29.4637 27.0174 29.7609 27.0259 30.0386 26.9377C30.3163 26.8496 30.5597 26.6694 30.7329 26.424C30.906 26.1785 30.9997 25.8808 31 25.5748V17.5002C31 14.8807 28.7784 12.7504 26.048 12.7504ZM26.048 24.1499C24.81 24.1499 23.7971 23.2973 23.7971 22.25C23.7971 21.2026 24.81 20.35 26.048 20.35C27.286 20.35 28.2989 21.2026 28.2989 22.25C28.2989 23.2973 27.286 24.1499 26.048 24.1499Z" fill="#343434"/>
</svg>
