<svg width="34" height="34" viewBox="0 0 34 34" fill="none" xmlns="http://www.w3.org/2000/svg">
<path opacity="0.06" d="M0 4C0 1.79086 1.79086 0 4 0H30C32.2091 0 34 1.79086 34 4V30C34 32.2091 32.2091 34 30 34H4C1.79086 34 0 32.2091 0 30V4Z" fill="#343434"/>
<path d="M15.4375 13.5625C15.4375 13.3153 15.5108 13.0736 15.6482 12.868C15.7855 12.6625 15.9807 12.5023 16.2091 12.4077C16.4376 12.313 16.6889 12.2883 16.9314 12.3365C17.1738 12.3847 17.3966 12.5038 17.5714 12.6786C17.7462 12.8534 17.8653 13.0762 17.9135 13.3186C17.9617 13.5611 17.937 13.8124 17.8424 14.0409C17.7477 14.2693 17.5875 14.4645 17.382 14.6018C17.1764 14.7392 16.9347 14.8125 16.6875 14.8125C16.356 14.8125 16.038 14.6808 15.8036 14.4464C15.5692 14.212 15.4375 13.894 15.4375 13.5625ZM25.4375 17C25.4375 18.6688 24.9427 20.3001 24.0155 21.6876C23.0884 23.0752 21.7706 24.1566 20.2289 24.7952C18.6871 25.4338 16.9906 25.6009 15.3539 25.2754C13.7172 24.9498 12.2138 24.1462 11.0338 22.9662C9.85379 21.7862 9.05019 20.2828 8.72463 18.6461C8.39907 17.0094 8.56616 15.3129 9.20477 13.7711C9.84338 12.2294 10.9248 10.9116 12.3124 9.98448C13.6999 9.05735 15.3312 8.5625 17 8.5625C19.237 8.56498 21.3817 9.45473 22.9635 11.0365C24.5453 12.6183 25.435 14.763 25.4375 17ZM23.5625 17C23.5625 15.7021 23.1776 14.4333 22.4565 13.3541C21.7354 12.2749 20.7105 11.4337 19.5114 10.937C18.3122 10.4403 16.9927 10.3104 15.7197 10.5636C14.4467 10.8168 13.2774 11.4418 12.3596 12.3596C11.4418 13.2774 10.8168 14.4467 10.5636 15.7197C10.3104 16.9927 10.4403 18.3122 10.937 19.5114C11.4337 20.7105 12.2749 21.7354 13.3541 22.4565C14.4333 23.1776 15.7021 23.5625 17 23.5625C18.7399 23.5606 20.408 22.8686 21.6383 21.6383C22.8686 20.408 23.5606 18.7399 23.5625 17ZM17.9375 19.8656V17.3125C17.9375 16.8981 17.7729 16.5007 17.4799 16.2076C17.1868 15.9146 16.7894 15.75 16.375 15.75C16.1536 15.7497 15.9392 15.8277 15.7699 15.9703C15.6005 16.1129 15.487 16.3108 15.4496 16.529C15.4122 16.7472 15.4532 16.9716 15.5654 17.1625C15.6775 17.3534 15.8536 17.4984 16.0625 17.5719V20.125C16.0625 20.5394 16.2271 20.9368 16.5201 21.2299C16.8132 21.5229 17.2106 21.6875 17.625 21.6875C17.8464 21.6878 18.0608 21.6098 18.2302 21.4672C18.3995 21.3246 18.513 21.1267 18.5504 20.9085C18.5878 20.6903 18.5468 20.4659 18.4346 20.275C18.3225 20.0841 18.1464 19.9391 17.9375 19.8656Z" fill="#343434"/>
</svg>
