<svg width="40" height="40" viewBox="0 0 40 40" fill="none" xmlns="http://www.w3.org/2000/svg">
<rect width="40" height="40" rx="8" fill="#E9ECF1"/>
<path d="M15.5216 15.3125C15.5216 12.8963 17.4804 10.9375 19.8966 10.9375C22.3129 10.9375 24.2716 12.8963 24.2716 15.3125C24.2716 17.7287 22.3129 19.6875 19.8966 19.6875C17.4804 19.6875 15.5216 17.7287 15.5216 15.3125Z" fill="#273E72"/>
<path d="M25.3133 21.5625C25.7736 21.5625 26.1466 21.9356 26.1466 22.3958V24.4792H28.23C28.6902 24.4792 29.0633 24.8523 29.0633 25.3125C29.0633 25.7727 28.6902 26.1458 28.23 26.1458H26.1466V28.2292C26.1466 28.6894 25.7736 29.0625 25.3133 29.0625C24.8531 29.0625 24.48 28.6894 24.48 28.2292V26.1458H22.3966C21.9364 26.1458 21.5633 25.7727 21.5633 25.3125C21.5633 24.8523 21.9364 24.4792 22.3966 24.4792H24.48V22.3958C24.48 21.9356 24.8531 21.5625 25.3133 21.5625Z" fill="#273E72"/>
<path d="M23.2476 22.1174C23.2629 22.0026 23.21 21.8864 23.1052 21.8371C22.2423 21.4308 21.329 21.1623 20.3999 21.0313C19.5134 20.9062 18.6119 20.9062 17.7254 21.0313C16.505 21.2034 15.3116 21.6127 14.2242 22.2601C14.1273 22.3178 14.0076 22.3854 13.8721 22.4618C13.2781 22.7969 12.3801 23.3036 11.7649 23.9057C11.3802 24.2823 11.0146 24.7785 10.9482 25.3865C10.8775 26.033 11.1596 26.6397 11.7254 27.1788C12.7016 28.1089 13.8731 28.8542 15.3884 28.8542H22.7369C22.8334 28.8542 22.9284 28.8511 23.0221 28.8453C23.1754 28.8356 23.2731 28.6837 23.251 28.5316C23.2366 28.4329 23.2292 28.3319 23.2292 28.2292V27.6458C23.2292 27.5078 23.1172 27.3958 22.9792 27.3958H22.3958C21.2452 27.3958 20.3125 26.4631 20.3125 25.3125C20.3125 24.1619 21.2452 23.2292 22.3958 23.2292H22.9792C23.1172 23.2292 23.2292 23.1172 23.2292 22.9792V22.3958C23.2292 22.3014 23.2354 22.2085 23.2476 22.1174Z" fill="#273E72"/>
</svg>
