<svg width="14" height="14" viewBox="0 0 14 14" fill="none" xmlns="http://www.w3.org/2000/svg">
<path d="M12.4486 6.90203C12.4486 7.07364 12.3804 7.23822 12.2591 7.35957C12.1377 7.48092 11.9731 7.5491 11.8015 7.5491H7.70339V11.6472C7.70339 11.8188 7.63522 11.9834 7.51387 12.1048C7.39252 12.2261 7.22794 12.2943 7.05632 12.2943C6.88471 12.2943 6.72012 12.2261 6.59877 12.1048C6.47742 11.9834 6.40925 11.8188 6.40925 11.6472V7.5491H2.31113C2.13952 7.5491 1.97493 7.48092 1.85359 7.35957C1.73224 7.23822 1.66406 7.07364 1.66406 6.90203C1.66406 6.73041 1.73224 6.56583 1.85359 6.44448C1.97493 6.32313 2.13952 6.25495 2.31113 6.25495H6.40925V2.15684C6.40925 1.98522 6.47742 1.82064 6.59877 1.69929C6.72012 1.57794 6.88471 1.50977 7.05632 1.50977C7.22794 1.50977 7.39252 1.57794 7.51387 1.69929C7.63522 1.82064 7.70339 1.98522 7.70339 2.15684V6.25495H11.8015C11.9731 6.25495 12.1377 6.32313 12.2591 6.44448C12.3804 6.56583 12.4486 6.73041 12.4486 6.90203Z" fill="white"/>
</svg>
