<svg width="42" height="28" viewBox="0 0 42 28" fill="none" xmlns="http://www.w3.org/2000/svg">
<path d="M31.393 6.606H33.481L37.693 18H35.119C34.999 17.664 34.819 17.094 34.579 16.29C34.507 16.038 34.447 15.834 34.399 15.678H30.457C30.361 15.99 30.211 16.452 30.007 17.064C29.863 17.484 29.761 17.796 29.701 18H27.181L31.393 6.606ZM32.455 9.954C32.251 10.53 31.939 11.418 31.519 12.618L31.195 13.59H33.679C33.619 13.398 33.505 13.074 33.337 12.618C32.929 11.442 32.635 10.554 32.455 9.954ZM41.6146 6.606V18H39.1306V6.606H41.6146Z" fill="#343434"/>
<path d="M23.2308 4H3.76926C3.30003 4 2.85002 4.18437 2.51823 4.51256C2.18643 4.84075 2.00003 5.28587 2.00003 5.75V23.25C1.99799 23.5837 2.09343 23.9109 2.27488 24.1922C2.45633 24.4736 2.71607 24.6971 3.02287 24.8359C3.25666 24.9436 3.51137 24.9996 3.76926 25C4.18459 24.999 4.58614 24.8525 4.90267 24.5866L4.91262 24.5789L8.52406 21.5H23.2308C23.7 21.5 24.15 21.3156 24.4818 20.9874C24.8136 20.6592 25 20.2141 25 19.75V5.75C25 5.28587 24.8136 4.84075 24.4818 4.51256C24.15 4.18437 23.7 4 23.2308 4ZM17.0385 15.375H9.96156C9.72695 15.375 9.50194 15.2828 9.33604 15.1187C9.17015 14.9546 9.07695 14.7321 9.07695 14.5C9.07695 14.2679 9.17015 14.0454 9.33604 13.8813C9.50194 13.7172 9.72695 13.625 9.96156 13.625H17.0385C17.2731 13.625 17.4981 13.7172 17.664 13.8813C17.8299 14.0454 17.9231 14.2679 17.9231 14.5C17.9231 14.7321 17.8299 14.9546 17.664 15.1187C17.4981 15.2828 17.2731 15.375 17.0385 15.375ZM17.0385 11.875H9.96156C9.72695 11.875 9.50194 11.7828 9.33604 11.6187C9.17015 11.4546 9.07695 11.2321 9.07695 11C9.07695 10.7679 9.17015 10.5454 9.33604 10.3813C9.50194 10.2172 9.72695 10.125 9.96156 10.125H17.0385C17.2731 10.125 17.4981 10.2172 17.664 10.3813C17.8299 10.5454 17.9231 10.7679 17.9231 11C17.9231 11.2321 17.8299 11.4546 17.664 11.6187C17.4981 11.7828 17.2731 11.875 17.0385 11.875Z" fill="#343434"/>
</svg>
