<svg width="18" height="18" viewBox="0 0 18 18" fill="none" xmlns="http://www.w3.org/2000/svg">
<path d="M8.72976 0.560576C8.83886 0.334275 9.16114 0.334275 9.27024 0.560576L11.0169 4.18382C11.6064 5.40673 12.5933 6.39356 13.8162 6.9831L17.4394 8.72976C17.6657 8.83885 17.6657 9.16114 17.4394 9.27024L13.8162 11.0169C12.5933 11.6064 11.6064 12.5933 11.0169 13.8162L9.27024 17.4394C9.16115 17.6657 8.83886 17.6657 8.72976 17.4394L6.9831 13.8162C6.39356 12.5933 5.40673 11.6064 4.18382 11.0169L0.560576 9.27024C0.334275 9.16114 0.334275 8.83886 0.560576 8.72976L4.18382 6.9831C5.40673 6.39356 6.39356 5.40673 6.9831 4.18382L8.72976 0.560576Z" fill="url(#paint0_linear_277_2292)"/>
<defs>
<linearGradient id="paint0_linear_277_2292" x1="18" y1="9" x2="0.500001" y2="9" gradientUnits="userSpaceOnUse">
<stop offset="0.241913" stop-color="#2CBEDB"/>
<stop offset="1" stop-color="#5BCF5B"/>
</linearGradient>
</defs>
</svg>
