<?xml version="1.0" encoding="UTF-8"?>
<svg id="Layer_1" data-name="Layer 1" xmlns="http://www.w3.org/2000/svg" viewBox="0 0 512 512">
  <defs>
    <style>
      .cls-1 {
        fill: #009688;
      }

      .cls-1, .cls-2 {
        stroke-width: 0px;
      }

      .cls-2 {
        fill: #fff;
      }
    </style>
  </defs>
  <rect class="cls-1" x="-3.28" y="-2.6" width="518.55" height="517.19"/>
  <path class="cls-2" d="M425.46,176.2c9.13,9.14,16.18,19.55,21.16,31.24,4.97,11.69,7.59,23.65,7.86,35.87.26,12.23-1.75,24.38-6.05,36.48-4.3,12.09-11.15,22.84-20.55,32.24l-4.43,4.43c-9.67,8.6-19.62,15.05-29.82,19.35-11.56,4.84-24.18,7.12-37.89,6.85-13.7,0-26.2-2.42-37.48-7.25s-21.5-11.82-30.63-20.96c-2.15-2.68-3.83-5.5-5.04-8.46-1.21-2.95-1.68-6.05-1.41-9.27.26-3.22,1.07-6.38,2.42-9.47,1.34-3.09,3.22-5.71,5.64-7.86,4.84-5.1,10.95-7.66,18.34-7.66s13.63,2.56,18.74,7.66c7.79,7.25,17.6,10.88,29.42,10.88,6.45.27,12.36-.81,17.73-3.22,5.37-2.42,10.21-5.64,14.51-9.67,4.29-4.03,7.59-8.87,9.87-14.51,2.28-5.64,3.43-11.55,3.43-17.73v-2.42c-.27-4.84-1.35-9.67-3.22-14.51-2.15-5.37-5.51-10.34-10.08-14.91-4.03-4.29-8.8-7.52-14.31-9.67-5.51-2.15-11.02-3.36-16.52-3.63-5.51-.26-11.02.67-16.52,2.82-5.51,2.15-10.28,5.24-14.31,9.27l-67.31,67.31c-4.84,4.84-11.02,7.25-18.54,7.25s-13.7-2.55-18.54-7.66c-5.11-4.84-7.86-10.88-8.26-18.14-.4-7.25,1.95-13.3,7.05-18.14l66.5-66.5c9.67-9.4,20.42-16.52,32.24-21.36,11.82-4.84,23.98-7.32,36.47-7.46,12.49-.13,24.72,2.22,36.68,7.05,11.95,4.84,22.9,12.09,32.85,21.76Z"/>
  <path class="cls-2" d="M86.54,313.71c-9.13-9.14-16.18-19.55-21.16-31.24-4.97-11.69-7.59-23.65-7.86-35.87-.26-12.23,1.75-24.38,6.05-36.48,4.3-12.09,11.15-22.84,20.55-32.24l4.43-4.43c9.67-8.6,19.62-15.05,29.82-19.35,11.56-4.84,24.18-7.12,37.89-6.85,13.7,0,26.2,2.42,37.48,7.25s21.5,11.82,30.63,20.96c2.15,2.68,3.83,5.5,5.04,8.46,1.21,2.95,1.68,6.05,1.41,9.27-.26,3.22-1.07,6.38-2.42,9.47-1.34,3.09-3.22,5.71-5.64,7.86-4.84,5.1-10.95,7.66-18.34,7.66s-13.63-2.56-18.74-7.66c-7.79-7.25-17.6-10.88-29.42-10.88-6.45-.27-12.36.81-17.73,3.22-5.37,2.42-10.21,5.64-14.51,9.67-4.29,4.03-7.59,8.87-9.87,14.51-2.28,5.64-3.43,11.55-3.43,17.73v2.42c.27,4.84,1.35,9.67,3.22,14.51,2.15,5.37,5.51,10.34,10.08,14.91,4.03,4.29,8.8,7.52,14.31,9.67,5.51,2.15,11.02,3.36,16.52,3.63,5.51.26,11.02-.67,16.52-2.82,5.51-2.15,10.28-5.24,14.31-9.27l67.31-67.31c4.84-4.84,11.02-7.25,18.54-7.25s13.7,2.55,18.54,7.66c5.11,4.84,7.86,10.88,8.26,18.14.4,7.25-1.95,13.3-7.05,18.14l-66.5,66.5c-9.67,9.4-20.42,16.52-32.24,21.36-11.82,4.84-23.98,7.32-36.47,7.46-12.49.13-24.72-2.22-36.68-7.05-11.95-4.84-22.9-12.09-32.85-21.76Z"/>
</svg>