<svg fill="none" height="36" viewBox="0 0 40 36" width="40" xmlns="http://www.w3.org/2000/svg">
    <g clip-path="url(#clip0_3133_5076)">
        <path d="M40.2554 -0.182861H-0.256348V36.1821H40.2554V-0.182861Z" fill="#009688" />
        <path
            d="M33.239 12.3891C33.9522 13.0318 34.503 13.7637 34.8921 14.5857C35.2804 15.4076 35.4851 16.2486 35.5061 17.1078C35.5265 17.9677 35.3694 18.822 35.0335 19.6728C34.6975 20.5229 34.1624 21.2787 33.428 21.9396L33.0819 22.2511C32.3265 22.8558 31.5491 23.3093 30.7522 23.6117C29.8491 23.952 28.8632 24.1123 27.7921 24.0933C26.7218 24.0933 25.7452 23.9232 24.864 23.5836C23.9827 23.2439 23.1843 22.7525 22.471 22.1098C22.303 21.9214 22.1718 21.7231 22.0772 21.515C21.9827 21.3075 21.946 21.0896 21.9671 20.8632C21.9874 20.6368 22.0507 20.4146 22.1561 20.1973C22.2608 19.98 22.4077 19.7958 22.5968 19.6446C22.9749 19.2861 23.4522 19.1061 24.0296 19.1061C24.6069 19.1061 25.0944 19.2861 25.4936 19.6446C26.1022 20.1544 26.8686 20.4096 27.7921 20.4096C28.296 20.4286 28.7577 20.3527 29.1772 20.1832C29.5968 20.0131 29.9749 19.7867 30.3108 19.5033C30.646 19.22 30.9038 18.8796 31.0819 18.4831C31.2601 18.0865 31.3499 17.671 31.3499 17.2364V17.0663C31.3288 16.726 31.2444 16.3864 31.0983 16.0461C30.9304 15.6685 30.6679 15.319 30.3108 14.9977C29.996 14.6961 29.6233 14.4689 29.1929 14.3178C28.7624 14.1666 28.3319 14.0815 27.9022 14.0625C27.4718 14.0443 27.0413 14.1096 26.6116 14.2608C26.1811 14.412 25.8085 14.6293 25.4936 14.9126L20.2351 19.6453C19.8569 19.9857 19.3741 20.1551 18.7866 20.1551C18.1991 20.1551 17.7163 19.9758 17.3382 19.6165C16.939 19.2762 16.7241 18.8515 16.6929 18.3411C16.6616 17.8313 16.8452 17.4059 17.2436 17.0656L22.439 12.3898C23.1944 11.7289 24.0343 11.2282 24.9577 10.8879C25.8811 10.5476 26.8311 10.3732 27.8069 10.3634C28.7827 10.3543 29.7382 10.5195 30.6725 10.8591C31.6061 11.1994 32.4616 11.7092 33.239 12.3891Z"
            fill="white" />
        <path
            d="M6.76112 22.0578C6.04784 21.4151 5.49706 20.6832 5.10799 19.8612C4.71971 19.0393 4.51503 18.1983 4.49393 17.3391C4.47362 16.4792 4.63065 15.6249 4.96659 14.7741C5.30253 13.924 5.83768 13.1682 6.57206 12.5072L6.91815 12.1957C7.67362 11.5911 8.45096 11.1375 9.24784 10.8352C10.151 10.4949 11.1369 10.3346 12.208 10.3536C13.2783 10.3536 14.2549 10.5237 15.1361 10.8633C16.0174 11.2029 16.8158 11.6944 17.5291 12.3371C17.6971 12.5255 17.8283 12.7238 17.9228 12.9319C18.0174 13.1393 18.0541 13.3573 18.033 13.5837C18.0127 13.8101 17.9494 14.0323 17.8439 14.2496C17.7392 14.4668 17.5924 14.6511 17.4033 14.8022C17.0252 15.1608 16.5478 15.3408 15.9705 15.3408C15.3932 15.3408 14.9057 15.1608 14.5064 14.8022C13.8978 14.2925 13.1314 14.0372 12.208 14.0372C11.7041 14.0182 11.2424 14.0942 10.8228 14.2636C10.4033 14.4338 10.0252 14.6602 9.68924 14.9436C9.35409 15.2269 9.09628 15.5672 8.91815 15.9638C8.74003 16.3604 8.65018 16.7759 8.65018 17.2104V17.3806C8.67128 17.7209 8.75565 18.0605 8.90174 18.4008C9.06971 18.7784 9.33221 19.1279 9.68924 19.4492C10.0041 19.7508 10.3767 19.9779 10.8072 20.1291C11.2377 20.2803 11.6682 20.3654 12.0978 20.3843C12.5283 20.4026 12.9588 20.3372 13.3885 20.1861C13.8189 20.0349 14.1916 19.8176 14.5064 19.5343L19.765 14.8015C20.1432 14.4612 20.626 14.2918 21.2135 14.2918C21.801 14.2918 22.2838 14.4711 22.6619 14.8304C23.0611 15.1707 23.276 15.5954 23.3072 16.1058C23.3385 16.6156 23.1549 17.041 22.7564 17.3813L17.5611 22.0571C16.8057 22.718 15.9658 23.2186 15.0424 23.5589C14.1189 23.8993 13.1689 24.0736 12.1932 24.0835C11.2174 24.0926 10.2619 23.9274 9.32753 23.5878C8.39393 23.2475 7.53846 22.7377 6.76112 22.0578Z"
            fill="white" />
    </g>
    <defs>
        <clipPath id="clip0_3133_5076">
            <rect fill="white" height="36" width="40" />
        </clipPath>
    </defs>
</svg>
