<svg fill="none" height="22" viewBox="0 0 22 22" width="22" xmlns="http://www.w3.org/2000/svg">
    <path
        d="M16.3258 4.09717C16.2525 4.09717 16.1791 4.07884 16.115 4.04217C14.355 3.13467 12.8333 2.74967 11.0091 2.74967C9.19413 2.74967 7.4708 3.18051 5.9033 4.04217C5.6833 4.16134 5.4083 4.07884 5.27997 3.85884C5.1608 3.63884 5.2433 3.35467 5.4633 3.23551C7.1683 2.30967 9.0383 1.83301 11.0091 1.83301C12.9616 1.83301 14.6666 2.26384 16.5366 3.22634C16.7658 3.34551 16.8483 3.62051 16.7291 3.84051C16.6466 4.00551 16.4908 4.09717 16.3258 4.09717V4.09717ZM3.2083 8.90967C3.11663 8.90967 3.02497 8.88217 2.94247 8.82717C2.73163 8.68051 2.6858 8.39634 2.83247 8.18551C3.73997 6.90217 4.89497 5.89384 6.26997 5.18801C9.1483 3.70301 12.8333 3.69384 15.7208 5.17884C17.0958 5.88467 18.2508 6.88384 19.1583 8.15801C19.305 8.35967 19.2591 8.65301 19.0483 8.79967C18.8375 8.94634 18.5533 8.90051 18.4066 8.68967C17.5816 7.53467 16.5366 6.62717 15.2991 5.99467C12.6683 4.64717 9.30413 4.64717 6.68247 6.00384C5.4358 6.64551 4.3908 7.56217 3.5658 8.71717C3.49247 8.84551 3.35497 8.90967 3.2083 8.90967V8.90967ZM8.93747 19.9738C8.8183 19.9738 8.69913 19.928 8.61663 19.8363C7.81913 19.0388 7.3883 18.5255 6.77413 17.4163C6.14163 16.2888 5.81163 14.9138 5.81163 13.438C5.81163 10.7155 8.13997 8.49718 11 8.49718C13.86 8.49718 16.1883 10.7155 16.1883 13.438C16.1883 13.6947 15.9866 13.8963 15.73 13.8963C15.4733 13.8963 15.2716 13.6947 15.2716 13.438C15.2716 11.2197 13.3558 9.41384 11 9.41384C8.64413 9.41384 6.7283 11.2197 6.7283 13.438C6.7283 14.758 7.02163 15.9772 7.5808 16.9672C8.16747 18.0213 8.5708 18.4705 9.27663 19.1855C9.4508 19.3688 9.4508 19.653 9.27663 19.8363C9.1758 19.928 9.05663 19.9738 8.93747 19.9738ZM15.51 18.278C14.4191 18.278 13.4566 18.003 12.6683 17.4622C11.3025 16.5363 10.4866 15.033 10.4866 13.438C10.4866 13.1813 10.6883 12.9797 10.945 12.9797C11.2016 12.9797 11.4033 13.1813 11.4033 13.438C11.4033 14.7305 12.0633 15.9497 13.1816 16.7013C13.8325 17.1413 14.5933 17.3522 15.51 17.3522C15.73 17.3522 16.0966 17.3247 16.4633 17.2605C16.7108 17.2147 16.9491 17.3797 16.995 17.6363C17.0408 17.8838 16.8758 18.1222 16.6191 18.168C16.0966 18.2688 15.6383 18.278 15.51 18.278V18.278ZM13.6675 20.1663C13.6308 20.1663 13.585 20.1572 13.5483 20.148C12.0908 19.7447 11.1375 19.2038 10.1383 18.223C8.85497 16.9488 8.14913 15.253 8.14913 13.438C8.14913 11.953 9.41413 10.743 10.9725 10.743C12.5308 10.743 13.7958 11.953 13.7958 13.438C13.7958 14.4188 14.6483 15.2163 15.7025 15.2163C16.7566 15.2163 17.6091 14.4188 17.6091 13.438C17.6091 9.98217 14.63 7.17717 10.9633 7.17717C8.35997 7.17717 5.97663 8.62551 4.90413 10.8713C4.54663 11.6138 4.3633 12.4847 4.3633 13.438C4.3633 14.153 4.42747 15.2805 4.97747 16.7472C5.06913 16.9855 4.94997 17.2513 4.71163 17.3338C4.4733 17.4255 4.20747 17.2972 4.12497 17.068C3.6758 15.8672 3.4558 14.6755 3.4558 13.438C3.4558 12.338 3.66663 11.3388 4.07913 10.468C5.2983 7.91051 8.00247 6.25134 10.9633 6.25134C15.1341 6.25134 18.5258 9.46884 18.5258 13.4288C18.5258 14.9138 17.2608 16.1238 15.7025 16.1238C14.1441 16.1238 12.8791 14.9138 12.8791 13.4288C12.8791 12.448 12.0266 11.6505 10.9725 11.6505C9.9183 11.6505 9.0658 12.448 9.0658 13.4288C9.0658 14.9963 9.6708 16.463 10.78 17.563C11.6508 18.4247 12.485 18.9013 13.7775 19.2588C14.025 19.323 14.1625 19.5797 14.0983 19.818C14.0525 20.0288 13.86 20.1663 13.6675 20.1663V20.1663Z"
        fill="black" />
</svg>
