<svg width="51" height="50" viewBox="0 0 51 50" fill="none" xmlns="http://www.w3.org/2000/svg">
<path fill-rule="evenodd" clip-rule="evenodd" d="M24.7202 3.12817C18.6843 3.12817 13.7827 8.02974 13.7827 14.0657C13.7827 20.1032 18.6843 25.0032 24.7202 25.0032C30.7562 25.0032 35.6577 20.1032 35.6577 14.0657C35.6577 8.02974 30.7562 3.12817 24.7202 3.12817ZM24.7202 6.25317C29.0327 6.25317 32.5327 9.75474 32.5327 14.0657C32.5327 18.3782 29.0327 21.8782 24.7202 21.8782C20.4077 21.8782 16.9077 18.3782 16.9077 14.0657C16.9077 9.75474 20.4077 6.25317 24.7202 6.25317Z" fill="#9E0B0F"/>
<path fill-rule="evenodd" clip-rule="evenodd" d="M5.97021 43.7532H25.4999C26.3624 43.7532 27.0624 44.4532 27.0624 45.3157C27.0624 46.1782 26.3624 46.8782 25.4999 46.8782H4.40771C3.54521 46.8782 2.84521 46.1782 2.84521 45.3157C2.84521 45.3157 2.84521 44.0282 2.84521 42.1907C2.84521 34.425 9.14053 28.1282 16.9077 28.1282H25.4999C26.3624 28.1282 27.0624 28.8282 27.0624 29.6907C27.0624 30.5532 26.3624 31.2532 25.4999 31.2532H16.9077C10.8671 31.2532 5.97021 36.15 5.97021 42.1907V43.7532Z" fill="#9E0B0F"/>
<path fill-rule="evenodd" clip-rule="evenodd" d="M38.0033 28.1282C32.3986 28.1282 27.8486 32.6782 27.8486 38.2829C27.8486 43.8875 32.3986 48.4375 38.0033 48.4375C43.608 48.4375 48.158 43.8875 48.158 38.2829C48.158 32.6782 43.608 28.1282 38.0033 28.1282ZM38.0033 31.2532C41.883 31.2532 45.033 34.4032 45.033 38.2829C45.033 42.1625 41.883 45.3125 38.0033 45.3125C34.1236 45.3125 30.9736 42.1625 30.9736 38.2829C30.9736 34.4032 34.1236 31.2532 38.0033 31.2532Z" fill="#9E0B0F"/>
<path fill-rule="evenodd" clip-rule="evenodd" d="M42.9639 31.0953L30.8154 43.2438C30.2061 43.8532 30.2061 44.8438 30.8154 45.4532C31.4248 46.0641 32.4154 46.0641 33.0248 45.4532L45.1732 33.3047C45.7842 32.6953 45.7842 31.7047 45.1732 31.0953C44.5639 30.486 43.5732 30.486 42.9639 31.0953Z" fill="#9E0B0F"/>
</svg>
