<svg width="28" height="28" viewBox="0 0 28 28" fill="none" xmlns="http://www.w3.org/2000/svg">
<path d="M20.125 3.0625H7.875C7.29484 3.0625 6.73844 3.29297 6.3282 3.7032C5.91797 4.11344 5.6875 4.66984 5.6875 5.25V24.5C5.68742 24.7343 5.75008 24.9644 5.86896 25.1663C5.98784 25.3683 6.15862 25.5347 6.36355 25.6483C6.56848 25.7619 6.8001 25.8186 7.03434 25.8125C7.26859 25.8064 7.49692 25.7376 7.69563 25.6134L13.9989 21.6759L20.3044 25.6134C20.5031 25.7376 20.7314 25.8064 20.9657 25.8125C21.1999 25.8186 21.4315 25.7619 21.6365 25.6483C21.8414 25.5347 22.0122 25.3683 22.131 25.1663C22.2499 24.9644 22.3126 24.7343 22.3125 24.5V5.25C22.3125 4.66984 22.082 4.11344 21.6718 3.7032C21.2616 3.29297 20.7052 3.0625 20.125 3.0625ZM19.6875 22.132L14.6945 19.0116C14.4859 18.8812 14.2449 18.8121 13.9989 18.8121C13.7529 18.8121 13.5119 18.8812 13.3033 19.0116L8.3125 22.132V5.6875H19.6875V22.132Z" fill="white"/>
</svg>
