<svg width="28" height="28" viewBox="0 0 28 28" fill="none" xmlns="http://www.w3.org/2000/svg">
<path d="M18.0263 4H6.97368C6.45023 4 5.94822 4.19248 5.57808 4.53508C5.20794 4.87769 5 5.34237 5 5.82689V21.9035C4.99993 22.0992 5.05646 22.2913 5.16372 22.46C5.27099 22.6286 5.42507 22.7676 5.60997 22.8625C5.79487 22.9574 6.00385 23.0047 6.21519 22.9996C6.42654 22.9945 6.63256 22.9371 6.81184 22.8334L12.499 19.545L18.1882 22.8334C18.3674 22.9371 18.5735 22.9945 18.7848 22.9996C18.9962 23.0047 19.2051 22.9574 19.39 22.8625C19.5749 22.7676 19.729 22.6286 19.8363 22.46C19.9435 22.2913 20.0001 22.0992 20 21.9035V5.82689C20 5.34237 19.7921 4.87769 19.4219 4.53508C19.0518 4.19248 18.5498 4 18.0263 4ZM17.6316 19.9259L13.1266 17.3198C12.9384 17.211 12.721 17.1532 12.499 17.1532C12.2771 17.1532 12.0596 17.211 11.8714 17.3198L7.36842 19.9259V6.19227H17.6316V19.9259Z" fill="#343434"/>
</svg>
