<svg width="19" height="19" viewBox="0 0 19 19" fill="none" xmlns="http://www.w3.org/2000/svg">
<path d="M4.48795 1.77279C4.91296 1.86063 5.25143 2.14618 5.46173 2.52346L6.13164 3.72529C6.37839 4.16795 6.58605 4.54046 6.72166 4.86429C6.86551 5.2078 6.95095 5.54654 6.91189 5.92106C6.87284 6.29558 6.71935 6.60941 6.50772 6.91585C6.30821 7.20474 6.02816 7.52639 5.69539 7.90861L4.71063 9.03975C4.53416 9.24245 4.44593 9.3438 4.43787 9.47047C4.4298 9.59715 4.50212 9.70534 4.64675 9.92174C5.87944 11.766 7.5408 13.428 9.38662 14.6617C9.60302 14.8064 9.71121 14.8787 9.83789 14.8706C9.96457 14.8625 10.0659 14.7743 10.2686 14.5978L11.3998 13.613C11.782 13.2803 12.1037 13.0002 12.3926 12.8007C12.699 12.5891 13.0128 12.4356 13.3874 12.3965C13.7619 12.3575 14.1006 12.4429 14.4441 12.5868C14.7679 12.7224 15.1404 12.93 15.583 13.1767L16.785 13.8467C17.1622 14.057 17.4478 14.3955 17.5356 14.8205C17.6244 15.2499 17.4935 15.6816 17.2043 16.0364C16.1551 17.3236 14.4742 18.1433 12.7108 17.7875C11.6268 17.5689 10.5573 17.2046 9.26379 16.4628C6.66478 14.9722 4.33447 12.6406 2.84566 10.0446C2.10383 8.75111 1.73954 7.68161 1.52088 6.59767C1.16516 4.83425 1.98479 3.15329 3.27206 2.10411C3.62683 1.81496 4.0585 1.68403 4.48795 1.77279Z" fill="#626262"/>
</svg>
