<svg width="24" height="24" viewBox="0 0 24 24" fill="none" xmlns="http://www.w3.org/2000/svg">
<path d="M20 4H3.50003C3.1022 4 2.72067 4.15804 2.43937 4.43934C2.15806 4.72064 2.00003 5.10218 2.00003 5.5V20.5C1.9983 20.786 2.07921 21.0665 2.23305 21.3076C2.38689 21.5488 2.6071 21.7404 2.86721 21.8594C3.06543 21.9517 3.28138 21.9997 3.50003 22C3.85216 21.9992 4.1926 21.8736 4.46096 21.6456L4.4694 21.6391L7.53128 19H20C20.3979 19 20.7794 18.842 21.0607 18.5607C21.342 18.2794 21.5 17.8978 21.5 17.5V5.5C21.5 5.10218 21.342 4.72064 21.0607 4.43934C20.7794 4.15804 20.3979 4 20 4ZM14.75 13.75H8.75003C8.55112 13.75 8.36035 13.671 8.2197 13.5303C8.07904 13.3897 8.00003 13.1989 8.00003 13C8.00003 12.8011 8.07904 12.6103 8.2197 12.4697C8.36035 12.329 8.55112 12.25 8.75003 12.25H14.75C14.9489 12.25 15.1397 12.329 15.2804 12.4697C15.421 12.6103 15.5 12.8011 15.5 13C15.5 13.1989 15.421 13.3897 15.2804 13.5303C15.1397 13.671 14.9489 13.75 14.75 13.75ZM14.75 10.75H8.75003C8.55112 10.75 8.36035 10.671 8.2197 10.5303C8.07904 10.3897 8.00003 10.1989 8.00003 10C8.00003 9.80109 8.07904 9.61032 8.2197 9.46967C8.36035 9.32902 8.55112 9.25 8.75003 9.25H14.75C14.9489 9.25 15.1397 9.32902 15.2804 9.46967C15.421 9.61032 15.5 9.80109 15.5 10C15.5 10.1989 15.421 10.3897 15.2804 10.5303C15.1397 10.671 14.9489 10.75 14.75 10.75Z" fill="white"/>
</svg>
