<svg width="34" height="34" viewBox="0 0 34 34" fill="none" xmlns="http://www.w3.org/2000/svg">
<path opacity="0.06" d="M0 4C0 1.79086 1.79086 0 4 0H30C32.2091 0 34 1.79086 34 4V30C34 32.2091 32.2091 34 30 34H4C1.79086 34 0 32.2091 0 30V4Z" fill="#343434"/>
<path d="M17.0002 10.7C17.0002 10.2027 16.8027 9.72582 16.451 9.37419C16.0994 9.02256 15.6225 8.82501 15.1252 8.82501H10.7002C10.2029 8.82501 9.726 9.02256 9.37437 9.37419C9.02274 9.72582 8.8252 10.2027 8.8252 10.7V15.125C8.8252 15.6223 9.02274 16.0992 9.37437 16.4508C9.726 16.8025 10.2029 17 10.7002 17H15.1252C15.6225 17 16.0994 16.8025 16.451 16.4508C16.8027 16.0992 17.0002 15.6223 17.0002 15.125V10.7ZM15.7502 15.125C15.7502 15.2908 15.6843 15.4497 15.5671 15.567C15.4499 15.6842 15.291 15.75 15.1252 15.75H10.7002C10.5344 15.75 10.3755 15.6842 10.2583 15.567C10.141 15.4497 10.0752 15.2908 10.0752 15.125V10.7C10.0752 10.5343 10.141 10.3753 10.2583 10.2581C10.3755 10.1409 10.5344 10.075 10.7002 10.075H15.1252C15.291 10.075 15.4499 10.1409 15.5671 10.2581C15.6843 10.3753 15.7502 10.5343 15.7502 10.7V15.125Z" fill="#343434" stroke="#343434" stroke-width="0.5"/>
<path d="M23.3 17H18.875C18.3777 17 17.9008 17.1976 17.5492 17.5492C17.1975 17.9008 17 18.3777 17 18.875V23.3188C17 23.816 17.1975 24.293 17.5492 24.6446C17.9008 24.9962 18.3777 25.1938 18.875 25.1938H23.3125C23.8098 25.1938 24.2867 24.9962 24.6383 24.6446C24.99 24.293 25.1875 23.816 25.1875 23.3188V18.875C25.1875 18.6277 25.1386 18.3829 25.0436 18.1546C24.9486 17.9263 24.8094 17.719 24.6339 17.5447C24.4585 17.3705 24.2503 17.2326 24.0214 17.1391C23.7924 17.0456 23.5473 16.9984 23.3 17ZM23.925 23.3188C23.925 23.4845 23.8592 23.6435 23.7419 23.7607C23.6247 23.8779 23.4658 23.9438 23.3 23.9438H18.875C18.7092 23.9438 18.5503 23.8779 18.4331 23.7607C18.3158 23.6435 18.25 23.4845 18.25 23.3188V18.875C18.25 18.7093 18.3158 18.5503 18.4331 18.4331C18.5503 18.3159 18.7092 18.25 18.875 18.25H23.3125C23.4783 18.25 23.6372 18.3159 23.7544 18.4331C23.8717 18.5503 23.9375 18.7093 23.9375 18.875L23.925 23.3188Z" fill="#343434" stroke="#343434" stroke-width="0.5"/>
<path d="M13.6502 18.475H10.7002C10.2029 18.475 9.726 18.6725 9.37437 19.0242C9.02274 19.3758 8.8252 19.8527 8.8252 20.35V23.3C8.8252 23.7973 9.02274 24.2742 9.37437 24.6258C9.726 24.9775 10.2029 25.175 10.7002 25.175H13.6502C14.1475 25.175 14.6244 24.9775 14.976 24.6258C15.3277 24.2742 15.5252 23.7973 15.5252 23.3V20.35C15.5252 19.8527 15.3277 19.3758 14.976 19.0242C14.6244 18.6725 14.1475 18.475 13.6502 18.475ZM14.2752 23.3C14.2752 23.4658 14.2093 23.6247 14.0921 23.7419C13.9749 23.8592 13.816 23.925 13.6502 23.925H10.7002C10.5344 23.925 10.3755 23.8592 10.2583 23.7419C10.141 23.6247 10.0752 23.4658 10.0752 23.3V20.35C10.0752 20.1842 10.141 20.0253 10.2583 19.9081C10.3755 19.7909 10.5344 19.725 10.7002 19.725H13.6502C13.816 19.725 13.9749 19.7909 14.0921 19.9081C14.2093 20.0253 14.2752 20.1842 14.2752 20.35V23.3Z" fill="#343434" stroke="#343434" stroke-width="0.5"/>
<path d="M20.3501 15.4063H23.3001C23.7974 15.4063 24.2743 15.2087 24.6259 14.8571C24.9776 14.5055 25.1751 14.0285 25.1751 13.5313V10.575C25.1751 10.0777 24.9776 9.60082 24.6259 9.24919C24.2743 8.89756 23.7974 8.70001 23.3001 8.70001H20.3501C19.8528 8.70001 19.3759 8.89756 19.0243 9.24919C18.6726 9.60082 18.4751 10.0777 18.4751 10.575V13.5313C18.4751 14.0285 18.6726 14.5055 19.0243 14.8571C19.3759 15.2087 19.8528 15.4063 20.3501 15.4063ZM19.7251 10.575C19.7251 10.4093 19.7909 10.2503 19.9082 10.1331C20.0254 10.0159 20.1843 9.95001 20.3501 9.95001H23.3001C23.4659 9.95001 23.6248 10.0159 23.742 10.1331C23.8592 10.2503 23.9251 10.4093 23.9251 10.575V13.5313C23.9251 13.697 23.8592 13.856 23.742 13.9732C23.6248 14.0904 23.4659 14.1563 23.3001 14.1563H20.3501C20.1843 14.1563 20.0254 14.0904 19.9082 13.9732C19.7909 13.856 19.7251 13.697 19.7251 13.5313V10.575Z" fill="#343434" stroke="#343434" stroke-width="0.5"/>
</svg>
