<svg width="20" height="22" viewBox="0 0 20 22" fill="none" xmlns="http://www.w3.org/2000/svg">
<path fill-rule="evenodd" clip-rule="evenodd" d="M10.0181 5.74268C8.49933 5.74268 7.26814 6.97387 7.26814 8.49261C7.26814 10.0114 8.49933 11.2426 10.0181 11.2426C11.5368 11.2426 12.768 10.0114 12.768 8.49261C12.768 6.97387 11.5368 5.74268 10.0181 5.74268ZM8.76814 8.49261C8.76814 7.80229 9.32776 7.24268 10.0181 7.24268C10.7084 7.24268 11.268 7.80229 11.268 8.49261C11.268 9.18294 10.7084 9.74255 10.0181 9.74255C9.32776 9.74255 8.76814 9.18294 8.76814 8.49261Z" fill="#797979"/>
<path fill-rule="evenodd" clip-rule="evenodd" d="M10.0189 12.7274C8.58217 12.7259 6.64821 13.4383 5.43403 15.3076C5.25495 15.5833 5.15143 16.0164 5.38419 16.4291C5.55105 16.725 5.85478 17.1093 6.18901 17.4293C6.35943 17.5925 6.55524 17.7558 6.76447 17.8874C6.96461 18.0132 7.22937 18.1435 7.52919 18.1753C8.21122 18.2479 9.96545 18.257 10.0154 18.2572L10.0242 18.2572C10.0766 18.2569 11.7767 18.2478 12.4577 18.1753C12.7575 18.1435 13.0223 18.0132 13.2224 17.8874C13.4317 17.7558 13.6275 17.5925 13.7979 17.4293C14.1321 17.1093 14.4359 16.725 14.6027 16.4291C14.8355 16.0164 14.732 15.5833 14.5529 15.3076C13.3424 13.444 11.4619 12.7289 10.0189 12.7274ZM7.22632 16.3458C7.07464 16.2006 6.93996 16.0442 6.83936 15.9116C7.7442 14.6829 9.07451 14.2264 10.0173 14.2274C10.9543 14.2284 12.244 14.6781 13.1477 15.9114C13.0471 16.044 12.9124 16.2005 12.7606 16.3458C12.6386 16.4626 12.5227 16.5555 12.424 16.6176C12.3478 16.6655 12.3057 16.6799 12.2955 16.6834C12.2939 16.684 12.293 16.6843 12.2931 16.6844C12.2931 16.6845 12.2951 16.6842 12.2991 16.6838C11.7169 16.7457 10.1334 16.7565 10.0193 16.7572C9.90297 16.7565 8.28109 16.7457 7.69385 16.6844C7.69387 16.6843 7.69305 16.684 7.69138 16.6834C7.68117 16.6799 7.63912 16.6655 7.5629 16.6176C7.46419 16.5555 7.34834 16.4626 7.22632 16.3458Z" fill="#797979"/>
<path fill-rule="evenodd" clip-rule="evenodd" d="M6.75 1C6.75 0.585786 6.41421 0.25 6 0.25C5.58579 0.25 5.25 0.585786 5.25 1V2.41954L5.23089 2.42224C3.98228 2.59999 2.98243 2.97411 2.19954 3.80305C1.42237 4.62594 1.07678 5.66674 0.911575 6.9678C0.749979 8.24043 0.749988 9.87042 0.75 11.9459V12.0541C0.749988 14.1295 0.749979 15.7596 0.911575 17.0322C1.07678 18.3333 1.42236 19.3741 2.19955 20.197C2.98243 21.0259 3.98228 21.4 5.2309 21.5778C6.44103 21.75 7.98747 21.75 9.94032 21.75H10.0596C12.0125 21.75 13.5589 21.75 14.7691 21.5778C16.0177 21.4 17.0176 21.0259 17.8005 20.197C18.5776 19.3741 18.9232 18.3333 19.0884 17.0322C19.25 15.7596 19.25 14.1296 19.25 12.0541V11.9459C19.25 9.87047 19.25 8.24043 19.0884 6.9678C18.9232 5.66674 18.5776 4.62594 17.8005 3.80305C17.0176 2.97411 16.0177 2.59999 14.7691 2.42224L14.75 2.41954V1C14.75 0.585786 14.4142 0.25 14 0.25C13.5858 0.25 13.25 0.585786 13.25 1V2.29148C12.3326 2.24998 11.2748 2.24999 10.0596 2.25H9.94037C8.72518 2.24999 7.66735 2.24998 6.75 2.29148V1ZM3.29006 4.83299C3.75196 4.34391 4.37624 4.05903 5.4423 3.90727C6.53453 3.75178 7.97412 3.75 10 3.75C12.0259 3.75 13.4655 3.75178 14.5577 3.90727C15.6237 4.05903 16.248 4.34391 16.7099 4.83299C17.1776 5.32812 17.4544 6.00699 17.6004 7.15675C17.7486 8.32391 17.75 9.85863 17.75 12C17.75 14.1414 17.7486 15.6761 17.6004 16.8433C17.4544 17.993 17.1776 18.6719 16.7099 19.167C16.248 19.6561 15.6237 19.941 14.5577 20.0927C13.4655 20.2482 12.0259 20.25 10 20.25C7.97412 20.25 6.53453 20.2482 5.44229 20.0927C4.37624 19.941 3.75196 19.6561 3.29006 19.167C2.82244 18.6719 2.54562 17.993 2.39963 16.8433C2.25142 15.6761 2.25 14.1414 2.25 12C2.25 9.85863 2.25142 8.32391 2.39963 7.15675C2.54562 6.00699 2.82244 5.32812 3.29006 4.83299Z" fill="#797979"/>
</svg>
