<svg width="20" height="22" viewBox="0 0 20 22" fill="none" xmlns="http://www.w3.org/2000/svg">
<path fill-rule="evenodd" clip-rule="evenodd" d="M7 1.25C7 0.697715 6.55228 0.25 6 0.25C5.44772 0.25 5 0.697715 5 1.25V2.45788C3.85832 2.64846 2.93356 3.02585 2.19954 3.80305C1.42236 4.62594 1.07678 5.66674 0.911574 6.9678C0.749979 8.24043 0.749988 9.87042 0.75 11.9459C0.749988 14.0213 0.749979 15.7596 0.911575 17.0322C1.07678 18.3333 1.42236 19.3741 2.19954 20.1969C2.98243 21.0259 3.98228 21.4 5.23089 21.5778C6.44104 21.75 8.10675 21.75 10.0596 21.75C12.0125 21.75 13.559 21.75 14.7691 21.5778C16.0177 21.4 17.0176 21.0259 17.8005 20.1969C18.5776 19.3741 18.9232 18.3333 19.0884 17.0322C19.25 15.7596 19.25 14.0214 19.25 11.9459C19.25 9.87047 19.25 8.24043 19.0884 6.9678C18.9232 5.66674 18.5776 4.62594 17.8005 3.80305C17.0664 3.02585 16.1417 2.64846 15 2.45788V1.25C15 0.697715 14.5523 0.25 14 0.25C13.4477 0.25 13 0.697715 13 1.25V2.28129C12.1418 2.24998 11.166 2.24999 10.0597 2.25C8.93356 2.24999 7.90285 2.24998 7 2.28301V1.25ZM7.2501 8.5C7.2501 6.98122 8.48132 5.75 10.0001 5.75C11.5189 5.75 12.7501 6.98122 12.7501 8.5C12.7501 10.0188 11.5189 11.25 10.0001 11.25C8.48132 11.25 7.2501 10.0188 7.2501 8.5ZM12.8275 13.6177C13.1375 13.8137 13.8435 14.2614 14.2143 14.6697C14.4496 14.9288 14.6977 15.2967 14.7429 15.7626C14.7915 16.2627 14.5935 16.7221 14.2317 17.1099C13.6846 17.6963 12.953 18.25 11.9597 18.25H8.04048C7.04719 18.25 6.31558 17.6963 5.76846 17.1099C5.40665 16.7221 5.20867 16.2627 5.25726 15.7626C5.30253 15.2967 5.55059 14.9288 5.78592 14.6697C6.15667 14.2614 6.86266 13.8137 7.17272 13.6177C8.89978 12.4608 11.1004 12.4608 12.8275 13.6177Z" fill="#273E72"/>
</svg>
