<svg width="20" height="20" viewBox="0 0 20 20" fill="none" xmlns="http://www.w3.org/2000/svg">
<path d="M10 1.5625C8.33122 1.5625 6.69992 2.05735 5.31238 2.98448C3.92484 3.9116 2.84338 5.22936 2.20477 6.77111C1.56616 8.31286 1.39907 10.0094 1.72463 11.6461C2.05019 13.2828 2.85379 14.7862 4.03379 15.9662C5.2138 17.1462 6.71721 17.9498 8.35393 18.2754C9.99064 18.6009 11.6871 18.4338 13.2289 17.7952C14.7706 17.1566 16.0884 16.0752 17.0155 14.6876C17.9427 13.3001 18.4375 11.6688 18.4375 10C18.435 7.763 17.5453 5.61833 15.9635 4.03653C14.3817 2.45473 12.237 1.56498 10 1.5625ZM16.4945 9.0625H14.0281C13.9042 7.22403 13.3315 5.44397 12.3602 3.87812C13.4466 4.29887 14.4018 5.00054 15.1282 5.91141C15.8546 6.82228 16.3261 7.90969 16.4945 9.0625ZM10 16.1719C9.26875 15.3273 8.08907 13.5836 7.85547 10.9375H12.1477C12.031 12.3974 11.5731 13.8095 10.8109 15.0602C10.5712 15.4521 10.3 15.8239 10 16.1719ZM7.85547 9.0625C7.97218 7.60259 8.43004 6.19048 9.19219 4.93984C9.43096 4.54804 9.70112 4.17625 10 3.82812C10.7313 4.67266 11.9109 6.41641 12.1445 9.0625H7.85547ZM7.63985 3.87812C6.66852 5.44397 6.09582 7.22403 5.97188 9.0625H3.50547C3.67391 7.90969 4.14542 6.82228 4.87181 5.91141C5.59821 5.00054 6.55343 4.29887 7.63985 3.87812ZM3.50547 10.9375H5.97188C6.09582 12.776 6.66852 14.556 7.63985 16.1219C6.55343 15.7011 5.59821 14.9995 4.87181 14.0886C4.14542 13.1777 3.67391 12.0903 3.50547 10.9375ZM12.3602 16.1219C13.3315 14.556 13.9042 12.776 14.0281 10.9375H16.4945C16.3261 12.0903 15.8546 13.1777 15.1282 14.0886C14.4018 14.9995 13.4466 15.7011 12.3602 16.1219Z" fill="#343434"/>
</svg>
