<svg width="13" height="13" viewBox="0 0 13 13" fill="none" xmlns="http://www.w3.org/2000/svg">
<g clip-path="url(#clip0_336_190)">
<path d="M11.7812 5.89062H11.5416C11.4034 4.76317 10.8921 3.71434 10.0889 2.91114C9.28566 2.10795 8.23683 1.59657 7.10938 1.45844V1.21875C7.10938 1.05713 7.04517 0.902137 6.93089 0.787857C6.81661 0.673577 6.66162 0.609375 6.5 0.609375C6.33838 0.609375 6.18339 0.673577 6.06911 0.787857C5.95483 0.902137 5.89062 1.05713 5.89062 1.21875V1.45844C4.76317 1.59657 3.71434 2.10795 2.91114 2.91114C2.10795 3.71434 1.59657 4.76317 1.45844 5.89062H1.21875C1.05713 5.89062 0.902137 5.95483 0.787857 6.06911C0.673577 6.18339 0.609375 6.33838 0.609375 6.5C0.609375 6.66162 0.673577 6.81661 0.787857 6.93089C0.902137 7.04517 1.05713 7.10938 1.21875 7.10938H1.45844C1.59657 8.23683 2.10795 9.28566 2.91114 10.0889C3.71434 10.8921 4.76317 11.4034 5.89062 11.5416V11.7812C5.89062 11.9429 5.95483 12.0979 6.06911 12.2121C6.18339 12.3264 6.33838 12.3906 6.5 12.3906C6.66162 12.3906 6.81661 12.3264 6.93089 12.2121C7.04517 12.0979 7.10938 11.9429 7.10938 11.7812V11.5416C8.23683 11.4034 9.28566 10.8921 10.0889 10.0889C10.8921 9.28566 11.4034 8.23683 11.5416 7.10938H11.7812C11.9429 7.10938 12.0979 7.04517 12.2121 6.93089C12.3264 6.81661 12.3906 6.66162 12.3906 6.5C12.3906 6.33838 12.3264 6.18339 12.2121 6.06911C12.0979 5.95483 11.9429 5.89062 11.7812 5.89062ZM7.10938 10.3086V10.1562C7.10938 9.99463 7.04517 9.83964 6.93089 9.72536C6.81661 9.61108 6.66162 9.54688 6.5 9.54688C6.33838 9.54688 6.18339 9.61108 6.06911 9.72536C5.95483 9.83964 5.89062 9.99463 5.89062 10.1562V10.3086C5.08898 10.1788 4.34854 9.79992 3.77431 9.22569C3.20008 8.65146 2.8212 7.91102 2.69141 7.10938H2.84375C3.00537 7.10938 3.16036 7.04517 3.27464 6.93089C3.38892 6.81661 3.45312 6.66162 3.45312 6.5C3.45312 6.33838 3.38892 6.18339 3.27464 6.06911C3.16036 5.95483 3.00537 5.89062 2.84375 5.89062H2.69141C2.8212 5.08898 3.20008 4.34854 3.77431 3.77431C4.34854 3.20008 5.08898 2.8212 5.89062 2.69141V2.84375C5.89062 3.00537 5.95483 3.16036 6.06911 3.27464C6.18339 3.38892 6.33838 3.45312 6.5 3.45312C6.66162 3.45312 6.81661 3.38892 6.93089 3.27464C7.04517 3.16036 7.10938 3.00537 7.10938 2.84375V2.69141C7.91102 2.8212 8.65146 3.20008 9.22569 3.77431C9.79992 4.34854 10.1788 5.08898 10.3086 5.89062H10.1562C9.99463 5.89062 9.83964 5.95483 9.72536 6.06911C9.61108 6.18339 9.54688 6.33838 9.54688 6.5C9.54688 6.66162 9.61108 6.81661 9.72536 6.93089C9.83964 7.04517 9.99463 7.10938 10.1562 7.10938H10.3086C10.1788 7.91102 9.79992 8.65146 9.22569 9.22569C8.65146 9.79992 7.91102 10.1788 7.10938 10.3086ZM6.5 4.26562C6.05808 4.26562 5.62609 4.39667 5.25865 4.64219C4.89121 4.8877 4.60482 5.23666 4.43571 5.64494C4.26659 6.05322 4.22234 6.50248 4.30856 6.9359C4.39477 7.36933 4.60758 7.76746 4.92006 8.07994C5.23254 8.39243 5.63067 8.60523 6.0641 8.69144C6.49752 8.77766 6.94678 8.73341 7.35506 8.56429C7.76334 8.39518 8.1123 8.10879 8.35781 7.74135C8.60333 7.37391 8.73438 6.94192 8.73438 6.5C8.7337 5.90761 8.49808 5.33968 8.0792 4.9208C7.66032 4.50192 7.09239 4.2663 6.5 4.26562ZM6.5 7.51562C6.29913 7.51562 6.10277 7.45606 5.93575 7.34446C5.76873 7.23286 5.63856 7.07424 5.56168 6.88866C5.48481 6.70308 5.4647 6.49887 5.50389 6.30186C5.54308 6.10485 5.63981 5.92388 5.78184 5.78184C5.92388 5.63981 6.10485 5.54308 6.30186 5.50389C6.49887 5.4647 6.70308 5.48481 6.88866 5.56168C7.07424 5.63856 7.23286 5.76873 7.34446 5.93575C7.45606 6.10277 7.51562 6.29913 7.51562 6.5C7.51562 6.76936 7.40862 7.02769 7.21816 7.21816C7.02769 7.40862 6.76936 7.51562 6.5 7.51562Z" fill="#343434"/>
</g>
<defs>
<clipPath id="clip0_336_190">
<rect width="13" height="13" fill="white"/>
</clipPath>
</defs>
</svg>
