<svg width="34" height="34" viewBox="0 0 34 34" fill="none" xmlns="http://www.w3.org/2000/svg">
<path opacity="0.06" d="M0 4C0 1.79086 1.79086 0 4 0H30C32.2091 0 34 1.79086 34 4V30C34 32.2091 32.2091 34 30 34H4C1.79086 34 0 32.2091 0 30V4Z" fill="#343434"/>
<path d="M25.6402 17.8913C25.5176 17.7683 25.3638 17.6812 25.1953 17.639C25.0268 17.5969 24.8501 17.6015 24.684 17.6522C23.5238 18.0024 22.2904 18.0314 21.1151 17.7361C19.9398 17.4407 18.8666 16.8321 18.0098 15.975C17.1531 15.1179 16.5448 14.0445 16.2499 12.869C15.955 11.6936 15.9845 10.4602 16.3351 9.30016C16.3863 9.13401 16.3912 8.95706 16.3493 8.78834C16.3074 8.61962 16.2203 8.46551 16.0974 8.34258C15.9745 8.21965 15.8204 8.13256 15.6516 8.09067C15.4829 8.04879 15.306 8.05368 15.1398 8.10484C13.395 8.64114 11.8638 9.71418 10.7642 11.1712C9.80261 12.4493 9.21621 13.9701 9.0708 15.5629C8.92539 17.1557 9.22672 18.7575 9.94099 20.1886C10.6553 21.6197 11.7542 22.8235 13.1145 23.6648C14.4748 24.5061 16.0426 24.9517 17.642 24.9516C19.5094 24.9571 21.327 24.3499 22.8161 23.2232C24.2724 22.1225 25.3443 20.5904 25.8793 18.8451C25.9296 18.6794 25.9339 18.5031 25.8918 18.3351C25.8497 18.1671 25.7627 18.0137 25.6402 17.8913ZM21.6654 21.6955C20.3765 22.6659 18.7805 23.138 17.1711 23.0251C15.5617 22.9122 14.0472 22.2218 12.9064 21.081C11.7656 19.9402 11.0752 18.4257 10.9622 16.8163C10.8493 15.2069 11.3215 13.6109 12.2918 12.3219C12.8024 11.6465 13.4352 11.0729 14.1573 10.6309C14.1429 10.8349 14.1358 11.0397 14.1358 11.2453C14.1383 13.5271 15.0458 15.7146 16.6593 17.3281C18.2727 18.9415 20.4603 19.849 22.742 19.8516C22.9476 19.8516 23.1524 19.8444 23.3564 19.8301C22.9146 20.5523 22.341 21.1852 21.6654 21.6955Z" fill="#343434"/>
</svg>
