<svg width="28" height="28" viewBox="0 0 28 28" fill="none" xmlns="http://www.w3.org/2000/svg">
<path d="M23.1726 16.8112C21.8622 20.3616 18.4518 22.8984 14.4422 22.8984C10.4326 22.8984 5.14062 18.732 5.14062 13.5968C5.14062 8.46156 7.40302 6.55756 10.6454 5.10156C10.2758 6.10396 10.0742 7.18476 10.0742 8.31596C10.0742 13.4512 14.2406 17.6176 19.3758 17.6176C24.511 17.6176 22.0134 17.3264 23.1726 16.8112Z" fill="#FAC800"/>
<path d="M17.8939 8.6007L19.5515 9.5079L17.8939 10.4151L16.9867 12.0727L16.0795 10.4151L14.4219 9.5079L16.0795 8.6007L16.9867 6.9375L17.8939 8.6007Z" fill="#FAC800"/>
<path d="M19.1503 14.1665L19.8615 14.5529L19.1503 14.9393L18.7639 15.6505L18.3775 14.9393L17.6719 14.5529L18.3775 14.1665L18.7639 13.4609L19.1503 14.1665Z" fill="#FAC800"/>
<path d="M6.31212 20.6487L7.01773 21.0351L6.31212 21.4215L5.92573 22.1271L5.53373 21.4215L4.82812 21.0351L5.53373 20.6487L5.92573 19.9375L6.31212 20.6487Z" fill="#FAC800"/>
</svg>
