<svg width="21" height="22" viewBox="0 0 21 22" fill="none" xmlns="http://www.w3.org/2000/svg">
<path fill-rule="evenodd" clip-rule="evenodd" d="M10.5662 0.250001H10.5022C9.9969 0.249987 9.56827 0.249975 9.21258 0.282355C8.83514 0.316717 8.48355 0.39114 8.14357 0.571917C8.00939 0.643262 7.88136 0.725607 7.76078 0.818108C7.45528 1.05248 7.24173 1.34153 7.05391 1.67073C6.87691 1.98095 6.69915 2.37096 6.48958 2.83074L6.07055 3.75H1.5C1.08579 3.75 0.75 4.08579 0.75 4.5C0.75 4.91422 1.08579 5.25 1.5 5.25H2.29387L2.8583 14.6086C2.93374 15.8595 2.99359 16.8521 3.11812 17.6449C3.24581 18.4579 3.4511 19.1349 3.86289 19.7272C4.23964 20.2691 4.72505 20.7265 5.28825 21.0703C6.14304 21.5922 7.15284 21.7126 8.47901 21.7497C8.89306 21.7613 9.23811 21.435 9.24971 21.021C9.2613 20.6069 8.93504 20.2619 8.52099 20.2503C7.20931 20.2136 6.55765 20.0879 6.06986 19.7901C5.68455 19.5548 5.35235 19.2418 5.09448 18.8709C4.86446 18.5401 4.71013 18.1136 4.59995 17.4121C4.48788 16.6986 4.43155 15.7779 4.35325 14.4796L3.7966 5.25H17.2023L16.8496 10.96C16.8241 11.3734 17.1385 11.7293 17.552 11.7548C17.9654 11.7803 18.3212 11.4659 18.3468 11.0525L18.7051 5.25H19.5C19.9142 5.25 20.25 4.91422 20.25 4.5C20.25 4.08579 19.9142 3.75 19.5 3.75H15.0256L14.5341 2.73608C14.3192 2.29264 14.1367 1.91616 13.9571 1.61688C13.7664 1.29917 13.552 1.02075 13.2501 0.795608C13.1308 0.70664 13.0045 0.627499 12.8724 0.558966C12.5382 0.385548 12.1941 0.314081 11.825 0.281071C11.4774 0.249976 11.059 0.249987 10.5662 0.250001ZM13.3587 3.75H7.71904L7.84105 3.48234C8.06765 2.98523 8.2176 2.65798 8.35677 2.41407C8.48887 2.18253 8.58366 2.07739 8.6738 2.00823C8.72861 1.96619 8.78681 1.92876 8.8478 1.89633C8.94812 1.84298 9.0831 1.80035 9.34858 1.77618C9.62824 1.75072 9.9882 1.75 10.5345 1.75C11.0675 1.75 11.4184 1.75069 11.6914 1.77511C11.9504 1.79827 12.0828 1.83916 12.1816 1.89044C12.2417 1.92159 12.2991 1.95756 12.3533 1.99801C12.4426 2.06458 12.5371 2.16588 12.6709 2.38884C12.812 2.62382 12.9657 2.93926 13.1982 3.41888L13.3587 3.75Z" fill="#E43D39"/>
<path d="M19.0303 14.5303C19.3232 14.2375 19.3232 13.7626 19.0303 13.4697C18.7375 13.1768 18.2626 13.1768 17.9697 13.4697L14.9998 16.4394L12.0303 13.4701C11.7374 13.1772 11.2625 13.1772 10.9697 13.4701C10.6768 13.7631 10.6768 14.2379 10.9697 14.5308L13.9391 17.5L10.9697 20.4692C10.6768 20.7621 10.6768 21.2369 10.9697 21.5299C11.2625 21.8228 11.7374 21.8228 12.0303 21.5299L14.9998 18.5606L17.9697 21.5303C18.2626 21.8232 18.7375 21.8232 19.0303 21.5303C19.3232 21.2374 19.3232 20.7625 19.0303 20.4697L16.0605 17.5L19.0303 14.5303Z" fill="#E43D39"/>
</svg>
