<svg width="20" height="20" viewBox="0 0 20 20" fill="none" xmlns="http://www.w3.org/2000/svg">
<circle cx="10" cy="10" r="10" fill="#DD272C"/>
<path d="M13.386 12.6717C13.4808 12.7665 13.5341 12.8951 13.5341 13.0292C13.5341 13.1634 13.4808 13.292 13.386 13.3868C13.2912 13.4816 13.1625 13.5349 13.0284 13.5349C12.8943 13.5349 12.7657 13.4816 12.6709 13.3868L10 10.7151L7.32831 13.386C7.23348 13.4808 7.10486 13.5341 6.97074 13.5341C6.83663 13.5341 6.708 13.4808 6.61317 13.386C6.51833 13.2911 6.46506 13.1625 6.46506 13.0284C6.46506 12.8943 6.51833 12.7657 6.61317 12.6708L9.28486 9.99997L6.61401 7.32828C6.51918 7.23344 6.4659 7.10482 6.4659 6.9707C6.4659 6.83659 6.51918 6.70797 6.61401 6.61313C6.70884 6.5183 6.83747 6.46502 6.97158 6.46502C7.1057 6.46502 7.23432 6.5183 7.32915 6.61313L10 9.28483L12.6717 6.61271C12.7665 6.51788 12.8952 6.4646 13.0293 6.4646C13.1634 6.4646 13.292 6.51788 13.3868 6.61271C13.4817 6.70754 13.535 6.83617 13.535 6.97028C13.535 7.1044 13.4817 7.23302 13.3868 7.32786L10.7152 9.99997L13.386 12.6717Z" fill="white"/>
</svg>
