<svg width="16" height="12" viewBox="0 0 16 12" fill="none" xmlns="http://www.w3.org/2000/svg">
<g clip-path="url(#clip0_1573_26789)">
<rect width="16" height="12" fill="white"/>
<path fill-rule="evenodd" clip-rule="evenodd" d="M0 0V12H16V0H0Z" fill="#F7FCFF"/>
<mask id="mask0_1573_26789" style="mask-type:luminance" maskUnits="userSpaceOnUse" x="0" y="0" width="16" height="12">
<path fill-rule="evenodd" clip-rule="evenodd" d="M0 0V12H16V0H0Z" fill="white"/>
</mask>
<g mask="url(#mask0_1573_26789)">
<path fill-rule="evenodd" clip-rule="evenodd" d="M0 0V4H16V0H0Z" fill="#BF2714"/>
<path fill-rule="evenodd" clip-rule="evenodd" d="M0 8V12H16V8H0Z" fill="#272727"/>
<path d="M6.13014 5.11011L6.62961 5.133L6.50424 7.86791L6.00476 7.84501L6.13014 5.11011Z" fill="#C09302"/>
<path d="M6.65199 5.27985L7.15119 5.30807L7.02581 7.52573L6.52661 7.49751L6.65199 5.27985Z" fill="#C09302"/>
<path d="M7.1742 5.44592L7.67253 5.48681L7.54715 7.01482L7.04883 6.97393L7.1742 5.44592Z" fill="#C09302"/>
<path d="M9.8698 5.11011L9.37033 5.133L9.4957 7.86791L9.99518 7.84501L9.8698 5.11011Z" fill="#C09302"/>
<path d="M9.34795 5.27985L8.84875 5.30807L8.97412 7.52573L9.47333 7.49751L9.34795 5.27985Z" fill="#C09302"/>
<path d="M8.82573 5.44592L8.32741 5.48681L8.45279 7.01482L8.95111 6.97393L8.82573 5.44592Z" fill="#C09302"/>
<path d="M7.98664 7.66333L7.49927 7.55166L7.70555 6.65131L8.19293 6.76297L7.98664 7.66333Z" fill="#C09302"/>
<path d="M8.35974 7.66333L8.84711 7.55166L8.64082 6.65131L8.15345 6.76297L8.35974 7.66333Z" fill="#C09302"/>
<path d="M8.23608 7.65508H7.73608V6.77112H8.23608V7.65508Z" fill="#C09302"/>
<path d="M7.31735 5.4566L7.8172 5.46887L7.788 6.65932L7.28815 6.64705L7.31735 5.4566Z" fill="#C09302"/>
<path d="M8.18692 5.4566L8.68677 5.46887L8.65756 6.65932L8.15771 6.64705L8.18692 5.4566Z" fill="#C09302"/>
<path d="M6.66895 7.96142L6.7988 7.47858C7.32932 7.62125 7.73668 7.69181 8.01445 7.69181C8.29223 7.69181 8.69958 7.62125 9.23011 7.47858L9.35996 7.96142C8.79077 8.11449 8.3444 8.19181 8.01445 8.19181C7.6845 8.19181 7.23814 8.11449 6.66895 7.96142Z" fill="#C09302"/>
<path d="M6.1411 5.11133C6.10777 4.78103 6.30109 4.55744 6.62872 4.58595C6.73645 4.59533 6.85745 4.6272 7.01861 4.68188C7.06569 4.69803 7.06569 4.69803 7.11145 4.71423C7.333 4.79303 7.39315 4.81328 7.40564 4.81595C7.35655 4.80483 7.50114 4.54345 7.5343 4.49939C7.53822 4.52737 7.52158 4.52339 7.48161 4.51539L7.03059 4.42512L7.35165 4.09575C7.46387 3.98062 7.61332 3.92352 7.78386 3.92352C7.80154 3.92352 7.81804 3.9227 7.87222 3.91937C7.91229 3.91693 7.91229 3.91693 7.95734 3.91507C8.26932 3.90496 8.49305 3.99318 8.49305 4.31401C8.49305 4.42879 8.50755 4.61336 8.53148 4.75339C8.53953 4.80049 8.55507 4.84458 8.50922 4.86394C8.51111 4.84723 8.62038 4.80411 8.79031 4.73305L8.81071 4.72452C9.30442 4.51845 9.36211 4.49933 9.52126 4.59605C9.62731 4.66051 9.7283 4.77645 9.84145 4.9493L9.42311 5.22315C9.35013 5.11166 9.29201 5.04401 9.26433 5.02511C9.32723 5.06881 9.11538 5.13916 9.0033 5.18594L8.98322 5.19433C8.59883 5.35509 8.54815 5.37427 8.43824 5.37427C8.13915 5.37427 8.03175 5.06789 8.00235 4.62911C7.91007 4.9329 7.63473 5.31627 7.40785 5.31627C7.30852 5.31627 7.35627 5.33199 6.9439 5.18532C6.90069 5.17003 6.90069 5.17003 6.85796 5.15537C6.73303 5.11298 6.64291 5.08921 6.58605 5.08413C6.5884 5.08145 6.59677 5.07244 6.60616 5.0644L6.1411 5.11133Z" fill="#C09302"/>
</g>
</g>
<defs>
<clipPath id="clip0_1573_26789">
<rect width="16" height="12" fill="white"/>
</clipPath>
</defs>
</svg>
