<svg width="17" height="15" viewBox="0 0 17 15" fill="none" xmlns="http://www.w3.org/2000/svg">
<path fill-rule="evenodd" clip-rule="evenodd" d="M10.6896 0.898494C9.2249 0.860984 7.77437 0.860984 6.30962 0.898494H6.26611C5.12236 0.928502 4.20214 0.950965 3.46489 1.0785C2.69239 1.21354 2.0646 1.46859 1.5351 2.00124C1.0071 2.53388 0.750625 3.14905 0.618625 3.91426C0.492625 4.63446 0.473875 5.53474 0.449875 6.64504V6.69002C0.433375 7.43273 0.433375 8.18299 0.449875 8.9257V8.97068C0.474625 10.081 0.493357 10.9813 0.619357 11.7015C0.751357 12.4667 1.00791 13.0818 1.53591 13.6145C2.06541 14.1471 2.69312 14.4022 3.46562 14.5372C4.20287 14.6648 5.12317 14.6872 6.26692 14.7172H6.31035C7.7751 14.7547 9.22563 14.7547 10.6904 14.7172H10.7339C11.8776 14.6872 12.7979 14.6648 13.5351 14.5372C14.3076 14.4022 14.9354 14.1471 15.4649 13.6145C15.9929 13.0818 16.2494 12.4667 16.3814 11.7015C16.5074 10.9813 16.5261 10.081 16.5501 8.97068V8.9257C16.5666 8.18299 16.5666 7.43273 16.5501 6.69002V6.64504C16.5261 5.53474 16.5074 4.63446 16.3814 3.91426C16.2494 3.14905 15.9929 2.53388 15.4649 2.00124C14.9354 1.46859 14.3076 1.21354 13.5351 1.0785C12.7979 0.950965 11.8776 0.928502 10.7339 0.898494H10.6904H10.6896ZM5.03615 4.69451C4.7684 4.53696 4.42337 4.627 4.26587 4.89708C4.10762 5.15965 4.19611 5.50473 4.46311 5.66977L6.6696 6.97516C7.32285 7.35777 7.88688 7.62031 8.49963 7.62031C9.11238 7.62031 9.67641 7.35777 10.3297 6.97516L12.5362 5.66977C12.8032 5.50473 12.8924 5.15965 12.7341 4.89708C12.5759 4.627 12.2309 4.53696 11.9631 4.69451L9.75661 5.99989C9.12361 6.375 8.78688 6.495 8.49963 6.495C8.21238 6.495 7.87565 6.375 7.24265 5.99989L5.03615 4.69451Z" fill="#626262"/>
</svg>
