<svg width="173" height="110" viewBox="0 0 173 110" fill="none" xmlns="http://www.w3.org/2000/svg">
<path d="M62.7373 30.2749C62.7373 28.5475 62.6861 26.9115 62.6426 25.4204C62.5984 23.9093 62.5633 22.562 62.585 21.314C62.6289 18.7837 62.9115 17.0213 63.585 15.6714C64.7777 13.2811 67.9454 10.8553 78.8838 9.73975L78.8896 9.66455C79.0249 9.65066 79.2194 9.63121 79.4658 9.604C79.9657 9.54881 80.6811 9.46558 81.5518 9.35303C83.2897 9.12835 85.6639 8.78376 88.1943 8.30615C90.7136 7.83066 93.4494 7.21193 95.8877 6.42627C96.63 6.18707 97.385 5.9188 98.123 5.61865C98.4543 6.79726 98.9256 8.12988 99.5986 9.50732L100.119 10.5718L101.228 10.9937C105.519 12.6273 107.766 15.2129 109.014 18.3257C110.329 21.6056 110.6 25.6413 110.457 30.1802L110.455 30.2271V43.7388L112.953 42.438C112.801 43.7478 112.48 45.2469 112.156 46.4712L112.153 46.4829C111.905 47.4372 111.443 48.0908 111.042 48.4448C110.851 48.6134 110.719 48.6798 110.655 48.7056L107.803 48.2046L107.315 51.2046C106.091 58.7478 103.496 63.8193 100.167 67.0454L96.709 70.397L101.242 72.0229C107.796 74.3742 113.56 78.2537 118.072 83.1616L120.25 85.5298L122.461 83.1919C125.329 80.1583 128.917 77.7415 132.995 76.2603L137.404 74.6587L134.101 71.3276C132.252 69.4635 130.664 66.3628 129.828 61.0884L129.338 57.9946L126.766 58.5161C126.552 58.3277 126.34 58.0251 126.248 57.6714H126.249C126.189 57.4406 126.133 57.1932 126.082 56.939L127.71 57.771V47.1206C127.71 45.9386 127.675 44.8198 127.646 43.8179C127.616 42.7959 127.592 41.9096 127.606 41.0942C127.635 39.4295 127.823 38.4196 128.178 37.7085C128.733 36.5959 130.365 34.9936 137.718 34.2417L137.723 34.188C137.816 34.1784 137.949 34.1645 138.117 34.146C138.46 34.1082 138.949 34.0519 139.543 33.9751C140.728 33.822 142.349 33.5867 144.08 33.2603C145.799 32.9359 147.688 32.5103 149.386 31.9634C149.581 31.9004 149.78 31.8324 149.981 31.7622C150.18 32.3283 150.423 32.9258 150.722 33.5366L151.241 34.6011L152.347 35.0229C154.974 36.0263 156.288 37.5685 157.03 39.4214C157.839 41.4405 158.03 43.9953 157.937 47.0229L157.935 47.0688V57.7358L159.296 57.0493C159.238 57.2999 159.179 57.5453 159.117 57.7769L159.114 57.7886C159.029 58.117 158.895 58.3468 158.782 58.4907L156.32 58.0415L155.833 61.0659C155.039 65.995 153.354 69.2109 151.297 71.2104L147.842 74.5679L152.379 76.187C161.802 79.5514 168.641 87.6287 169.819 97.2612H126.598L127.411 100.914C127.787 102.599 128.055 104.318 128.201 106.063H44.791C44.9383 104.32 45.2082 102.601 45.584 100.914L46.3975 97.2612H3.18457C4.36796 87.6955 11.1421 79.6717 20.4834 76.2798L24.8936 74.6782L21.5898 71.3472C19.7397 69.4817 18.1477 66.385 17.3174 61.1108L16.8291 58.0132L14.2529 58.5356C14.0407 58.3482 13.8292 58.0456 13.7354 57.689L13.7344 57.6831L13.6514 57.3501C13.62 57.216 13.5906 57.078 13.5625 56.938L15.1934 57.7603V47.1401C15.1934 45.9582 15.1582 44.8402 15.1289 43.8384C15.099 42.8162 15.0758 41.9292 15.0898 41.1138C15.1186 39.449 15.3074 38.4391 15.6621 37.728C16.2174 36.6152 17.8515 35.0132 25.2061 34.2612L25.2109 34.2075C25.3045 34.1979 25.4379 34.1841 25.6064 34.1655C25.9487 34.1277 26.4367 34.0714 27.0303 33.9946C28.2144 33.8415 29.8353 33.6063 31.5654 33.2798C33.284 32.9554 35.172 32.5297 36.8701 31.9829C37.0662 31.9198 37.266 31.8521 37.4678 31.7817C37.6655 32.3465 37.9067 32.9429 38.2031 33.5522L38.7227 34.6196L39.8311 35.0425C42.4612 36.0462 43.7768 37.589 44.5186 39.4409C45.3269 41.459 45.5157 44.0128 45.4199 47.0396L45.4189 47.0874V57.7554L46.7812 57.0679C46.7232 57.3207 46.6636 57.5688 46.6016 57.8032L46.6006 57.8052C46.5135 58.1352 46.3789 58.3658 46.2666 58.5103L43.8066 58.064L43.3174 61.0835C42.5187 66.0144 40.8328 69.2303 38.7754 71.23L35.3213 74.5874L39.8574 76.2065C43.99 77.6821 47.624 80.1253 50.5381 83.1958L52.7471 85.5229L54.9209 83.1636C59.3889 78.3134 65.0697 74.467 71.5391 72.1118L75.9443 70.5083L72.6426 67.1792C69.6115 64.1245 67.1645 59.2203 65.9092 51.2114L65.4219 48.0981L62.5176 48.6997C62.3887 48.6528 62.1678 48.5401 61.9023 48.3188C61.3589 47.8658 60.8488 47.1457 60.6221 46.2837V46.2808L60.4902 45.7534C60.2336 44.654 60.0347 43.3862 59.9795 42.2876L62.7373 43.6968V30.2749Z" stroke="#D5D2D5" stroke-width="6"/>
</svg>
