<svg fill="none" height="16" viewBox="0 0 20 16" width="20" xmlns="http://www.w3.org/2000/svg">
    <g clip-path="url(#clip0_292_6347)">
        <rect fill="white" height="15" transform="translate(0 0.5)" width="20" />
        <path clip-rule="evenodd" d="M0 0.5V15.5H20V0.5H0Z" fill="#2E42A5" fill-rule="evenodd" />
        <mask style="mask-type:luminance" height="16" id="mask0_292_6347" maskUnits="userSpaceOnUse" width="20"
            x="0" y="0">
            <path clip-rule="evenodd" d="M0 0.5V15.5H20V0.5H0Z" fill="white" fill-rule="evenodd" />
        </mask>
        <g mask="url(#mask0_292_6347)">
            <path
                d="M-2.22656 14.4283L2.17449 16.2896L20.1003 2.52354L22.4217 -0.242388L17.7154 -0.864485L10.4039 5.06768L4.51893 9.06458L-2.22656 14.4283Z"
                fill="white" />
            <path d="M-1.62402 15.7324L0.618111 16.8125L21.5881 -0.499338H18.4399L-1.62402 15.7324Z"
                fill="#F50100" />
            <path
                d="M22.2275 14.4283L17.8265 16.2896L-0.0992908 2.52354L-2.42075 -0.242388L2.28555 -0.864485L9.59704 5.06768L15.482 9.06458L22.2275 14.4283Z"
                fill="white" />
            <path
                d="M22.0771 15.3642L19.835 16.4443L10.9058 9.03224L8.25843 8.2041L-2.64434 -0.232895H0.503876L11.4005 8.00384L14.2949 8.99687L22.0771 15.3642Z"
                fill="#F50100" />
            <mask fill="white" id="path-7-inside-1_292_6347">
                <path clip-rule="evenodd" d="M12.3615 -0.75H7.63926V5.5H-1.23242V10.5H7.63926V16.75H12.3615V10.5H21.2676V5.5H12.3615V-0.75Z"
                    fill-rule="evenodd" />
            </mask>
            <path clip-rule="evenodd" d="M12.3615 -0.75H7.63926V5.5H-1.23242V10.5H7.63926V16.75H12.3615V10.5H21.2676V5.5H12.3615V-0.75Z"
                fill="#F50100"
                fill-rule="evenodd" />
            <path
                d="M7.63926 -0.75V-2H6.38926V-0.75H7.63926ZM12.3615 -0.75H13.6115V-2H12.3615V-0.75ZM7.63926 5.5V6.75H8.88926V5.5H7.63926ZM-1.23242 5.5V4.25H-2.48242V5.5H-1.23242ZM-1.23242 10.5H-2.48242V11.75H-1.23242V10.5ZM7.63926 10.5H8.88926V9.25H7.63926V10.5ZM7.63926 16.75H6.38926V18H7.63926V16.75ZM12.3615 16.75V18H13.6115V16.75H12.3615ZM12.3615 10.5V9.25H11.1115V10.5H12.3615ZM21.2676 10.5V11.75H22.5176V10.5H21.2676ZM21.2676 5.5H22.5176V4.25H21.2676V5.5ZM12.3615 5.5H11.1115V6.75H12.3615V5.5ZM7.63926 0.5H12.3615V-2H7.63926V0.5ZM8.88926 5.5V-0.75H6.38926V5.5H8.88926ZM-1.23242 6.75H7.63926V4.25H-1.23242V6.75ZM0.0175781 10.5V5.5H-2.48242V10.5H0.0175781ZM7.63926 9.25H-1.23242V11.75H7.63926V9.25ZM8.88926 16.75V10.5H6.38926V16.75H8.88926ZM12.3615 15.5H7.63926V18H12.3615V15.5ZM11.1115 10.5V16.75H13.6115V10.5H11.1115ZM21.2676 9.25H12.3615V11.75H21.2676V9.25ZM20.0176 5.5V10.5H22.5176V5.5H20.0176ZM12.3615 6.75H21.2676V4.25H12.3615V6.75ZM11.1115 -0.75V5.5H13.6115V-0.75H11.1115Z"
                fill="white" mask="url(#path-7-inside-1_292_6347)" />
        </g>
    </g>
    <defs>
        <clipPath id="clip0_292_6347">
            <rect fill="white" height="15" transform="translate(0 0.5)" width="20" />
        </clipPath>
    </defs>
</svg>
