<svg width="28" height="28" viewBox="0 0 28 28" fill="none" xmlns="http://www.w3.org/2000/svg">
<path d="M21 12.2597V21.1482C21 21.6393 20.7939 22.1104 20.4269 22.4576C20.06 22.8049 19.5624 23 19.0435 23H4.95652C4.43762 23 3.93997 22.8049 3.57305 22.4576C3.20613 22.1104 3 21.6393 3 21.1482V12.2597C3 11.7686 3.20613 11.2976 3.57305 10.9503C3.93997 10.6031 4.43762 10.408 4.95652 10.408H6.91304C7.22438 10.408 7.52297 10.525 7.74313 10.7334C7.96328 10.9417 8.08696 11.2243 8.08696 11.519C8.08696 11.8137 7.96328 12.0963 7.74313 12.3047C7.52297 12.513 7.22438 12.6301 6.91304 12.6301H5.34783V20.7779H18.6522V12.6301H17.087C16.7756 12.6301 16.477 12.513 16.2569 12.3047C16.0367 12.0963 15.913 11.8137 15.913 11.519C15.913 11.2243 16.0367 10.9417 16.2569 10.7334C16.477 10.525 16.7756 10.408 17.087 10.408H19.0435C19.5624 10.408 20.06 10.6031 20.4269 10.9503C20.7939 11.2976 21 11.7686 21 12.2597ZM8.9175 8.60156L10.8261 6.79701V14.4819C10.8261 14.7765 10.9498 15.0591 11.1699 15.2675C11.3901 15.4759 11.6887 15.5929 12 15.5929C12.3113 15.5929 12.6099 15.4759 12.8301 15.2675C13.0502 15.0591 13.1739 14.7765 13.1739 14.4819V6.79701L15.0825 8.60433C15.1917 8.70768 15.3213 8.78967 15.464 8.8456C15.6067 8.90153 15.7596 8.93032 15.914 8.93032C16.0684 8.93032 16.2214 8.90153 16.364 8.8456C16.5067 8.78967 16.6363 8.70768 16.7455 8.60433C16.8547 8.50098 16.9414 8.37829 17.0005 8.24325C17.0596 8.10822 17.09 7.96349 17.09 7.81733C17.09 7.67117 17.0596 7.52644 17.0005 7.39141C16.9414 7.25638 16.8547 7.13368 16.7455 7.03033L12.8325 3.32679C12.7234 3.22321 12.5938 3.14102 12.4512 3.08494C12.3085 3.02887 12.1555 3 12.001 3C11.8465 3 11.6935 3.02887 11.5508 3.08494C11.4081 3.14102 11.2785 3.22321 11.1695 3.32679L7.25641 7.03033C7.14722 7.13368 7.0606 7.25638 7.0015 7.39141C6.9424 7.52644 6.91199 7.67117 6.91199 7.81733C6.91199 8.11251 7.03588 8.39561 7.25641 8.60433C7.47695 8.81306 7.77605 8.93032 8.08793 8.93032C8.39982 8.93032 8.69892 8.81306 8.91946 8.60433L8.9175 8.60156Z" fill="#343434"/>
</svg>
