<svg width="25" height="24" viewBox="0 0 25 24" fill="none" xmlns="http://www.w3.org/2000/svg">
<g opacity="0.5">
<path d="M11.0261 10.5869C10.6355 10.9621 10.4161 11.4708 10.4162 12.0013C10.4163 12.5317 10.6358 13.0404 11.0266 13.4154C11.4174 13.7904 11.9474 14.0011 12.4999 14.001C13.0525 14.0009 13.5823 13.7901 13.973 13.4149M17.376 16.673C15.9148 17.5507 14.2236 18.0109 12.5 18C8.75 18 5.625 16 3.125 12C4.45 9.88003 5.95 8.32203 7.625 7.32603M10.6042 6.18003C11.2282 6.05876 11.8633 5.99845 12.5 6.00003C16.25 6.00003 19.375 8.00003 21.875 12C21.1812 13.11 20.4385 14.067 19.6479 14.87M3.125 3L21.875 21" stroke="#343434" stroke-width="1.3" stroke-linecap="round" stroke-linejoin="round"/>
</g>
</svg>
