<svg fill="none" height="32" viewBox="0 0 32 32" width="32" xmlns="http://www.w3.org/2000/svg">
    <path
        d="M0.8125 22.4062C1.26122 22.4062 1.625 22.77 1.625 23.2188V26.8125C1.625 28.7768 3.22316 30.375 5.1875 30.375H8.78125C9.22997 30.375 9.59375 30.7388 9.59375 31.1875C9.59375 31.6362 9.22997 32 8.78125 32H5.1875C2.32712 32 0 29.6729 0 26.8125V23.2188C3.27184e-09 22.77 0.363781 22.4062 0.8125 22.4062ZM31.1875 22.4062C31.6362 22.4062 32 22.77 32 23.2188V26.8125C32 29.6729 29.6729 32 26.8125 32H23.2188C22.77 32 22.4062 31.6362 22.4062 31.1875C22.4062 30.7388 22.77 30.375 23.2188 30.375H26.8125C28.7768 30.375 30.375 28.7768 30.375 26.8125V23.2188C30.375 22.77 30.7388 22.4062 31.1875 22.4062ZM10.3457 22.459C10.6619 22.1167 11.1957 22.095 11.5381 22.4111C12.7561 23.5363 14.3406 24.1562 16 24.1562C17.6594 24.1562 19.2439 23.5362 20.4619 22.4111C20.8042 22.0951 21.3381 22.1167 21.6543 22.459C21.9704 22.8013 21.9497 23.3352 21.6074 23.6514C20.0767 25.0653 18.0851 25.8437 16 25.8438C13.9149 25.8438 11.9234 25.0653 10.3926 23.6514C10.0503 23.3352 10.0295 22.8013 10.3457 22.459ZM16.8438 11.2188C17.3097 11.2188 17.6875 11.5965 17.6875 12.0625V18.0625C17.6875 19.2515 16.7202 20.2188 15.5312 20.2188H14.8438C14.3778 20.2188 14 19.841 14 19.375C14 18.909 14.3778 18.5312 14.8438 18.5312H15.5312C15.7897 18.5312 16 18.321 16 18.0625V12.0625C16 11.5965 16.3778 11.2188 16.8438 11.2188ZM9.48438 11.2188C9.92447 11.2188 10.2812 11.5755 10.2812 12.0156V14.4219C10.2812 14.862 9.92447 15.2188 9.48438 15.2188C9.04428 15.2188 8.6875 14.862 8.6875 14.4219V12.0156C8.6875 11.5755 9.04428 11.2188 9.48438 11.2188ZM22.7031 11.2188C23.1432 11.2188 23.5 11.5755 23.5 12.0156V14.4219C23.5 14.862 23.1432 15.2188 22.7031 15.2188C22.263 15.2188 21.9062 14.862 21.9062 14.4219V12.0156C21.9062 11.5755 22.263 11.2188 22.7031 11.2188ZM8.78125 0C9.22997 0 9.59375 0.363781 9.59375 0.8125C9.59375 1.26122 9.22997 1.625 8.78125 1.625H5.1875C3.22316 1.625 1.625 3.22312 1.625 5.1875V8.78125C1.625 9.22997 1.26122 9.59375 0.8125 9.59375C0.363781 9.59375 0 9.22997 0 8.78125V5.1875C2.09635e-08 2.32709 2.32712 2.09628e-08 5.1875 0H8.78125ZM26.8125 0C29.6729 0 32 2.32709 32 5.1875V8.78125C32 9.22997 31.6362 9.59375 31.1875 9.59375C30.7388 9.59375 30.375 9.22997 30.375 8.78125V5.1875C30.375 3.22312 28.7768 1.625 26.8125 1.625H23.2188C22.77 1.625 22.4062 1.26122 22.4062 0.8125C22.4062 0.363781 22.77 3.27181e-09 23.2188 0H26.8125Z"
        fill="white" />
</svg>
