<svg width="40" height="40" viewBox="0 0 40 40" fill="none" xmlns="http://www.w3.org/2000/svg">
<rect x="0.5" y="0.5" width="39" height="39" rx="7.5" stroke="#EAEAEA"/>
<path d="M12.1294 15.0858C11.8515 14.8811 11.7921 14.4898 11.9968 14.2119L11.9984 14.2097L12.0022 14.2045L12.0163 14.1856C12.0284 14.1694 12.0459 14.1459 12.0683 14.1163C12.113 14.0571 12.1771 13.9731 12.2556 13.8725C12.4122 13.6719 12.6283 13.4024 12.8639 13.1311C13.0968 12.8629 13.361 12.5785 13.6124 12.3564C13.7374 12.2459 13.8741 12.1376 14.0136 12.0535C14.1359 11.9797 14.3407 11.8742 14.5834 11.8742C14.8261 11.8742 15.0309 11.9797 15.1532 12.0535C15.2927 12.1376 15.4293 12.2459 15.5544 12.3564C15.8058 12.5786 16.07 12.8629 16.3029 13.1311C16.5384 13.4025 16.7546 13.672 16.9111 13.8725C16.9896 13.9731 17.0537 14.0571 17.0984 14.1163C17.1208 14.146 17.17 14.2119 17.17 14.2119C17.3746 14.4898 17.3153 14.8811 17.0373 15.0858C16.7594 15.2905 16.3682 15.2311 16.1635 14.9532L16.1601 14.9486L16.1482 14.9326C16.1376 14.9184 16.1216 14.8971 16.101 14.8697C16.0596 14.815 15.9996 14.7362 15.9257 14.6415C15.7773 14.4515 15.5756 14.2001 15.359 13.9506C15.3088 13.8928 15.2584 13.8358 15.2083 13.7803L15.2083 22.0826C15.2083 24.8383 17.1725 26.8742 20 26.8742C20.3452 26.8742 20.625 27.1541 20.625 27.4992C20.625 27.8444 20.3452 28.1242 20 28.1242C16.4692 28.1242 13.9583 25.5157 13.9583 22.0826L13.9583 13.7804C13.9083 13.8359 13.8579 13.8929 13.8078 13.9506C13.5911 14.2001 13.3894 14.4515 13.2411 14.6415C13.1672 14.7362 13.1071 14.815 13.0658 14.8697C13.0451 14.8971 13.0292 14.9184 13.0185 14.9326L13.0067 14.9486L13.0033 14.9531C12.7986 15.231 12.4073 15.2904 12.1294 15.0858Z" fill="#273E72"/>
<path d="M27.8706 24.9127C28.1485 25.1174 28.2079 25.5086 28.0032 25.7866L28.0016 25.7888L27.9978 25.7939L27.9837 25.8128C27.9716 25.8291 27.9541 25.8525 27.9317 25.8821C27.887 25.9413 27.8229 26.0254 27.7444 26.126C27.5878 26.3265 27.3717 26.596 27.1361 26.8673C26.9032 27.1356 26.639 27.4199 26.3876 27.6421C26.2626 27.7526 26.1259 27.8609 25.9864 27.945C25.8641 28.0187 25.6593 28.1242 25.4166 28.1242C25.1739 28.1243 24.9691 28.0188 24.8468 27.945C24.7073 27.8609 24.5707 27.7526 24.4456 27.6421C24.1942 27.4199 23.93 27.1356 23.6971 26.8673C23.4616 26.596 23.2454 26.3265 23.0889 26.126C23.0104 26.0253 22.9463 25.9413 22.9016 25.8821C22.8792 25.8525 22.83 25.7865 22.83 25.7865C22.6254 25.5086 22.6847 25.1174 22.9627 24.9127C23.2406 24.708 23.6318 24.7673 23.8365 25.0452L23.8399 25.0499L23.8518 25.0658C23.8624 25.0801 23.8784 25.1014 23.899 25.1287C23.9404 25.1835 24.0004 25.2622 24.0743 25.3569C24.2227 25.547 24.4244 25.7983 24.641 26.0478C24.6912 26.1056 24.7416 26.1626 24.7917 26.2181V17.9159C24.7917 15.1601 22.8275 13.1242 20 13.1242C19.6548 13.1242 19.375 12.8444 19.375 12.4992C19.375 12.154 19.6548 11.8742 20 11.8742C23.5308 11.8742 26.0417 14.4828 26.0417 17.9159V26.218C26.0917 26.1625 26.1421 26.1056 26.1922 26.0478C26.4088 25.7983 26.6106 25.547 26.7589 25.3569C26.8328 25.2622 26.8929 25.1835 26.9342 25.1288C26.9549 25.1014 26.9708 25.0801 26.9815 25.0658L26.9933 25.0499L26.9967 25.0453C27.2014 24.7675 27.5927 24.708 27.8706 24.9127Z" fill="#273E72"/>
</svg>
