<svg width="48" height="44" viewBox="0 0 48 44" fill="none" xmlns="http://www.w3.org/2000/svg">
<rect x="0.5" y="0.5" width="47" height="43" rx="7.5" fill="white"/>
<rect x="0.5" y="0.5" width="47" height="43" rx="7.5" stroke="#EAEAEA"/>
<path fill-rule="evenodd" clip-rule="evenodd" d="M28.75 13.4782C28.75 13.264 28.75 13.0671 28.7387 12.9018C28.7266 12.7242 28.699 12.5288 28.6168 12.3303C28.4392 11.9015 28.0985 11.5608 27.6697 11.3832C27.4712 11.301 27.2759 11.2734 27.0982 11.2613C26.9329 11.25 26.7361 11.25 26.5218 11.25H26.4782C26.264 11.25 26.0671 11.25 25.9018 11.2613C25.7241 11.2734 25.5288 11.301 25.3303 11.3832C24.9015 11.5608 24.5608 11.9015 24.3832 12.3303C24.301 12.5288 24.2734 12.7242 24.2613 12.9018C24.2541 13.0064 24.2515 13.1237 24.2505 13.25H15C14.5858 13.25 14.25 13.5858 14.25 14C14.25 14.4142 14.5858 14.75 15 14.75H24.2505C24.2515 14.8763 24.2541 14.9936 24.2613 15.0982C24.2734 15.2759 24.301 15.4712 24.3832 15.6697C24.5608 16.0985 24.9015 16.4392 25.3303 16.6168C25.5288 16.699 25.7241 16.7266 25.9018 16.7387C26.0671 16.75 26.264 16.75 26.4782 16.75H26.5218C26.736 16.75 26.9329 16.75 27.0982 16.7387C27.2759 16.7266 27.4712 16.699 27.6697 16.6168C28.0985 16.4392 28.4392 16.0985 28.6168 15.6697C28.699 15.4712 28.7266 15.2759 28.7387 15.0982C28.75 14.9329 28.75 14.7361 28.75 14.5218V13.4782ZM25.75 14.0017V14.5C25.75 14.7432 25.7504 14.8881 25.7578 14.9961C25.7623 15.0629 25.7684 15.0913 25.7703 15.0987C25.7956 15.1575 25.8425 15.2044 25.9013 15.2297C25.9087 15.2316 25.9371 15.2377 26.0039 15.2422C26.1119 15.2496 26.2568 15.25 26.5 15.25C26.7432 15.25 26.8881 15.2496 26.9961 15.2422C27.0629 15.2377 27.0913 15.2316 27.0987 15.2297C27.1575 15.2044 27.2044 15.1575 27.2297 15.0987C27.2316 15.0913 27.2377 15.0629 27.2422 14.9961C27.2496 14.8881 27.25 14.7432 27.25 14.5V13.5C27.25 13.2568 27.2496 13.1119 27.2422 13.0039C27.2377 12.9371 27.2316 12.9087 27.2297 12.9013C27.2044 12.8425 27.1575 12.7956 27.0987 12.7703C27.0913 12.7684 27.0629 12.7623 26.9961 12.7578C26.8881 12.7504 26.7432 12.75 26.5 12.75C26.2568 12.75 26.1119 12.7504 26.0039 12.7578C25.9371 12.7623 25.9087 12.7684 25.9013 12.7703C25.8425 12.7956 25.7956 12.8425 25.7703 12.9013C25.7684 12.9087 25.7623 12.9371 25.7578 13.0039C25.7504 13.1119 25.75 13.2568 25.75 13.5V13.9983L25.75 14L25.75 14.0017Z" fill="#161616"/>
<path fill-rule="evenodd" clip-rule="evenodd" d="M22.2505 29.75H15C14.5858 29.75 14.25 29.4142 14.25 29C14.25 28.5858 14.5858 28.25 15 28.25H22.2505C22.2515 28.1237 22.2541 28.0064 22.2613 27.9018C22.2734 27.7241 22.301 27.5288 22.3832 27.3303C22.5608 26.9015 22.9015 26.5608 23.3303 26.3832C23.5288 26.301 23.7241 26.2734 23.9018 26.2613C24.0671 26.25 24.264 26.25 24.4782 26.25H24.5218C24.736 26.25 24.9329 26.25 25.0982 26.2613C25.2759 26.2734 25.4712 26.301 25.6697 26.3832C26.0985 26.5608 26.4392 26.9015 26.6168 27.3303C26.699 27.5288 26.7266 27.7241 26.7387 27.9018C26.75 28.0671 26.75 28.2639 26.75 28.4782V29.5218C26.75 29.736 26.75 29.9329 26.7387 30.0982C26.7266 30.2759 26.699 30.4712 26.6168 30.6697C26.4392 31.0985 26.0985 31.4392 25.6697 31.6168C25.4712 31.699 25.2759 31.7266 25.0982 31.7387C24.9329 31.75 24.736 31.75 24.5218 31.75H24.4782C24.264 31.75 24.0671 31.75 23.9018 31.7387C23.7241 31.7266 23.5288 31.699 23.3303 31.6168C22.9015 31.4392 22.5608 31.0985 22.3832 30.6697C22.301 30.4712 22.2734 30.2759 22.2613 30.0982C22.2541 29.9936 22.2515 29.8763 22.2505 29.75ZM23.75 29.5V29.0017L23.75 29L23.75 28.9983V28.5C23.75 28.2568 23.7504 28.1119 23.7578 28.0039C23.7623 27.9371 23.7684 27.9087 23.7703 27.9013C23.7956 27.8425 23.8425 27.7956 23.9013 27.7703C23.9087 27.7684 23.9371 27.7623 24.0039 27.7578C24.1119 27.7504 24.2568 27.75 24.5 27.75C24.7432 27.75 24.8881 27.7504 24.9961 27.7578C25.0629 27.7623 25.0913 27.7684 25.0987 27.7703C25.1575 27.7956 25.2044 27.8425 25.2297 27.9013C25.2316 27.9087 25.2377 27.9371 25.2422 28.0039C25.2496 28.1119 25.25 28.2568 25.25 28.5V29.5C25.25 29.7432 25.2496 29.8881 25.2422 29.9961C25.2377 30.0629 25.2316 30.0913 25.2297 30.0987C25.2044 30.1575 25.1575 30.2044 25.0987 30.2297C25.0913 30.2316 25.0629 30.2377 24.9961 30.2422C24.8881 30.2496 24.7432 30.25 24.5 30.25C24.2568 30.25 24.1119 30.2496 24.0039 30.2422C23.9371 30.2377 23.9087 30.2316 23.9013 30.2297C23.8425 30.2044 23.7956 30.1575 23.7703 30.0987C23.7684 30.0913 23.7623 30.0629 23.7578 29.9961C23.7504 29.8881 23.75 29.7432 23.75 29.5Z" fill="#161616"/>
<path d="M33 29.75C33.4142 29.75 33.75 29.4142 33.75 29C33.75 28.5858 33.4142 28.25 33 28.25H29C28.5858 28.25 28.25 28.5858 28.25 29C28.25 29.4142 28.5858 29.75 29 29.75H33Z" fill="#161616"/>
<path fill-rule="evenodd" clip-rule="evenodd" d="M33.75 21.5C33.75 21.9142 33.4142 22.25 33 22.25H23.7495C23.7485 22.3763 23.7459 22.4936 23.7387 22.5982C23.7266 22.7759 23.699 22.9712 23.6168 23.1697C23.4392 23.5985 23.0985 23.9392 22.6697 24.1168C22.4712 24.199 22.2759 24.2266 22.0982 24.2387C21.9329 24.25 21.736 24.25 21.5218 24.25H21.4782C21.264 24.25 21.0671 24.25 20.9018 24.2387C20.7241 24.2266 20.5288 24.199 20.3303 24.1168C19.9015 23.9392 19.5608 23.5985 19.3832 23.1697C19.301 22.9712 19.2734 22.7759 19.2613 22.5982C19.25 22.4329 19.25 22.236 19.25 22.0218V20.9782C19.25 20.764 19.25 20.5671 19.2613 20.4018C19.2734 20.2242 19.301 20.0288 19.3832 19.8303C19.5608 19.4015 19.9015 19.0608 20.3303 18.8832C20.5288 18.801 20.7241 18.7734 20.9018 18.7613C21.0671 18.75 21.264 18.75 21.4782 18.75H21.5218C21.736 18.75 21.9329 18.75 22.0982 18.7613C22.2759 18.7734 22.4712 18.801 22.6697 18.8832C23.0985 19.0608 23.4392 19.4015 23.6168 19.8303C23.699 20.0288 23.7266 20.2242 23.7387 20.4018C23.7459 20.5064 23.7485 20.6237 23.7495 20.75H33C33.4142 20.75 33.75 21.0858 33.75 21.5ZM22.0987 20.2703C22.1575 20.2956 22.2044 20.3425 22.2297 20.4013C22.2316 20.4087 22.2377 20.4371 22.2422 20.5039C22.2496 20.6119 22.25 20.7568 22.25 21V22C22.25 22.2432 22.2496 22.3881 22.2422 22.4961C22.2377 22.5629 22.2316 22.5913 22.2297 22.5987C22.2044 22.6575 22.1575 22.7044 22.0987 22.7297C22.0913 22.7316 22.0629 22.7377 21.9961 22.7422C21.8881 22.7496 21.7432 22.75 21.5 22.75C21.2568 22.75 21.1119 22.7496 21.0039 22.7422C20.9371 22.7377 20.9087 22.7316 20.9013 22.7297C20.8425 22.7044 20.7956 22.6575 20.7703 22.5987C20.7684 22.5913 20.7623 22.5629 20.7578 22.4961C20.7504 22.3881 20.75 22.2432 20.75 22V21C20.75 20.7568 20.7504 20.6119 20.7578 20.5039C20.7623 20.4371 20.7684 20.4087 20.7703 20.4013C20.7956 20.3425 20.8425 20.2956 20.9013 20.2703C20.9087 20.2684 20.9371 20.2623 21.0039 20.2578C21.1119 20.2504 21.2568 20.25 21.5 20.25C21.7432 20.25 21.8881 20.2504 21.9961 20.2578C22.0629 20.2623 22.0913 20.2684 22.0987 20.2703Z" fill="#161616"/>
<path d="M33 14.75C33.4142 14.75 33.75 14.4142 33.75 14C33.75 13.5858 33.4142 13.25 33 13.25H31C30.5858 13.25 30.25 13.5858 30.25 14C30.25 14.4142 30.5858 14.75 31 14.75H33Z" fill="#161616"/>
<path d="M17.75 21.5C17.75 21.9142 17.4142 22.25 17 22.25H15C14.5858 22.25 14.25 21.9142 14.25 21.5C14.25 21.0858 14.5858 20.75 15 20.75H17C17.4142 20.75 17.75 21.0858 17.75 21.5Z" fill="#161616"/>
</svg>
