<svg fill="none" height="32" viewBox="0 0 32 32" width="32" xmlns="http://www.w3.org/2000/svg">
    <path
        d="M23.747 5.95984C23.6403 5.95984 23.5336 5.93317 23.4403 5.87984C20.8803 4.55984 18.667 3.99984 16.0136 3.99984C13.3736 3.99984 10.867 4.6265 8.58697 5.87984C8.26697 6.05317 7.86697 5.93317 7.68031 5.61317C7.50697 5.29317 7.62697 4.87984 7.94697 4.7065C10.427 3.35984 13.147 2.6665 16.0136 2.6665C18.8536 2.6665 21.3336 3.29317 24.0536 4.69317C24.387 4.8665 24.507 5.2665 24.3336 5.5865C24.2136 5.8265 23.987 5.95984 23.747 5.95984ZM4.66697 12.9598C4.53364 12.9598 4.40031 12.9198 4.28031 12.8398C3.97364 12.6265 3.90697 12.2132 4.12031 11.9065C5.44031 10.0398 7.12031 8.57317 9.12031 7.5465C13.307 5.3865 18.667 5.37317 22.867 7.53317C24.867 8.55984 26.547 10.0132 27.867 11.8665C28.0803 12.1598 28.0136 12.5865 27.707 12.7998C27.4003 13.0132 26.987 12.9465 26.7736 12.6398C25.5736 10.9598 24.0536 9.63984 22.2536 8.71984C18.427 6.75984 13.5336 6.75984 9.72031 8.73317C7.90697 9.6665 6.38697 10.9998 5.18697 12.6798C5.08031 12.8665 4.88031 12.9598 4.66697 12.9598ZM13.0003 29.0532C12.827 29.0532 12.6536 28.9865 12.5336 28.8532C11.3736 27.6932 10.747 26.9465 9.85364 25.3332C8.93364 23.6932 8.45364 21.6932 8.45364 19.5465C8.45364 15.5865 11.8403 12.3598 16.0003 12.3598C20.1603 12.3598 23.547 15.5865 23.547 19.5465C23.547 19.9198 23.2536 20.2132 22.8803 20.2132C22.507 20.2132 22.2136 19.9198 22.2136 19.5465C22.2136 16.3198 19.427 13.6932 16.0003 13.6932C12.5736 13.6932 9.78697 16.3198 9.78697 19.5465C9.78697 21.4665 10.2136 23.2398 11.027 24.6798C11.8803 26.2132 12.467 26.8665 13.4936 27.9065C13.747 28.1732 13.747 28.5865 13.4936 28.8532C13.347 28.9865 13.1736 29.0532 13.0003 29.0532ZM22.5603 26.5865C20.9736 26.5865 19.5736 26.1865 18.427 25.3998C16.4403 24.0532 15.2536 21.8665 15.2536 19.5465C15.2536 19.1732 15.547 18.8798 15.9203 18.8798C16.2936 18.8798 16.587 19.1732 16.587 19.5465C16.587 21.4265 17.547 23.1998 19.1736 24.2932C20.1203 24.9332 21.227 25.2398 22.5603 25.2398C22.8803 25.2398 23.4136 25.1998 23.947 25.1065C24.307 25.0398 24.6536 25.2798 24.7203 25.6532C24.787 26.0132 24.547 26.3598 24.1736 26.4265C23.4136 26.5732 22.747 26.5865 22.5603 26.5865ZM19.8803 29.3332C19.827 29.3332 19.7603 29.3198 19.707 29.3065C17.587 28.7198 16.2003 27.9332 14.747 26.5065C12.8803 24.6532 11.8536 22.1865 11.8536 19.5465C11.8536 17.3865 13.6936 15.6265 15.9603 15.6265C18.227 15.6265 20.067 17.3865 20.067 19.5465C20.067 20.9732 21.307 22.1332 22.8403 22.1332C24.3736 22.1332 25.6136 20.9732 25.6136 19.5465C25.6136 14.5198 21.2803 10.4398 15.947 10.4398C12.1603 10.4398 8.69364 12.5465 7.13364 15.8132C6.61364 16.8932 6.34697 18.1598 6.34697 19.5465C6.34697 20.5865 6.44031 22.2265 7.24031 24.3598C7.37364 24.7065 7.20031 25.0932 6.85364 25.2132C6.50697 25.3465 6.12031 25.1598 6.00031 24.8265C5.34697 23.0798 5.02697 21.3465 5.02697 19.5465C5.02697 17.9465 5.33364 16.4932 5.93364 15.2265C7.70697 11.5065 11.6403 9.09317 15.947 9.09317C22.0136 9.09317 26.947 13.7732 26.947 19.5332C26.947 21.6932 25.107 23.4532 22.8403 23.4532C20.5736 23.4532 18.7336 21.6932 18.7336 19.5332C18.7336 18.1065 17.4936 16.9465 15.9603 16.9465C14.427 16.9465 13.187 18.1065 13.187 19.5332C13.187 21.8132 14.067 23.9465 15.6803 25.5465C16.947 26.7998 18.1603 27.4932 20.0403 28.0132C20.4003 28.1065 20.6003 28.4798 20.507 28.8265C20.4403 29.1332 20.1603 29.3332 19.8803 29.3332Z"
        fill="white" />
</svg>
