<svg width="12" height="12" viewBox="0 0 12 12" fill="none" xmlns="http://www.w3.org/2000/svg">
<path d="M4.90625 3.59375C4.90625 3.42069 4.95757 3.25152 5.05372 3.10763C5.14986 2.96373 5.28652 2.85158 5.4464 2.78536C5.60629 2.71913 5.78222 2.7018 5.95196 2.73556C6.12169 2.76932 6.2776 2.85266 6.39997 2.97503C6.52234 3.0974 6.60568 3.25331 6.63944 3.42305C6.6732 3.59278 6.65587 3.76871 6.58965 3.9286C6.52342 4.08848 6.41127 4.22514 6.26738 4.32129C6.12348 4.41743 5.95431 4.46875 5.78125 4.46875C5.54919 4.46875 5.32663 4.37656 5.16253 4.21247C4.99844 4.04837 4.90625 3.82581 4.90625 3.59375ZM11.9063 6C11.9063 7.16815 11.5599 8.31006 10.9109 9.28134C10.2619 10.2526 9.33945 11.0096 8.26023 11.4567C7.181 11.9037 5.99345 12.0207 4.84775 11.7928C3.70205 11.5649 2.64966 11.0024 1.82365 10.1763C0.997649 9.35035 0.435134 8.29795 0.20724 7.15225C-0.0206544 6.00655 0.0963091 4.819 0.543339 3.73978C0.990369 2.66055 1.74739 1.73812 2.71867 1.08913C3.68994 0.440146 4.83186 0.09375 6 0.09375C7.5659 0.095487 9.06717 0.718309 10.1744 1.82557C11.2817 2.93283 11.9045 4.4341 11.9063 6ZM10.5938 6C10.5938 5.09144 10.3243 4.20329 9.81956 3.44785C9.3148 2.69241 8.59735 2.10362 7.75795 1.75593C6.91856 1.40824 5.99491 1.31727 5.10381 1.49452C4.21271 1.67177 3.39418 2.10928 2.75173 2.75173C2.10928 3.39418 1.67177 4.2127 1.49452 5.1038C1.31727 5.9949 1.40824 6.91855 1.75593 7.75795C2.10362 8.59735 2.69241 9.3148 3.44785 9.81956C4.20329 10.3243 5.09144 10.5937 6 10.5937C7.21794 10.5924 8.38562 10.108 9.24683 9.24683C10.108 8.38562 10.5924 7.21794 10.5938 6ZM6.65625 8.00594V6.21875C6.65625 5.92867 6.54102 5.65047 6.3359 5.44535C6.13078 5.24023 5.85258 5.125 5.5625 5.125C5.40752 5.12477 5.25746 5.17939 5.1389 5.2792C5.02034 5.37901 4.94092 5.51756 4.91472 5.6703C4.88852 5.82305 4.91722 5.98015 4.99575 6.11376C5.07428 6.24737 5.19755 6.34888 5.34375 6.40031V8.1875C5.34375 8.47758 5.45899 8.75578 5.6641 8.9609C5.86922 9.16602 6.14742 9.28125 6.4375 9.28125C6.59248 9.28148 6.74254 9.22685 6.8611 9.12705C6.97967 9.02724 7.05908 8.88869 7.08528 8.73594C7.11148 8.58319 7.08278 8.4261 7.00425 8.29249C6.92573 8.15888 6.80245 8.05737 6.65625 8.00594Z" fill="#21B4CC"/>
</svg>
