<svg width="20" height="21" viewBox="0 0 20 21" fill="none" xmlns="http://www.w3.org/2000/svg">
<path fill-rule="evenodd" clip-rule="evenodd" d="M1.04175 10.1972C1.04175 5.24967 5.05253 1.23889 10.0001 1.23889C14.9476 1.23889 18.9584 5.24967 18.9584 10.1972C18.9584 15.1448 14.9476 19.1556 10.0001 19.1556C5.05253 19.1556 1.04175 15.1448 1.04175 10.1972ZM10.0001 7.28056C9.53984 7.28056 9.16675 7.65365 9.16675 8.11389C9.16675 8.57413 8.79365 8.94723 8.33342 8.94723C7.87318 8.94723 7.50008 8.57413 7.50008 8.11389C7.50008 6.73318 8.61937 5.61389 10.0001 5.61389C11.3808 5.61389 12.5001 6.73318 12.5001 8.11389C12.5001 8.61034 12.3545 9.07533 12.1035 9.46549C11.9528 9.69958 11.7782 9.9209 11.6226 10.1142L11.5375 10.2197C11.4088 10.3791 11.2944 10.5206 11.1884 10.6663C10.925 11.0283 10.8334 11.2614 10.8334 11.4472C10.8334 11.9075 10.4603 12.2806 10.0001 12.2806C9.53984 12.2806 9.16675 11.9075 9.16675 11.4472C9.16675 10.7126 9.52739 10.1164 9.84076 9.6857C9.97396 9.50262 10.1202 9.32175 10.2495 9.16186L10.3241 9.06936C10.4783 8.87778 10.6035 8.71655 10.7019 8.56362C10.7851 8.43434 10.8334 8.28103 10.8334 8.11389C10.8334 7.65365 10.4603 7.28056 10.0001 7.28056ZM9.99636 13.1139C9.53818 13.1139 9.16675 13.487 9.16675 13.9472C9.16675 14.4075 9.53818 14.7806 9.99636 14.7806H10.0038C10.462 14.7806 10.8334 14.4075 10.8334 13.9472C10.8334 13.487 10.462 13.1139 10.0038 13.1139H9.99636Z" fill="#273E72"/>
</svg>
