<svg width="22" height="22" viewBox="0 0 22 22" fill="none" xmlns="http://www.w3.org/2000/svg">
<path fill-rule="evenodd" clip-rule="evenodd" d="M8.52381 0.995945C9.35968 0.526884 10.1339 0.25 11 0.25C11.8661 0.25 12.6403 0.526884 13.4762 0.995945C14.2861 1.45043 15.2141 2.12145 16.3811 2.96522L17.8902 4.05633C18.8267 4.73347 19.5747 5.2743 20.1389 5.77487C20.7215 6.29173 21.1573 6.807 21.4337 7.45513C21.7108 8.10469 21.7778 8.77045 21.7406 9.53808C21.7047 10.2789 21.5674 11.1726 21.3961 12.2871L21.0808 14.3387C20.8374 15.9225 20.6437 17.1837 20.359 18.1662C20.0646 19.1821 19.6499 19.9887 18.9086 20.6052C18.1704 21.2192 17.2911 21.4926 16.2169 21.6231C15.172 21.75 13.8539 21.75 12.1889 21.75H9.8111C8.14615 21.75 6.828 21.75 5.78306 21.6231C4.7089 21.4926 3.82957 21.2192 3.0914 20.6052C2.35016 19.9887 1.93544 19.1821 1.64105 18.1662C1.35635 17.1836 1.16256 15.9225 0.919183 14.3387L0.603927 12.2872C0.432639 11.1727 0.295279 10.2789 0.259413 9.53808C0.222248 8.77045 0.289254 8.10469 0.566298 7.45513C0.842739 6.807 1.27855 6.29173 1.86109 5.77487C2.42528 5.27429 3.1733 4.73346 4.10984 4.05632L5.61887 2.96524C6.78586 2.12145 7.7139 1.45043 8.52381 0.995945ZM12 14C12 13.4477 11.5523 13 11 13C10.4477 13 10 13.4477 10 14V17C10 17.5523 10.4477 18 11 18C11.5523 18 12 17.5523 12 17V14Z" fill="#273E72"/>
</svg>
