<svg width="32" height="32" viewBox="0 0 32 32" fill="none" xmlns="http://www.w3.org/2000/svg">
<path d="M21.8248 3H10.1749C6.21867 3 3 6.21882 3 10.1751V21.8249C3 25.7813 6.21867 29 10.1749 29H21.8248C25.7813 29 29 25.7812 29 21.8249V10.1751C29.0002 6.21882 25.7813 3 21.8248 3ZM26.6933 21.8249C26.6933 24.5093 24.5093 26.6932 21.8249 26.6932H10.1749C7.49066 26.6933 5.30685 24.5093 5.30685 21.8249V10.1751C5.30685 7.49081 7.49066 5.30685 10.1749 5.30685H21.8248C24.5092 5.30685 26.6932 7.49081 26.6932 10.1751V21.8249H26.6933Z" fill="#9E0B0F"/>
<path d="M15.9993 9.30029C12.3052 9.30029 9.2998 12.3057 9.2998 15.9998C9.2998 19.6939 12.3052 22.6991 15.9993 22.6991C19.6935 22.6991 22.6989 19.6939 22.6989 15.9998C22.6989 12.3057 19.6935 9.30029 15.9993 9.30029ZM15.9993 20.3921C13.5773 20.3921 11.6067 18.4217 11.6067 15.9997C11.6067 13.5775 13.5772 11.607 15.9993 11.607C18.4215 11.607 20.392 13.5775 20.392 15.9997C20.392 18.4217 18.4214 20.3921 15.9993 20.3921Z" fill="#9E0B0F"/>
<path d="M22.9808 7.34351C22.5363 7.34351 22.0997 7.52344 21.7858 7.83871C21.4704 8.15244 21.2891 8.5892 21.2891 9.03519C21.2891 9.4798 21.4705 9.91641 21.7858 10.2317C22.0995 10.5454 22.5363 10.7269 22.9808 10.7269C23.4267 10.7269 23.862 10.5454 24.1772 10.2317C24.4925 9.91641 24.6724 9.47965 24.6724 9.03519C24.6724 8.5892 24.4925 8.15244 24.1772 7.83871C23.8635 7.52344 23.4267 7.34351 22.9808 7.34351Z" fill="#9E0B0F"/>
</svg>
