<svg width="20" height="22" viewBox="0 0 20 22" fill="none" xmlns="http://www.w3.org/2000/svg">
<path d="M1.78523 10.9122L5.38354 8.7388C5.98737 8.37467 6.2893 8.19259 6.49771 7.94287C7.39968 6.86213 6.60539 5.26589 6.73989 4.00912C6.87911 2.70822 8.12933 0.928949 9.38954 0.377331C9.7774 0.207556 10.2223 0.207556 10.6102 0.377331C11.8704 0.928949 13.1206 2.70822 13.2598 4.00912C13.3943 5.26589 12.6 6.86213 13.502 7.94287C13.7104 8.19259 14.0124 8.37467 14.6162 8.7388L18.2148 10.9121C19.3162 11.5772 19.75 12.2871 19.75 13.6224C19.75 14.3492 19.4259 14.5441 18.7723 14.3957L12.462 12.9631L12.1787 15.4235C12.0759 16.3157 12.0246 16.7617 12.1731 17.1703C12.521 18.1273 13.7023 18.911 14.4237 19.6071C14.8224 19.9918 15.2575 21.0979 14.8029 21.6009C14.5222 21.9115 14.0663 21.6594 13.7525 21.5383L10.7314 20.3723C10.3702 20.2329 10.1895 20.1632 9.99986 20.1632C9.8102 20.1632 9.62956 20.2329 9.26833 20.3723L6.24723 21.5383C5.93344 21.6594 5.47752 21.9115 5.19684 21.6009C4.7422 21.0979 5.17734 19.9918 5.57603 19.6071C6.29746 18.911 7.47869 18.1273 7.8266 17.1703C7.97515 16.7617 7.92378 16.3157 7.82105 15.4235L7.53771 12.9631L1.22781 14.3956C0.57394 14.544 0.249801 14.3491 0.25 13.622C0.250366 12.2869 0.684096 11.5773 1.78523 10.9122Z" fill="#273E72"/>
</svg>
