<svg width="20" height="22" viewBox="0 0 20 22" fill="none" xmlns="http://www.w3.org/2000/svg">
<path fill-rule="evenodd" clip-rule="evenodd" d="M10.2604 1.80465C10.0952 1.73178 9.90426 1.73178 9.73908 1.80465C9.32335 1.98803 8.84001 2.41694 8.4355 2.98256C8.03108 3.54804 7.78243 4.14251 7.73639 4.57606C7.71448 4.78232 7.72853 5.02668 7.76503 5.33121C7.77685 5.42985 7.79331 5.54966 7.81091 5.6777C7.83962 5.88664 7.87135 6.11749 7.89082 6.31397C7.95829 6.99498 7.96417 7.88649 7.34468 8.63453C7.06983 8.96641 6.6867 9.19873 6.21747 9.48325C6.18816 9.50102 6.15852 9.51899 6.12854 9.53721L2.80707 11.559C2.36022 11.831 2.12035 12.0692 1.97873 12.317C1.83906 12.5615 1.75178 12.891 1.75003 13.4242L7.55975 12.095C7.76777 12.0474 7.98622 12.0907 8.16038 12.214C8.33455 12.3373 8.44794 12.529 8.47217 12.741L8.73371 15.0298C8.73882 15.0744 8.74393 15.1186 8.749 15.1624C8.82969 15.8598 8.89741 16.4449 8.69919 16.9944C8.47576 17.6137 8.01165 18.1195 7.5996 18.5091C7.39414 18.7034 7.17973 18.8884 6.9869 19.0547L6.96657 19.0723C6.76231 19.2485 6.58675 19.4007 6.43911 19.5443C6.41833 19.5645 6.36699 19.6268 6.30788 19.7367C6.2515 19.8416 6.20265 19.9629 6.17163 20.0818C6.16563 20.1049 6.16054 20.1268 6.15627 20.1478C6.18928 20.134 6.22678 20.1185 6.26397 20.104L9.05263 19.0194C9.07449 19.0109 9.09659 19.0023 9.11891 18.9935C9.38285 18.8899 9.67855 18.7739 9.99975 18.7739C10.321 18.7739 10.6166 18.8899 10.8806 18.9935C10.9029 19.0023 10.925 19.0109 10.9469 19.0194L13.7355 20.104C13.7727 20.1185 13.8102 20.134 13.8432 20.1478C13.839 20.1268 13.8339 20.1049 13.8279 20.0818C13.7969 19.9629 13.748 19.8416 13.6916 19.7367C13.6325 19.6268 13.5812 19.5645 13.5604 19.5443C13.4128 19.4007 13.2372 19.2485 13.0329 19.0723L13.0128 19.0549C12.8199 18.8885 12.6054 18.7035 12.3999 18.5091C11.9878 18.1195 11.5237 17.6137 11.3003 16.9944C11.1021 16.4449 11.1698 15.8597 11.2505 15.1624C11.2556 15.1186 11.2607 15.0744 11.2658 15.0298L11.5273 12.741C11.5516 12.529 11.6649 12.3373 11.8391 12.214C12.0133 12.0907 12.2317 12.0474 12.4397 12.095L18.2497 13.4243C18.2481 12.8911 18.1609 12.5615 18.0212 12.317C17.8796 12.0691 17.6397 11.8309 17.1928 11.5589L13.8714 9.53749C13.8413 9.51918 13.8115 9.50111 13.782 9.48325C13.3128 9.19873 12.9297 8.96641 12.6548 8.63453C12.0353 7.88649 12.0412 6.99498 12.1087 6.31397C12.1281 6.1175 12.1599 5.88665 12.1886 5.67771C12.2062 5.54967 12.2226 5.42985 12.2345 5.33121C12.271 5.02668 12.285 4.78232 12.2631 4.57606C12.2171 4.14251 11.9684 3.54804 11.564 2.98256C11.1595 2.41694 10.6761 1.98803 10.2604 1.80465ZM9.13368 0.432245C9.68454 0.189252 10.315 0.189252 10.8658 0.432245C11.6133 0.761994 12.2886 1.41723 12.7841 2.10999C13.2796 2.80289 13.6723 3.64107 13.7547 4.41766C13.7949 4.79594 13.7639 5.1756 13.7238 5.5097C13.7042 5.67301 13.6848 5.8118 13.6664 5.94296C13.6422 6.11625 13.6198 6.27623 13.6014 6.46186C13.5414 7.06689 13.597 7.42049 13.8101 7.67779C13.9028 7.78968 14.0457 7.88816 14.6504 8.25563L17.9726 10.2775C18.5423 10.6242 19.0109 11.0255 19.3237 11.573C19.6371 12.1217 19.7498 12.7394 19.7498 13.4395C19.7498 13.8425 19.668 14.3722 19.2245 14.7046C18.7952 15.0263 18.278 14.9695 17.93 14.8899L12.9224 13.7442L12.7561 15.2001C12.6529 16.1034 12.6477 16.3091 12.7113 16.4853C12.809 16.7562 13.0507 17.06 13.4306 17.4193C13.6107 17.5897 13.8024 17.7551 14.0025 17.9276L14.0128 17.9366C14.2103 18.1069 14.4207 18.2887 14.6061 18.4689C14.912 18.7663 15.1603 19.2466 15.2794 19.7035C15.3897 20.1268 15.4643 20.835 14.9916 21.3621C14.6071 21.7909 14.1066 21.7801 13.8053 21.7167C13.5929 21.6719 13.3465 21.5674 13.2381 21.5213C13.217 21.5124 13.2012 21.5057 13.1918 21.502L10.4031 20.4174C10.2267 20.3488 10.1306 20.3119 10.0572 20.2893C10.025 20.2794 10.0075 20.2756 9.99975 20.2742C9.99202 20.2756 9.97451 20.2794 9.94232 20.2893C9.86885 20.3119 9.77277 20.3488 9.59636 20.4174L6.80769 21.502C6.79831 21.5057 6.78246 21.5124 6.7614 21.5213C6.653 21.5674 6.4066 21.6719 6.19416 21.7167C5.89293 21.7801 5.39242 21.7909 5.00788 21.3621C4.53519 20.835 4.60978 20.1268 4.72013 19.7035C4.83922 19.2466 5.08753 18.7663 5.39343 18.4689C5.57876 18.2887 5.78921 18.1069 5.98672 17.9366L5.99706 17.9276C6.19708 17.7551 6.38879 17.5897 6.56894 17.4193C6.94884 17.06 7.19048 16.7562 7.2882 16.4853C7.35178 16.3091 7.34664 16.1034 7.24341 15.2001L7.07705 13.7442L2.06985 14.8898C1.72178 14.9694 1.20441 15.0263 0.775024 14.7044C0.331454 14.3719 0.249891 13.842 0.25 13.4389C0.25019 12.739 0.362936 12.1214 0.67633 11.5729C0.989076 11.0255 1.4576 10.6243 2.02716 10.2777L5.34863 8.25591C5.9533 7.88844 6.09675 7.78968 6.1894 7.67779C6.40249 7.42049 6.45807 7.06689 6.39812 6.46186C6.37973 6.27623 6.35733 6.11625 6.33306 5.94296C6.31469 5.8118 6.29526 5.67301 6.27569 5.5097C6.23565 5.1756 6.2046 4.79594 6.24477 4.41766C6.32724 3.64106 6.71987 2.80289 7.21541 2.10999C7.71085 1.41722 8.38615 0.761994 9.13368 0.432245ZM10.0047 20.2736L10.0025 20.2738L10.0047 20.2736ZM9.99698 20.2738L9.99483 20.2736L9.99698 20.2738Z" fill="#797979"/>
</svg>
