<svg width="34" height="34" viewBox="0 0 34 34" fill="none" xmlns="http://www.w3.org/2000/svg">
<path opacity="0.06" d="M0 4C0 1.79086 1.79086 0 4 0H30C32.2091 0 34 1.79086 34 4V30C34 32.2091 32.2091 34 30 34H4C1.79086 34 0 32.2091 0 30V4Z" fill="#343434"/>
<path d="M17.0047 8.375C15.3025 8.375 13.6386 8.87975 12.2233 9.82541C10.808 10.7711 9.70494 12.1152 9.05355 13.6878C8.40217 15.2604 8.23173 16.9908 8.56381 18.6602C8.89588 20.3297 9.71555 21.8632 10.9192 23.0668C12.1228 24.2704 13.6562 25.0901 15.3257 25.4221C16.9951 25.7542 18.7256 25.5838 20.2982 24.9324C21.8707 24.281 23.2149 23.1779 24.1605 21.7626C25.1062 20.3473 25.6109 18.6834 25.6109 16.9812C25.6084 14.6995 24.7009 12.5119 23.0874 10.8985C21.474 9.28507 19.2864 8.37753 17.0047 8.375ZM23.6984 16.9812C23.6986 17.7131 23.5783 18.44 23.3422 19.1328L20.1125 17.1406C19.9234 17.0235 19.7115 16.9479 19.4909 16.9191L17.6725 16.6737C17.3914 16.6375 17.1057 16.6764 16.8446 16.7864C16.5834 16.8964 16.356 17.0736 16.1855 17.3H15.8612L15.6452 16.8537C15.5402 16.6352 15.3865 16.4437 15.1958 16.2939C15.0052 16.1442 14.7827 16.0402 14.5455 15.9899L14.332 15.9453L14.6507 15.3875H15.7974C16.0667 15.3874 16.3315 15.3192 16.5672 15.1891L17.5434 14.6504C17.6504 14.5906 17.7504 14.5189 17.8414 14.4368L19.9866 12.498C20.156 12.3449 20.2904 12.1571 20.3809 11.9474C20.4713 11.7378 20.5157 11.5111 20.5109 11.2828C21.4846 11.8815 22.2886 12.7195 22.8466 13.717C23.4046 14.7145 23.6978 15.8383 23.6984 16.9812ZM18.0215 10.3672L18.5156 11.2517L16.5863 12.9969L15.7153 13.475H14.4658C14.1852 13.4753 13.9095 13.5496 13.6667 13.6903C13.4238 13.8311 13.2223 14.0333 13.0825 14.2767L12.7247 14.9022L12.1979 13.4973L12.9876 11.631C13.7001 11.0955 14.5125 10.7078 15.3769 10.4908C16.2414 10.2737 17.1406 10.2317 18.0215 10.3672ZM10.3109 16.9812C10.3108 16.2558 10.4292 15.5352 10.6616 14.848L11.2783 16.4936C11.3714 16.744 11.5263 16.9669 11.7286 17.1415C11.9309 17.316 12.174 17.4366 12.4354 17.492L13.9917 17.8267L14.2308 18.3128C14.3355 18.5272 14.4868 18.7156 14.6736 18.8641C14.8604 19.0125 15.078 19.1174 15.3105 19.1711L14.9121 20.0572C14.7853 20.3419 14.7447 20.6575 14.7954 20.965C14.8462 21.2724 14.9859 21.5583 15.1974 21.7872L15.2141 21.8047L16.6612 23.2949L16.5903 23.6607C14.8909 23.5535 13.296 22.8035 12.1296 21.5628C10.9633 20.3222 10.313 18.684 10.3109 16.9812ZM18.5705 23.4885C18.6159 23.2436 18.6034 22.9914 18.5343 22.7521C18.4651 22.5128 18.3411 22.2929 18.1721 22.1099L18.1554 22.0924L16.7433 20.6381L17.6494 18.6045L19.1634 18.8085L22.4649 20.8389C21.5296 22.1637 20.1462 23.105 18.5705 23.4885Z" fill="#343434"/>
</svg>
