<svg width="51" height="50" viewBox="0 0 51 50" fill="none" xmlns="http://www.w3.org/2000/svg">
<path d="M35.8646 28.7138C35.0721 28.7138 34.4295 29.3573 34.4295 30.1512V35.7619C34.4295 36.8456 33.5493 37.7272 32.4673 37.7272H24.9419V15.2734C24.9419 13.4976 24.0613 11.9699 22.5257 11.0819L11.7911 4.8747H32.4673C33.5493 4.8747 34.4295 5.75625 34.4295 6.83992V13.2398C34.4295 14.0337 35.0721 14.6772 35.8646 14.6772C36.6572 14.6772 37.2998 14.0337 37.2998 13.2398V6.83992C37.2998 4.17121 35.1319 2 32.4673 2H9.83246C7.16786 2 5 4.17121 5 6.83992V37.2C5 38.9759 5.88063 40.5036 7.41623 41.3916L17.6932 47.3341C18.4611 47.778 19.2852 48.0001 20.1095 48C20.9336 47.9999 21.758 47.7779 22.5256 47.3341C24.0612 46.4462 24.9418 44.9185 24.9418 43.1427V40.6019H32.4672C35.1319 40.6019 37.2997 38.4307 37.2997 35.7619V30.1512C37.2998 29.3573 36.6573 28.7138 35.8646 28.7138ZM22.0716 43.1427C22.0716 43.8744 21.7233 44.4787 21.0906 44.8445C20.4579 45.2103 19.7611 45.2103 19.1285 44.8445L8.85136 38.902C8.21865 38.5362 7.87027 37.9317 7.87027 37.2V6.83992C7.87027 6.55065 7.93297 6.27576 8.04554 6.02827L21.0906 13.5715C21.7233 13.9373 22.0716 14.5418 22.0716 15.2734V43.1427ZM45.5796 22.3173L40.9161 26.988C40.6359 27.2686 40.2686 27.409 39.9014 27.409C39.5342 27.409 39.1669 27.2686 38.8867 26.988C38.3262 26.4267 38.3262 25.5166 38.8867 24.9553L41.1003 22.7383H27.915C27.1224 22.7383 26.4798 22.0948 26.4798 21.3009C26.4798 20.5071 27.1224 19.8636 27.915 19.8636H41.1002L38.8867 17.6466C38.3262 17.0853 38.3262 16.1752 38.8867 15.6139C39.4471 15.0525 40.3558 15.0525 40.9162 15.6139L45.5797 20.2845C46.1401 20.8459 46.1401 21.756 45.5796 22.3173Z" fill="#9E0B0F"/>
</svg>
