<svg width="57" height="56" viewBox="0 0 57 56" fill="none" xmlns="http://www.w3.org/2000/svg">
<rect x="0.5" width="56" height="56" rx="8" fill="#273E72"/>
<g clip-path="url(#clip0_42_2533)">
<path d="M33.7444 19.6491C36.4493 18.7156 39.1944 18.4164 41.9775 18.2794C41.9614 18.742 41.9502 19.2135 41.9448 19.6944C41.9395 20.1712 41.9389 20.639 41.9443 21.0978C40.116 21.1189 35.4474 21.318 32.0751 23.2324C31.4029 23.6138 29.861 24.5868 28.1869 25.8506C27.2326 26.5713 26.4656 27.2129 25.9262 27.6802C25.7056 27.3425 25.3337 26.8626 24.7498 26.4259C24.3066 26.0945 23.879 25.8907 23.5509 25.7642C24.6791 24.8218 25.8073 23.8793 26.9361 22.9369C23.3133 21.7563 22.154 18.2573 23.1693 15.588C24.191 12.9008 27.1946 11.4184 30.0017 12.2149C33.1396 13.1047 34.5221 15.8109 33.745 19.6497L33.7444 19.6491Z" fill="white"/>
<path d="M21.7645 43.9695C21.6617 41.4708 22.2082 39.1761 23.0233 36.8387C21.0575 37.6284 19.2169 37.5757 17.4737 36.4415C16.2289 35.6313 15.4196 34.4955 15.1231 33.0731C14.4713 29.946 16.4772 26.977 19.6156 26.4986C23.1303 25.9629 25.7485 28.3414 26.1141 31.3768C27.3333 30.23 28.5696 29.0668 29.7861 27.9226C30.164 30.1214 30.6617 30.8806 30.6617 30.8806C29.5207 31.7946 27.6951 33.5009 26.3137 36.1776C24.6209 39.4579 24.4801 42.4828 24.5144 43.9995C23.5976 43.9895 22.6813 43.9795 21.7645 43.9695Z" fill="white"/>
<path d="M30.2544 43.9394H27.5527C27.6951 39.0576 29.7567 35.2146 33.6996 32.3208C30.9384 30.4997 30.1126 28.3071 31.3088 26.0245C32.4279 23.8894 34.8754 22.9649 37.1008 23.8367C39.5001 24.7765 40.4581 27.0144 39.658 29.9313C40.4153 29.8812 41.1496 29.8333 41.9958 29.7774C41.9958 30.6904 42.014 31.5449 41.9722 32.3962C41.9669 32.4994 41.6425 32.659 41.4573 32.6722C36.6277 33.0152 33.22 35.3826 31.3345 39.7429C30.7822 41.0204 30.6221 42.4628 30.255 43.9389L30.2544 43.9394Z" fill="white"/>
<path d="M16.7517 37.5346C17.031 37.769 17.4977 38.1019 18.1523 38.3285C18.7014 38.5192 19.1879 38.5671 19.5262 38.5745C19.3174 39.283 19.1226 40.1206 18.9979 41.0689C18.8556 42.153 18.839 43.1245 18.8764 43.9389H15.9644C15.8894 41.7374 16.2213 39.6118 16.7522 37.5341L16.7517 37.5346Z" fill="white"/>
<path d="M39.3658 24.108C40.2317 24.1201 41.0982 24.1317 41.9642 24.1438C41.9653 24.5073 41.9658 24.8713 41.9653 25.2364C41.9653 25.8138 41.9631 26.3895 41.9599 26.9627H40.8686C40.7396 26.5234 40.5427 25.9902 40.2355 25.4155C39.9502 24.8818 39.6414 24.4472 39.3652 24.1085L39.3658 24.108Z" fill="white"/>
</g>
<defs>
<clipPath id="clip0_42_2533">
<rect width="27" height="32" fill="white" transform="translate(15 12)"/>
</clipPath>
</defs>
</svg>
