<svg width="18" height="18" viewBox="0 0 18 18" fill="none" xmlns="http://www.w3.org/2000/svg">
<path fill-rule="evenodd" clip-rule="evenodd" d="M10.7917 0.458374H7.20833C3.82993 0.458374 2.14073 0.458374 1.0912 1.51176C0.0416641 2.56515 0.0416641 4.26055 0.0416641 7.65136V8.10092C0.0416641 11.4917 0.0416641 13.1871 1.0912 14.2405C1.57532 14.7264 2.25613 15.0506 3.13637 15.2132C3.40673 15.2632 3.54191 15.2881 3.60062 15.3729C3.65933 15.4577 3.63522 15.5927 3.58699 15.8626C3.47025 16.5162 3.4887 17.1071 3.90781 17.4204C4.34704 17.7411 5.04694 17.3986 6.44675 16.7135C6.6018 16.6376 6.7574 16.5599 6.9133 16.4819L6.91568 16.4807C7.74673 16.0653 8.59367 15.642 9.49682 15.4333C9.88968 15.3435 10.2896 15.3051 10.7917 15.2939C14.1701 15.2939 15.8593 15.2939 16.9088 14.2405C17.9583 13.1871 17.9583 11.4917 17.9583 8.10092V7.65136C17.9583 4.26055 17.9583 2.56515 16.9088 1.51176C15.8593 0.458374 14.1701 0.458374 10.7917 0.458374ZM12.9583 10.25C12.9583 10.5952 12.6785 10.875 12.3333 10.875H5.66666C5.32149 10.875 5.04166 10.5952 5.04166 10.25C5.04166 9.90486 5.32149 9.62504 5.66666 9.62504H12.3333C12.6785 9.62504 12.9583 9.90486 12.9583 10.25ZM9.625 6.08337C9.625 6.42855 9.34518 6.70837 9 6.70837H5.66666C5.32149 6.70837 5.04166 6.42855 5.04166 6.08337C5.04166 5.7382 5.32149 5.45837 5.66666 5.45837H9C9.34518 5.45837 9.625 5.7382 9.625 6.08337Z" fill="#273E72"/>
</svg>
