<svg fill="none" height="54" viewBox="0 0 54 54" width="54" xmlns="http://www.w3.org/2000/svg">
    <path
        d="M22.5851 24.8012C22.9385 24.4376 23.3935 23.8591 23.826 23.3084L23.9266 23.1803C24.3606 22.6275 24.8249 22.0361 25.2989 21.4767L25.3125 21.4607V36C25.3125 36.932 26.068 37.6875 27 37.6875C27.932 37.6875 28.6875 36.932 28.6875 36V21.4607L28.7011 21.4767C29.1752 22.0362 29.6393 22.6274 30.0734 23.1803L30.174 23.3084C30.6065 23.8591 31.0615 24.4376 31.4149 24.8012C32.0645 25.4695 33.1329 25.4847 33.8012 24.8351C34.4695 24.1855 34.4847 23.1171 33.8351 22.4488C33.6355 22.2435 33.3078 21.8344 32.8282 21.2237L32.7223 21.0889C32.2947 20.5441 31.793 19.9049 31.276 19.2949C30.7221 18.6411 30.102 17.9621 29.4822 17.4342C29.1716 17.1697 28.8215 16.9087 28.4449 16.7072C28.0817 16.5128 27.5811 16.3125 27 16.3125C26.4189 16.3125 25.9183 16.5128 25.5551 16.7072C25.1785 16.9087 24.8284 17.1697 24.5178 17.4342C23.898 17.9621 23.2779 18.6411 22.724 19.2949C22.2071 19.9049 21.7054 20.5441 21.2777 21.0889L21.1718 21.2237C20.6922 21.8344 20.3645 22.2435 20.1649 22.4488C19.5153 23.1171 19.5305 24.1855 20.1988 24.8351C20.8671 25.4847 21.9355 25.4695 22.5851 24.8012Z"
        fill="#BFFD2B" />
    <path clip-rule="evenodd" d="M27 2.8125C13.6416 2.8125 2.8125 13.6416 2.8125 27C2.8125 40.3584 13.6416 51.1875 27 51.1875C40.3584 51.1875 51.1875 40.3584 51.1875 27C51.1875 13.6416 40.3584 2.8125 27 2.8125ZM6.1875 27C6.1875 15.5056 15.5056 6.1875 27 6.1875C38.4944 6.1875 47.8125 15.5056 47.8125 27C47.8125 38.4944 38.4944 47.8125 27 47.8125C15.5056 47.8125 6.1875 38.4944 6.1875 27Z"
        fill="#BFFD2B"
        fill-rule="evenodd" />
</svg>
