<svg width="20" height="21" viewBox="0 0 20 21" fill="none" xmlns="http://www.w3.org/2000/svg">
<path d="M10 5.86664V8.64164" stroke="#202020" stroke-miterlimit="10" stroke-linecap="round"/>
<path d="M10.0167 2.16669C6.95001 2.16669 4.46667 4.65002 4.46667 7.71669V9.46669C4.46667 10.0334 4.23334 10.8834 3.94167 11.3667L2.88334 13.1334C2.23334 14.225 2.68334 15.4417 3.88334 15.8417C7.86667 17.1667 12.175 17.1667 16.1583 15.8417C17.2833 15.4667 17.7667 14.15 17.1583 13.1334L16.1 11.3667C15.8083 10.8834 15.575 10.025 15.575 9.46669V7.71669C15.5667 4.66669 13.0667 2.16669 10.0167 2.16669Z" stroke="#202020" stroke-miterlimit="10" stroke-linecap="round"/>
<path d="M12.775 16.1833C12.775 17.7083 11.525 18.9583 10 18.9583C9.24167 18.9583 8.54167 18.6417 8.04167 18.1417C7.54167 17.6417 7.22501 16.9417 7.22501 16.1833" stroke="#202020" stroke-miterlimit="10"/>
</svg>
