<svg width="20" height="20" viewBox="0 0 20 20" fill="none" xmlns="http://www.w3.org/2000/svg">
<path fill-rule="evenodd" clip-rule="evenodd" d="M8.7738 1.14532C9.14472 0.902504 9.59748 0.833374 10 0.833374C10.4025 0.833374 10.8553 0.902504 11.2262 1.14532C11.6377 1.4147 11.875 1.85073 11.875 2.39587C11.875 2.85241 11.711 3.32754 11.4553 3.70991C14.1371 4.34095 16.1747 6.67835 16.3255 9.54304C16.3331 9.68682 16.3387 9.82449 16.3441 9.95713C16.3626 10.4084 16.3787 10.8013 16.4604 11.1778C16.5581 11.6276 16.7389 11.9813 17.1066 12.257C17.7477 12.7379 18.125 13.4925 18.125 14.2939C18.125 15.445 17.219 16.4584 16 16.4584H13.2748C12.9823 18.0006 11.6273 19.1667 10 19.1667C8.37267 19.1667 7.01771 18.0006 6.72516 16.4584H4C2.78099 16.4584 1.875 15.445 1.875 14.2939C1.875 13.4925 2.25232 12.7379 2.89344 12.257C3.26108 11.9813 3.44187 11.6276 3.53958 11.1778C3.62134 10.8013 3.63741 10.4084 3.65588 9.95712C3.6613 9.82451 3.66694 9.6868 3.6745 9.54304C3.82528 6.67835 5.86295 4.34095 8.54473 3.70991C8.28896 3.32754 8.125 2.85241 8.125 2.39587C8.125 1.85073 8.3623 1.4147 8.7738 1.14532ZM8.45448 16.4584C8.70173 17.0692 9.30055 17.5 10 17.5C10.6995 17.5 11.2983 17.0692 11.5455 16.4584H8.45448Z" fill="#273E72"/>
</svg>
