<svg width="34" height="34" viewBox="0 0 34 34" fill="none" xmlns="http://www.w3.org/2000/svg">
<path opacity="0.06" d="M0 4C0 1.79086 1.79086 0 4 0H30C32.2091 0 34 1.79086 34 4V30C34 32.2091 32.2091 34 30 34H4C1.79086 34 0 32.2091 0 30V4Z" fill="#343434"/>
<path d="M24.7561 20.0038C24.0644 18.8141 23.6971 17.1064 23.6971 15.0687C23.6971 13.2935 22.9918 11.5909 21.7365 10.3356C20.4812 9.08023 18.7786 8.375 17.0033 8.375C15.228 8.375 13.5254 9.08023 12.2701 10.3356C11.0148 11.5909 10.3096 13.2935 10.3096 15.0687C10.3096 17.1072 9.94379 18.8141 9.2521 20.0038C9.11096 20.2465 9.03615 20.522 9.03517 20.8027C9.03419 21.0834 9.10708 21.3595 9.24652 21.6031C9.38509 21.8469 9.5862 22.0493 9.82911 22.1894C10.072 22.3294 10.3479 22.4022 10.6283 22.4H13.5114C13.5905 23.2715 13.9926 24.0819 14.6387 24.6721C15.2848 25.2622 16.1282 25.5894 17.0033 25.5894C17.8784 25.5894 18.7218 25.2622 19.3679 24.6721C20.0141 24.0819 20.4161 23.2715 20.4952 22.4H23.3783C23.6583 22.4017 23.9337 22.3288 24.1761 22.1888C24.4186 22.0487 24.6193 21.8465 24.7577 21.6031C24.8977 21.3598 24.9713 21.084 24.971 20.8032C24.9708 20.5225 24.8966 20.2468 24.7561 20.0038ZM17.0033 23.675C16.6359 23.6751 16.2797 23.5482 15.9951 23.3159C15.7105 23.0835 15.5149 22.76 15.4414 22.4H18.5652C18.4917 22.76 18.2961 23.0835 18.0115 23.3159C17.7269 23.5482 17.3707 23.6751 17.0033 23.675ZM11.159 20.4875C11.8643 19.0531 12.2221 17.2315 12.2221 15.0687C12.2221 13.8007 12.7258 12.5846 13.6225 11.6879C14.5191 10.7912 15.7352 10.2875 17.0033 10.2875C18.2714 10.2875 19.4875 10.7912 20.3842 11.6879C21.2808 12.5846 21.7846 13.8007 21.7846 15.0687C21.7846 17.2307 22.1416 19.0531 22.8468 20.4875H11.159Z" fill="#343434"/>
</svg>
