<svg width="14" height="14" viewBox="0 0 14 14" fill="none" xmlns="http://www.w3.org/2000/svg">
<path d="M12.125 7.00027C12.1254 7.14882 12.0873 7.29493 12.0144 7.4244C11.9416 7.55386 11.8365 7.66228 11.7094 7.7391L3.83 12.5593C3.69716 12.6406 3.54501 12.685 3.38926 12.6879C3.23352 12.6908 3.07983 12.652 2.94406 12.5757C2.80959 12.5005 2.69757 12.3908 2.61953 12.258C2.54148 12.1252 2.50022 11.9739 2.5 11.8199V2.18066C2.50022 2.0266 2.54148 1.87538 2.61953 1.74255C2.69757 1.60971 2.80959 1.50007 2.94406 1.42488C3.07983 1.34851 3.23352 1.30977 3.38926 1.31265C3.54501 1.31553 3.69716 1.35994 3.83 1.44129L11.7094 6.26144C11.8365 6.33826 11.9416 6.44668 12.0144 6.57615C12.0873 6.70561 12.1254 6.85173 12.125 7.00027Z" fill="#343434"/>
</svg>
