<svg width="34" height="34" viewBox="0 0 34 34" fill="none" xmlns="http://www.w3.org/2000/svg">
<path opacity="0.06" d="M0 4C0 1.79086 1.79086 0 4 0H30C32.2091 0 34 1.79086 34 4V30C34 32.2091 32.2091 34 30 34H4C1.79086 34 0 32.2091 0 30V4Z" fill="#343434"/>
<path d="M23.25 9.8125H10.75C10.3356 9.8125 9.93817 9.97712 9.64515 10.2701C9.35212 10.5632 9.1875 10.9606 9.1875 11.375V15.75C9.1875 19.9914 11.2438 22.5641 12.9688 23.9758C14.8211 25.4906 16.675 26.007 16.7531 26.0297C16.9148 26.0734 17.0852 26.0734 17.2469 26.0297C17.325 26.0078 19.1789 25.4906 21.0312 23.9758C22.7563 22.5641 24.8125 19.9914 24.8125 15.75V11.375C24.8125 10.9606 24.6479 10.5632 24.3549 10.2701C24.0618 9.97712 23.6644 9.8125 23.25 9.8125ZM11.0625 11.6875H22.9375V15.75C22.9497 16.8582 22.7645 17.9598 22.3906 19.0031L17.5383 15.607C17.3807 15.4968 17.1931 15.4376 17.0008 15.4376C16.8085 15.4376 16.6208 15.4968 16.4633 15.607L11.6094 19.0031C11.2355 17.9598 11.0503 16.8582 11.0625 15.75V11.6875ZM19.8977 22.4805C19.033 23.1939 18.0531 23.7548 17 24.1391C15.9468 23.755 14.9669 23.1941 14.1023 22.4805C13.4752 21.9645 12.9251 21.3616 12.4688 20.6898L17 17.5195L21.5312 20.6898C21.0749 21.3616 20.5248 21.9645 19.8977 22.4805Z" fill="#343434"/>
</svg>
