<svg width="22" height="22" viewBox="0 0 22 22" fill="none" xmlns="http://www.w3.org/2000/svg">
<path d="M7.5 8.5C7.5 6.567 9.067 5 11 5C12.933 5 14.5 6.567 14.5 8.5C14.5 10.433 12.933 12 11 12C9.067 12 7.5 10.433 7.5 8.5Z" fill="#273E72"/>
<path fill-rule="evenodd" clip-rule="evenodd" d="M8.5622 21.4724C9.34545 21.654 10.1615 21.75 11 21.75C16.9371 21.75 21.75 16.9371 21.75 11C21.75 5.06294 16.9371 0.25 11 0.25C5.06294 0.25 0.25 5.06294 0.25 11C0.25 13.964 1.44959 16.6479 3.38976 18.5925C4.78703 19.9929 6.56824 21.0102 8.5622 21.4724ZM11 2.20455C6.1424 2.20455 2.20455 6.1424 2.20455 11C2.20455 13.2019 3.01368 15.2149 4.35084 16.7577L4.40873 16.6472C5.43247 14.8556 7.3377 13.75 9.40112 13.75H12.5979C14.6613 13.75 16.5666 14.8556 17.5903 16.6472L17.6485 16.7584C18.9861 15.2155 19.7955 13.2023 19.7955 11C19.7955 6.1424 15.8576 2.20455 11 2.20455Z" fill="#273E72"/>
</svg>
