<svg width="36" height="36" viewBox="0 0 36 36" fill="none" xmlns="http://www.w3.org/2000/svg">
<path d="M28 8.75V26.25C28 26.7141 27.818 27.1592 27.4941 27.4874C27.1702 27.8156 26.7308 28 26.2727 28H21.9545C21.4964 28 21.0571 27.8156 20.7332 27.4874C20.4093 27.1592 20.2273 26.7141 20.2273 26.25V8.75C20.2273 8.28587 20.4093 7.84075 20.7332 7.51256C21.0571 7.18437 21.4964 7 21.9545 7H26.2727C26.7308 7 27.1702 7.18437 27.4941 7.51256C27.818 7.84075 28 8.28587 28 8.75ZM15.0455 7H10.7273C10.2692 7 9.82983 7.18437 9.50591 7.51256C9.18198 7.84075 9 8.28587 9 8.75V26.25C9 26.7141 9.18198 27.1592 9.50591 27.4874C9.82983 27.8156 10.2692 28 10.7273 28H15.0455C15.5036 28 15.9429 27.8156 16.2668 27.4874C16.5907 27.1592 16.7727 26.7141 16.7727 26.25V8.75C16.7727 8.28587 16.5907 7.84075 16.2668 7.51256C15.9429 7.18437 15.5036 7 15.0455 7Z" fill="#9E0B0F"/>
</svg>
