<svg width="18" height="18" viewBox="0 0 18 18" fill="none" xmlns="http://www.w3.org/2000/svg">
<g clip-path="url(#clip0_277_187)">
<path d="M3.70208 15.0958C3.33701 14.9132 2.89312 15.0612 2.71063 15.4262L1.95991 16.9277C1.71239 17.4227 2.07741 17.9973 2.62033 17.9973C2.8914 17.9973 3.1524 17.8476 3.28187 17.5887L4.03258 16.0872C4.21511 15.7222 4.06714 15.2783 3.70208 15.0958Z" fill="#343434"/>
<path d="M8.95501 15.0958C8.58994 14.9132 8.14605 15.0612 7.96356 15.4262L7.21284 16.9277C6.96532 17.4227 7.33034 17.9973 7.87326 17.9973C8.14433 17.9973 8.40533 17.8476 8.5348 17.5887L9.28551 16.0872C9.46801 15.7222 9.32003 15.2783 8.95501 15.0958Z" fill="#343434"/>
<path d="M6.32708 15.0957C5.96202 14.9132 5.51813 15.0612 5.33559 15.4263L4.58488 16.9277C4.33749 17.4225 4.70217 17.9974 5.2453 17.9974C5.51637 17.9974 5.77737 17.8477 5.90684 17.5887L6.65755 16.0872C6.84008 15.7222 6.69211 15.2783 6.32708 15.0957Z" fill="#343434"/>
<path d="M14.2109 15.0957C13.8458 14.9132 13.4019 15.0612 13.2194 15.4263L12.4687 16.9277C12.2213 17.4225 12.586 17.9974 13.1291 17.9974C13.4002 17.9974 13.6612 17.8477 13.7906 17.5887L14.5413 16.0872C14.7239 15.7222 14.5759 15.2783 14.2109 15.0957Z" fill="#343434"/>
<path d="M11.5829 15.0958C11.2179 14.9132 10.774 15.0612 10.5915 15.4262L9.84077 16.9277C9.59325 17.4227 9.95827 17.9973 10.5012 17.9973C10.7723 17.9973 11.0333 17.8476 11.1627 17.5887L11.9134 16.0872C12.096 15.7222 11.948 15.2783 11.5829 15.0958Z" fill="#343434"/>
<path d="M16.946 3.60225L17.5236 3.02453C17.8121 2.7359 17.8121 2.26801 17.5235 1.97941C17.2349 1.69085 16.7669 1.69089 16.4784 1.97948L15.9008 2.5571C15.2103 2.03741 14.3877 1.68441 13.4933 1.55769L13.4932 0.742865C13.4932 0.334729 13.1623 0.00387106 12.7541 0.00390625C12.346 0.00394144 12.0152 0.334835 12.0152 0.742936L12.0153 1.55868C11.137 1.6847 10.3094 2.03227 9.60826 2.55755L9.02999 1.97938C8.74139 1.69082 8.27347 1.69082 7.98491 1.97945C7.69631 2.26808 7.69635 2.73597 7.98498 3.02453L8.56171 3.60119C8.51533 3.66277 8.47021 3.72548 8.42644 3.78935C7.25024 3.91871 6.151 4.44213 5.30785 5.27839C1.18686 4.91495 -1.42475 9.4984 0.833023 12.8457C0.84826 12.8685 0.864764 12.8904 0.88243 12.9114C1.59552 13.7585 2.63913 14.2443 3.74568 14.2443H14.6311C17.2965 14.2443 18.8958 11.2804 17.4623 9.05806C18.3121 7.3266 18.1582 5.21301 16.946 3.60225ZM14.0436 7.56213C13.5326 5.76792 12.0953 4.37034 10.277 3.91498C10.9544 3.32442 11.833 2.98339 12.7544 2.98339C15.3227 2.98339 17.1518 5.51751 16.3183 7.9647C15.6143 7.55724 14.8075 7.42784 14.0436 7.56213ZM14.6311 12.7663H3.74568C3.089 12.7663 2.4688 12.4833 2.03804 11.9887C0.474962 9.61632 2.39596 6.39378 5.30661 6.76486C6.9633 6.97811 8.26164 8.39762 8.26164 10.127C8.26164 10.5352 8.5925 10.866 9.00064 10.866C9.40877 10.866 9.73963 10.5352 9.73963 10.127C9.73963 8.22758 8.64595 6.57899 7.05539 5.77721C9.21846 4.47165 12.0876 5.62959 12.6681 8.14319C12.5219 8.24827 12.3819 8.36591 12.2506 8.49727C11.962 8.78587 11.962 9.25379 12.2506 9.54235C12.5392 9.83095 13.007 9.83095 13.2956 9.54235C14.4895 8.34845 16.5197 9.21125 16.5197 10.8776C16.5197 11.919 15.6725 12.7663 14.6311 12.7663Z" fill="#343434"/>
</g>
<defs>
<clipPath id="clip0_277_187">
<rect width="18" height="18" fill="white"/>
</clipPath>
</defs>
</svg>
