<svg width="16" height="12" viewBox="0 0 16 12" fill="none" xmlns="http://www.w3.org/2000/svg">
<rect width="16" height="12" fill="#006923"/>
<path fill-rule="evenodd" clip-rule="evenodd" d="M6.66985 3C6.65894 3 6.64258 3.00546 6.62166 3.01818C6.57257 3.05091 6.4762 3.15183 6.47256 3.2682C6.46983 3.33457 6.45711 3.33457 6.49984 3.3773C6.53075 3.42094 6.56348 3.4173 6.6253 3.38367C6.66167 3.35639 6.67349 3.34093 6.68621 3.29639C6.70076 3.22365 6.60712 3.33275 6.5953 3.24911C6.57439 3.17274 6.63439 3.14001 6.69076 3.06728C6.69258 3.03091 6.69258 3.00364 6.66985 3.00182V3ZM7.58174 3.00455C7.56355 3.00818 7.54264 3.03182 7.51264 3.08455C7.49173 3.14092 7.3999 3.22638 7.46718 3.40276C7.51991 3.51458 7.54264 3.69551 7.5181 3.89825C7.47991 3.95553 7.47264 3.97553 7.42263 4.0328C7.35354 4.10826 7.27717 4.08917 7.2208 4.06008C7.16625 4.02371 7.12443 4.00553 7.09988 3.89098C7.10443 3.70914 7.11534 3.4073 7.0817 3.34366C7.0326 3.24547 6.95078 3.28002 6.91623 3.31002C6.74986 3.46458 6.66712 3.72187 6.61621 3.92825C6.57075 4.07735 6.52075 4.03371 6.4862 3.97371C6.40165 3.8937 6.39528 3.27366 6.29346 3.37639C6.12981 3.8437 6.3871 4.35556 6.56621 4.30555C6.69349 4.3601 6.77531 4.11463 6.82804 3.84643C6.86441 3.77097 6.89169 3.76188 6.90987 3.80097C6.90532 4.15736 6.93714 4.23737 7.02806 4.34465C7.23171 4.50284 7.40081 4.36465 7.41445 4.35192L7.57355 4.19372C7.60992 4.15736 7.65538 4.15372 7.70538 4.18645C7.75448 4.23191 7.74811 4.30737 7.85085 4.35919C7.93994 4.39556 8.12632 4.36828 8.16905 4.29282C8.22815 4.19282 8.24179 4.15827 8.26906 4.12008C8.31088 4.06553 8.3827 4.09008 8.3827 4.10736C8.37634 4.13918 8.33452 4.171 8.3627 4.22555C8.41271 4.26191 8.42453 4.23827 8.45362 4.23009C8.55726 4.181 8.63545 3.95553 8.63545 3.95553C8.64 3.87188 8.59272 3.87825 8.56272 3.89552C8.52181 3.92007 8.51999 3.92825 8.48089 3.9528C8.42907 3.96007 8.33088 3.99371 8.2827 3.91825C8.23269 3.82733 8.23269 3.70187 8.19451 3.60914C8.19451 3.60368 8.12814 3.4664 8.18905 3.45822C8.21906 3.46367 8.28633 3.48094 8.29633 3.42549C8.32906 3.37094 8.22633 3.21638 8.15632 3.14001C8.09632 3.07364 8.01268 3.06546 7.93176 3.13274C7.87449 3.18547 7.88358 3.24365 7.87176 3.29911C7.85812 3.36275 7.86085 3.44185 7.92631 3.5264C7.98268 3.63732 8.08541 3.78097 8.05086 3.9828C8.05086 3.9828 7.99177 4.07917 7.88721 4.06644C7.84176 4.05735 7.77084 4.03917 7.73266 3.75733C7.70538 3.5455 7.73993 3.2482 7.65083 3.1091C7.62992 3.05728 7.61265 3.00636 7.58355 3.00909L7.58174 3.00455ZM7.29262 3.02818C7.26535 3.03091 7.23535 3.06273 7.2108 3.12365C7.18989 3.17092 7.16352 3.41458 7.16807 3.41458C7.14989 3.48731 7.24353 3.51822 7.28626 3.42549C7.3499 3.25275 7.3499 3.18001 7.35354 3.1091C7.34445 3.05455 7.3199 3.02637 7.29262 3.02818ZM8.35907 3.04637C8.33179 3.05 8.30906 3.06637 8.30088 3.10819C8.28906 3.20456 8.29543 3.2582 8.31179 3.33912C8.32361 3.39367 8.40271 3.48276 8.44089 3.53549C8.62545 3.78369 8.80455 4.0328 8.97548 4.2901C9.00275 4.48284 9.02093 4.67012 9.03457 4.85741C9.06366 5.26653 9.07094 5.77566 9.04639 6.20751C9.12276 6.21024 9.24641 6.08296 9.28914 5.8984C9.31641 5.6402 9.28004 5.11652 9.27641 4.96378L9.26732 4.7474C9.46733 5.0747 9.66007 5.42018 9.84918 5.79839C9.91918 5.76566 9.90373 5.37563 9.86372 5.32108C9.71099 4.99378 9.50006 4.67012 9.43369 4.54557C9.40914 4.50011 9.32641 4.37556 9.22913 4.231C9.21095 4.02371 9.19095 3.84915 9.17822 3.79642C9.1464 3.57822 9.26732 3.82097 9.25095 3.6946C9.21095 3.4764 9.09094 3.32912 8.94911 3.1291C8.90365 3.06546 8.90365 3.05091 8.83365 3.14547C8.79273 3.24093 8.79274 3.32093 8.80637 3.39548C8.78637 3.36821 8.76364 3.3373 8.73091 3.29729L8.49908 3.10092C8.46726 3.07819 8.40543 3.04364 8.35907 3.04637ZM11.5193 3.08001C11.5057 3.07819 11.492 3.08455 11.4738 3.1091C11.442 3.13637 11.4084 3.1882 11.4102 3.25456C11.4166 3.36821 11.4375 3.48549 11.4448 3.60004L11.4538 3.6455C11.4411 3.63096 11.4302 3.61823 11.4238 3.61277C11.1993 3.37639 11.5266 3.57277 11.3802 3.39185C11.2575 3.25547 11.2211 3.21365 11.1165 3.13183C11.062 3.0991 11.0311 3.03364 11.0138 3.14456C11.0065 3.24184 10.9993 3.35548 11.0047 3.43731C11.0047 3.48276 11.0529 3.56913 11.0938 3.61914C11.2429 3.8037 11.3957 3.99917 11.5484 4.20282C11.5811 4.6183 11.5893 4.99924 11.6211 5.41563C11.6175 5.59383 11.5629 5.83021 11.512 5.85203C11.512 5.85203 11.432 5.89749 11.3793 5.84748C11.3402 5.83203 11.1865 5.59019 11.1865 5.59019C11.1075 5.51746 11.0547 5.53837 10.9993 5.59019C10.8447 5.73929 10.7738 6.01932 10.6692 6.21206C10.642 6.25479 10.5665 6.29206 10.482 6.20842C10.2665 5.91385 10.391 5.49473 10.3656 5.60292C10.1747 5.8193 10.2583 6.17751 10.3019 6.25479C10.3656 6.38207 10.4165 6.46389 10.5383 6.52481C10.652 6.60663 10.7383 6.55663 10.7874 6.49753C10.9002 6.38116 10.902 6.08205 10.9547 6.02295C10.9911 5.91385 11.0847 5.93204 11.1302 5.98113C11.1756 6.04477 11.2266 6.08568 11.2911 6.12023C11.3966 6.21297 11.522 6.22933 11.6457 6.14478C11.7302 6.0975 11.7857 6.03568 11.8348 5.91385C11.8893 5.77202 11.8621 5.02651 11.8502 4.61194L12.0866 4.95378C12.1193 5.31744 12.1348 5.67656 12.123 6.02022C12.1157 6.08841 12.3621 5.81657 12.3594 5.68747C12.3594 5.57565 12.3612 5.47291 12.3594 5.37836C12.4803 5.56928 12.5957 5.76293 12.7048 5.96022C12.773 5.92385 12.7503 5.53928 12.7076 5.48746C12.593 5.29472 12.4457 5.08743 12.3321 4.9256C12.3094 4.72286 12.2794 4.48375 12.2648 4.4101C12.2439 4.29555 12.2221 4.12372 12.1894 3.98826C12.1803 3.93643 12.153 3.76733 12.1621 3.75187C12.1748 3.71278 12.2257 3.75187 12.2503 3.70823C12.2866 3.66732 12.1212 3.23547 12.0366 3.11365C12.0066 3.0591 11.9512 3.07728 11.8839 3.16819C11.8202 3.22638 11.8439 3.36094 11.8675 3.48913C11.9293 3.81642 11.9857 4.14736 12.0293 4.48011C11.9475 4.35737 11.8475 4.21009 11.7493 4.06917L11.7366 4.00553C11.7366 3.99826 11.7239 3.73733 11.712 3.6755C11.7093 3.65005 11.703 3.64278 11.7302 3.64641C11.7575 3.67005 11.7611 3.67096 11.7784 3.67914C11.8075 3.68278 11.833 3.6355 11.8148 3.59095L11.5511 3.10546C11.542 3.09364 11.5293 3.08273 11.5148 3.08092L11.5193 3.08001ZM3.36415 3.0891C3.31415 3.08728 3.26141 3.11637 3.28233 3.17547C3.2696 3.20729 3.37688 3.31457 3.39597 3.37366C3.41143 3.41639 3.37779 3.55095 3.41415 3.56459C3.44597 3.57822 3.49052 3.47004 3.50689 3.37094C3.51598 3.31639 3.50961 3.1291 3.38233 3.09092C3.37597 3.0891 3.3696 3.0891 3.36233 3.08819L3.36415 3.0891ZM12.6557 3.0891C12.6439 3.09092 12.6303 3.10728 12.6103 3.15274C12.5603 3.23456 12.543 3.38003 12.563 3.50731C12.6812 4.31646 12.7721 5.10016 12.7903 5.81657C12.7794 5.88567 12.7758 5.92204 12.7448 6.0075C12.6739 6.09841 12.5957 6.21115 12.5221 6.2657C12.4494 6.32025 12.293 6.37298 12.2421 6.41298C12.0784 6.50571 12.0784 6.613 12.2094 6.61754C12.4348 6.59027 12.7021 6.57208 12.8858 6.29479C12.9349 6.21751 12.993 6.00659 12.9949 5.87658C13.013 5.12198 12.9858 4.38101 12.8721 3.83461C12.8649 3.78006 12.8412 3.65914 12.8503 3.64368C12.8639 3.6055 12.9376 3.64641 12.964 3.60368C13.003 3.56368 12.773 3.27002 12.693 3.14456C12.6767 3.11364 12.6657 3.08728 12.653 3.09001L12.6557 3.0891ZM10.2892 3.10183C10.2801 3.10364 10.2674 3.11819 10.2419 3.15183C10.1783 3.3573 10.1565 3.52458 10.181 3.65369C10.3447 4.4992 10.5083 5.26744 10.4829 6.07205C10.5592 6.07205 10.6483 5.89658 10.6865 5.72202C10.7074 5.48109 10.672 5.33472 10.6665 5.19471C10.6601 5.05288 10.5065 3.90734 10.4756 3.80097C10.4374 3.59914 10.6247 3.77369 10.6047 3.65732C10.5392 3.50822 10.3774 3.29366 10.3283 3.16365C10.3101 3.1291 10.3065 3.09728 10.2919 3.10001L10.2892 3.10183ZM4.5306 3.11819C4.51242 3.12183 4.49151 3.13819 4.48514 3.16365C4.4806 3.18183 4.49242 3.21183 4.47605 3.22093C4.46696 3.23002 4.43241 3.22365 4.43423 3.17547C4.43423 3.1591 4.42241 3.14274 4.41605 3.13274C4.40877 3.1291 4.40423 3.12819 4.3915 3.12819C4.37604 3.12819 4.37604 3.13274 4.36786 3.14637C4.36422 3.1591 4.35877 3.17183 4.35877 3.18638C4.35695 3.20456 4.34968 3.20911 4.33786 3.21183C4.32331 3.21183 4.32604 3.21365 4.31513 3.20547C4.30604 3.19911 4.29876 3.19638 4.29876 3.18365C4.29876 3.17001 4.29513 3.14728 4.29149 3.14001C4.28513 3.13092 4.27513 3.12728 4.26422 3.12456C4.20421 3.12456 4.20058 3.19547 4.2033 3.22093C4.19876 3.22638 4.19694 3.34821 4.27876 3.38276C4.38786 3.43549 4.59515 3.41276 4.58788 3.23547C4.58788 3.22002 4.58333 3.16729 4.58151 3.15365C4.5706 3.12637 4.54969 3.11728 4.52969 3.12001L4.5306 3.11819ZM6.00889 3.12001C5.97071 3.12183 5.93616 3.13274 5.90888 3.14728C5.83615 3.21729 5.81797 3.32912 5.87615 3.39912C5.9307 3.4264 5.98798 3.48094 5.95071 3.51277C5.79251 3.68096 5.38066 3.96371 5.35975 4.01553V4.02098H5.36339V4.0228C5.3843 4.03644 5.6425 4.03644 5.67068 4.0228H5.6725C5.7616 3.98916 6.18163 3.50913 6.18163 3.50913C6.15981 3.49095 6.13981 3.4764 6.11799 3.45731C6.09435 3.43731 6.09708 3.4173 6.11799 3.3973C6.22163 3.3373 6.18891 3.20365 6.13436 3.14274C6.0889 3.12274 6.04708 3.11546 6.00889 3.11819V3.12001ZM9.87282 3.12001C9.86191 3.12274 9.84827 3.13819 9.82736 3.18365C9.77735 3.26547 9.74371 3.40639 9.74826 3.53822C9.85554 4.28373 9.88827 4.9356 9.95919 5.68111C9.96464 5.75384 9.95373 5.85749 9.90645 5.89931C9.72826 6.08477 9.47279 6.31206 9.19458 6.41753C9.16458 6.45117 9.26913 6.5939 9.40369 6.5939C9.62916 6.56663 9.82736 6.44116 10.0128 6.1075C10.061 6.03023 10.1474 5.86385 10.1492 5.73475C10.1674 4.97833 10.1128 4.38919 9.99828 3.8437C9.99191 3.78915 9.99646 3.72551 10.0056 3.71096C10.0201 3.69278 10.0692 3.71096 10.0965 3.66823C10.1347 3.62823 9.99282 3.30184 9.91282 3.17729C9.89645 3.14547 9.88736 3.1191 9.87282 3.12001ZM3.88692 3.14456C3.856 3.14819 3.82691 3.17183 3.81236 3.2082C3.80782 3.32639 3.80691 3.44458 3.82146 3.5555C3.87601 3.74915 3.89146 3.91916 3.91783 4.11645C3.92692 4.38192 3.76509 4.231 3.77236 4.10008C3.80873 3.92916 3.79964 3.66096 3.76691 3.59277C3.73963 3.52458 3.71054 3.50822 3.6469 3.52004C3.59689 3.5164 3.46688 3.65641 3.43052 3.89279C3.43052 3.89279 3.39961 4.0128 3.38688 4.12008C3.3687 4.241 3.28869 4.32737 3.23232 4.10372C3.18414 3.94007 3.15504 3.54004 3.07413 3.63277C3.05049 3.94553 3.02322 4.49647 3.28869 4.55284C3.61053 4.58375 3.43234 4.00917 3.54871 3.90461C3.57144 3.85461 3.61235 3.8537 3.61508 3.91825V4.40647C3.61144 4.56466 3.71509 4.61194 3.79691 4.64467C3.88146 4.6383 3.93692 4.64103 3.96965 4.72286L4.01056 5.56837C4.01056 5.56837 4.20512 5.62292 4.21421 5.09288C4.2233 4.78104 4.15057 4.52011 4.1933 4.4592C4.19512 4.3992 4.27149 4.39556 4.32422 4.42556C4.40877 4.48466 4.44605 4.55739 4.57697 4.5283C4.77698 4.47375 4.89517 4.37738 4.8979 4.22464C4.88881 4.07917 4.87063 3.93371 4.80698 3.78824C4.81608 3.76278 4.77062 3.6946 4.77971 3.66823C4.81426 3.72278 4.86881 3.71914 4.87972 3.66823C4.84699 3.5564 4.79426 3.45003 4.7088 3.40458C4.63879 3.34093 4.53606 3.35457 4.49787 3.48367C4.47969 3.63277 4.55242 3.80915 4.66152 3.95371C4.68334 4.01008 4.71607 4.10372 4.70152 4.18827C4.64424 4.221 4.58697 4.20645 4.53787 4.15645C4.53787 4.15645 4.38059 4.03826 4.38059 4.01098C4.42332 3.74278 4.38968 3.71096 4.36695 3.63823C4.35059 3.53459 4.30149 3.50186 4.2624 3.43094C4.2224 3.38821 4.16876 3.38821 4.14421 3.43094C4.07329 3.55186 4.10602 3.81279 4.15694 3.92825C4.1933 4.03553 4.24967 4.10281 4.2233 4.10281C4.20148 4.1619 4.15603 4.14827 4.1233 4.07826C4.07784 3.9328 4.06693 3.71824 4.06693 3.62096C4.05329 3.50095 4.03784 3.24365 3.95783 3.1782C3.93692 3.1491 3.91237 3.1391 3.88783 3.14183L3.88692 3.14456ZM5.01609 3.14456C5.00063 3.14819 4.98245 3.15728 4.96154 3.16274C4.89335 3.18365 4.82971 3.24275 4.84971 3.3573C4.93154 3.84824 4.98336 4.22373 5.06428 4.71467C5.0761 4.77286 5.02791 4.84832 4.96609 4.84196C4.86062 4.76922 4.83426 4.62376 4.65425 4.63103C4.52333 4.63103 4.37422 4.77468 4.35604 4.91105C4.33422 5.02015 4.32695 5.13834 4.35604 5.23289C4.44696 5.34199 4.55787 5.33108 4.65425 5.30563C4.73334 5.27381 4.79971 5.19653 4.82699 5.21471C4.84517 5.24471 4.82517 5.50019 4.45423 5.69656C4.22512 5.80021 4.04329 5.82385 3.9451 5.63838C3.8851 5.52201 3.95056 5.07834 3.80145 5.18016C3.3596 6.31843 4.83517 6.47662 4.99973 5.22744C5.01064 5.19107 5.04246 5.15652 5.06609 5.16562C5.07519 5.17016 5.08428 5.1838 5.08791 5.20926C5.05337 6.34025 3.94601 6.41844 3.75872 6.06205C3.71145 5.9784 3.69781 5.79112 3.69326 5.6802C3.68417 5.61201 3.66781 5.57292 3.64781 5.55746C3.60235 5.52382 3.54234 5.61201 3.52962 5.76384C3.51143 5.88658 3.51598 5.92022 3.51598 6.03841C3.57598 6.93211 5.00064 6.54754 5.23247 5.81112C5.34702 5.42927 5.22974 5.14107 5.26884 5.10561L5.27156 5.10379H5.27429L5.27884 5.10197C5.42067 5.25471 5.61886 5.12016 5.6625 5.06834C5.68069 5.04106 5.72796 5.02288 5.76069 5.05924C5.86979 5.13743 6.06435 5.10016 6.10435 4.95924C6.12799 4.82286 6.14799 4.68285 6.15254 4.53648C6.07981 4.55921 6.02162 4.57557 5.99798 4.60012C5.99253 4.60648 5.98889 4.61376 5.98707 4.62103L5.96889 4.74195C5.96889 4.74649 5.96707 4.74922 5.96525 4.75104C5.96252 4.7574 5.95616 4.76195 5.95252 4.76468C5.92707 4.77831 5.88252 4.77104 5.87979 4.73377C5.84615 4.57921 5.70523 4.55921 5.61977 4.80013C5.56249 4.84559 5.45612 4.85468 5.44703 4.78559C5.46067 4.62376 5.39521 4.60194 5.2652 4.67831L5.13974 3.73278C5.19429 3.73005 5.24338 3.76915 5.29429 3.70733C5.23974 3.54004 5.1261 3.20002 5.06155 3.16729H5.05973L5.05064 3.15819C5.05064 3.15638 5.04791 3.15547 5.04609 3.15456L5.04246 3.1491C5.03882 3.1491 5.03518 3.14728 5.03336 3.14637C5.027 3.14456 5.02245 3.14456 5.01609 3.14456ZM9.41824 3.14819C9.36187 3.14637 9.30005 3.18183 9.32368 3.25275C9.30914 3.29184 9.4446 3.42276 9.46642 3.49367C9.50552 3.60277 9.43642 3.70914 9.47733 3.7246C9.51552 3.74096 9.56825 3.61095 9.58643 3.49004C9.61007 3.39185 9.54097 3.19183 9.44096 3.15092L9.41824 3.1491V3.14819ZM5.98798 3.26729C6.01344 3.26547 6.04435 3.28911 6.06071 3.32184C6.07617 3.35821 6.06799 3.39185 6.04253 3.39821C6.01526 3.40458 5.98071 3.38185 5.96434 3.34548C5.94798 3.30911 5.95525 3.27548 5.98253 3.26911H5.98798V3.26729ZM12.3494 3.43276C12.2975 3.43094 12.2403 3.46913 12.2639 3.5464C12.2512 3.58823 12.373 3.73005 12.3939 3.80824C12.4121 3.86279 12.3666 4.04099 12.403 4.05735C12.4376 4.07553 12.4848 3.93371 12.503 3.80279C12.5139 3.73005 12.4612 3.48004 12.3712 3.43549C12.3648 3.43367 12.3575 3.43185 12.3503 3.43185L12.3494 3.43276ZM8.83092 3.52004C8.83728 3.54095 8.84183 3.56186 8.84456 3.58368C8.85547 3.62914 8.86456 3.6746 8.87365 3.72187C8.83365 3.6655 8.80092 3.62005 8.78546 3.60368C8.69455 3.49458 8.78728 3.53277 8.83092 3.52004ZM9.6428 3.91825C9.6228 3.92189 9.6037 3.93916 9.59734 3.96644C9.59189 3.9828 9.60461 4.01189 9.58825 4.02098C9.57916 4.03008 9.54279 4.02462 9.54552 3.97553C9.54552 3.95916 9.5337 3.94189 9.52734 3.9328C9.52006 3.92825 9.51552 3.92643 9.50279 3.92643C9.48733 3.92643 9.48733 3.93098 9.47915 3.94462C9.47551 3.95734 9.47006 3.97007 9.47006 3.98553C9.47006 4.00371 9.46278 4.00917 9.45006 4.0128C9.43551 4.0128 9.43824 4.0128 9.42642 4.00644C9.41915 3.99735 9.41096 3.99553 9.41096 3.9828C9.41096 3.96916 9.40824 3.94825 9.40369 3.93916C9.39733 3.93007 9.38823 3.92734 9.37641 3.92371C9.31732 3.92371 9.31277 3.9928 9.31641 4.01826C9.31277 4.02371 9.31005 4.14736 9.39187 4.18191C9.50279 4.23373 9.71008 4.20918 9.70098 4.0328C9.70098 4.01735 9.69644 3.96462 9.69553 3.95098C9.68371 3.92371 9.6628 3.91461 9.64371 3.91734L9.6428 3.91825ZM5.94252 3.95462C5.92979 3.95462 5.91161 3.95825 5.8907 3.97098C5.79342 4.02371 5.75615 4.18009 5.81797 4.271C5.87252 4.35283 5.96343 4.32283 5.97525 4.32283C6.07071 4.33555 6.12708 4.14463 6.12708 4.14463C6.12708 4.14463 6.12981 4.09008 6.01798 4.19191C5.96889 4.201 5.96343 4.18282 5.95071 4.15554C5.9398 4.10736 5.94161 4.05553 5.96434 4.00735C5.97525 3.97735 5.96434 3.95825 5.94252 3.95643V3.95462ZM11.1729 3.97916C11.1184 3.97644 11.0611 4.01189 11.0456 4.08554C11.0456 4.12917 11.0656 4.15281 11.062 4.19282C11.0574 4.21554 11.0347 4.22918 10.9784 4.20373C10.9874 4.19463 10.942 4.13281 10.942 4.13281C10.8993 4.10554 10.842 4.13281 10.8038 4.15827C10.7829 4.19645 10.7674 4.261 10.7911 4.32646C10.8529 4.44193 11.0665 4.6383 11.1684 4.64012C11.1702 4.53648 11.1802 4.39829 11.1865 4.31282C11.1884 4.2801 11.1956 4.24464 11.2275 4.23646C11.2584 4.22736 11.312 4.26737 11.312 4.23373C11.3066 4.16827 11.2938 4.07008 11.2575 4.02462C11.2375 3.99735 11.2056 3.98098 11.1738 3.97916H11.1729ZM6.84259 4.3401L6.83986 4.34283C6.83986 4.34283 6.83804 4.34283 6.83713 4.34465C6.82622 4.35374 6.8135 4.37192 6.78531 4.3901C6.73713 4.44465 6.72895 4.48375 6.73076 4.59285C6.7344 4.60466 6.82168 4.85014 6.89714 5.02197C6.94805 5.20107 6.99442 5.40654 6.96078 5.60019C6.84259 5.85658 6.60621 6.08659 6.37619 6.21206C6.258 6.24842 6.15799 6.23569 6.13072 6.21024C6.06344 6.16478 6.06253 6.08296 6.06708 6.07023V6.0675C6.25982 5.93295 6.48074 5.82385 6.65349 5.46109C6.7044 5.32199 6.72076 5.23835 6.66985 5.0247C6.64985 4.94287 6.62439 4.87923 6.56984 4.82104H6.57166C6.60439 4.80559 6.68985 4.86832 6.70349 4.83014C6.68258 4.72649 6.61257 4.58921 6.53529 4.51829C6.4662 4.45465 6.38983 4.44829 6.32801 4.50557C6.25709 4.54557 6.24255 4.6874 6.27618 4.81104C6.31437 4.90378 6.4171 4.92014 6.48984 5.10834C6.49165 5.12107 6.51438 5.24926 6.47802 5.30199C6.44711 5.39472 6.06435 5.69656 6.03708 5.71475L6.03435 5.71657L6.03253 5.71838H6.03071H6.02889V5.71566C6.02707 5.70838 6.02889 5.68838 6.02889 5.65838C6.02617 5.60201 6.0498 5.47382 6.04708 5.45109V5.44927C5.91979 5.5311 5.87706 5.78112 5.85434 5.85567C5.5334 6.07659 5.16974 6.24115 4.95972 6.4648C4.85062 6.63754 5.71251 6.27024 5.81251 6.22569L5.81524 6.22842C5.83524 6.24933 5.83615 6.32207 5.89343 6.38843C5.98434 6.50935 6.17345 6.5839 6.35892 6.53754C6.66985 6.42571 6.84986 6.21388 7.0317 5.9784C7.05715 5.94204 7.09806 5.91113 7.13625 5.94022C7.2608 6.22024 7.62265 6.42025 8.08905 6.44026C8.19815 6.30934 8.14632 6.24479 8.10268 6.21751C8.08905 6.20842 7.87085 6.12296 7.8363 6.03841C7.81539 5.96022 7.86721 5.89021 7.97086 5.83839C8.27088 5.80203 8.56544 5.76111 8.85092 5.66929C8.85365 5.57292 8.91002 5.43018 8.9482 5.36745C8.97548 5.32472 8.99093 5.32017 8.9973 5.31472V5.3129H8.99911V5.31017V5.30108L8.95002 5.27199L7.99268 5.26835C7.98086 5.2638 7.97267 5.25926 7.96722 5.25471L7.9654 5.25199C7.9654 5.25199 7.96358 5.25199 7.96358 5.25017C7.96358 5.24835 7.96176 5.24835 7.96176 5.24835V5.24744V5.24562V5.2438L7.96358 5.24108C7.96813 5.23562 7.97995 5.22926 7.99358 5.22289C8.22269 5.19289 8.62818 5.12652 8.65545 4.73649C8.65091 4.53284 8.56817 4.4001 8.31906 4.36374C8.13541 4.37738 8.00449 4.55466 8.0254 4.74922C8.01631 4.80104 8.04359 4.90378 7.98904 4.9156C7.6381 4.94833 7.25444 5.16834 7.24171 5.32654H7.23989H7.23807H7.23626C7.23626 5.32836 7.23353 5.32835 7.23353 5.32835H7.22989H7.22807H7.22444C7.20171 5.32108 7.17261 5.2829 7.17716 5.23108C7.16352 4.95833 7.07443 4.64921 6.93623 4.41283C6.88623 4.36283 6.8635 4.34283 6.85077 4.3401H6.84804H6.84532H6.84259ZM7.75902 4.48375C7.74084 4.48738 7.71993 4.50375 7.71356 4.53102C7.70902 4.54921 7.72266 4.5783 7.70629 4.58739C7.6972 4.59648 7.66083 4.59103 7.66265 4.54193C7.66265 4.52648 7.65083 4.5092 7.64447 4.4992C7.63719 4.49466 7.63265 4.49375 7.62083 4.49375C7.60537 4.49375 7.60446 4.49738 7.59628 4.51011C7.59174 4.52284 7.58719 4.53739 7.58719 4.55102C7.58537 4.56921 7.5781 4.57466 7.56628 4.57648C7.55173 4.57648 7.55537 4.57921 7.54355 4.57194C7.53628 4.56466 7.52719 4.56103 7.52719 4.5483C7.52719 4.53466 7.52446 4.51193 7.52082 4.50284C7.51446 4.49647 7.50446 4.49375 7.49355 4.49011C7.43263 4.49011 7.42991 4.5583 7.43263 4.58466C7.42809 4.58921 7.42536 4.71195 7.50718 4.74649C7.61628 4.79922 7.87994 4.76831 7.8163 4.5983C7.8163 4.58284 7.81175 4.53011 7.81084 4.51648C7.79902 4.4892 7.77811 4.48011 7.75811 4.48284L7.75902 4.48375ZM11.4548 4.63558H11.4457C11.4457 4.63558 10.9347 4.99924 10.9229 5.01197C10.872 5.05743 10.8974 5.21471 10.9229 5.19653C10.9593 5.21016 11.4729 4.86196 11.4629 4.82104C11.4857 4.82286 11.4966 4.64194 11.4538 4.63467L11.4548 4.63558ZM8.24178 4.69013C8.26179 4.6874 8.28906 4.69467 8.31452 4.70831C8.35361 4.73195 8.37816 4.76468 8.37361 4.79013V4.79377C8.37179 4.79377 8.37179 4.79377 8.37179 4.79559V4.79741C8.37179 4.79741 8.36998 4.79741 8.36998 4.79922C8.36998 4.80104 8.36725 4.80286 8.36543 4.80468C8.34725 4.82286 8.30543 4.81923 8.26542 4.79559C8.22724 4.77468 8.20451 4.74104 8.20633 4.7174V4.71467L8.21087 4.70558C8.21087 4.70558 8.21087 4.70376 8.21269 4.70285L8.21724 4.6974C8.2236 4.69285 8.23178 4.68831 8.24178 4.68831V4.69013ZM3.77054 4.78104C3.50689 4.7865 3.11868 5.12834 3.10868 5.31745L3.9451 4.91742C3.89964 4.84832 3.94237 4.7865 3.77054 4.78104ZM4.62788 4.89923C4.65334 4.90105 4.68061 4.91378 4.69516 4.95015C4.70789 4.98378 4.69516 5.01833 4.6797 5.03561V5.03833C4.66697 5.05288 4.62879 5.04743 4.60061 5.04743C4.56697 5.04561 4.5506 5.04015 4.5306 5.01288C4.51969 4.98106 4.54878 4.95105 4.56242 4.92923L4.56878 4.92014C4.57788 4.91105 4.59606 4.90378 4.61424 4.90196L4.62606 4.90014L4.62788 4.89923ZM11.3557 5.0056C11.3075 5.01106 11.2629 5.05561 11.2829 5.12652C11.2702 5.16834 11.3466 5.31472 11.3675 5.392C11.3857 5.44655 11.3438 5.60383 11.3811 5.61929C11.4157 5.63747 11.5057 5.52837 11.5029 5.38836C11.512 5.31563 11.4775 5.05197 11.3875 5.00833C11.3766 5.0056 11.3666 5.00469 11.3557 5.0056ZM5.6425 5.2638C5.60068 5.26653 5.5634 5.28835 5.58068 5.34745C5.57795 5.38927 5.69887 5.44109 5.70523 5.53837C5.7216 5.58019 5.67796 5.71111 5.71432 5.72202C5.74705 5.73566 5.79251 5.6311 5.80979 5.53655C5.81888 5.48382 5.76796 5.30017 5.6825 5.26653C5.66887 5.2629 5.65523 5.26199 5.64159 5.2629L5.6425 5.2638ZM7.35172 5.49655H7.36263C7.46991 5.52564 7.62628 5.52928 7.76266 5.54201C7.87449 5.5511 7.92903 5.63656 7.8263 5.67384C7.72266 5.70838 7.62356 5.73748 7.62356 5.88476C7.63629 5.95749 7.63265 5.99568 7.62174 6.01204C7.62174 6.01477 7.6181 6.0175 7.6181 6.0175C7.6181 6.0175 7.6181 6.01932 7.61628 6.01932V6.02113H7.61356L7.60719 6.02386H7.60265C7.5781 6.02841 7.54264 6.00568 7.51628 5.99113C7.45264 5.94567 7.27535 5.83657 7.24989 5.60019C7.24626 5.54564 7.28626 5.50019 7.3499 5.49564L7.35172 5.49655ZM3.17504 5.67838C3.16868 5.67838 3.15686 5.69838 3.13868 5.72111C2.98048 5.97113 2.96594 6.34479 3.05322 6.45753C3.09868 6.50935 3.17504 6.53299 3.23141 6.51663C3.33142 6.47389 3.37415 6.27297 3.3496 6.20024C3.31778 6.14842 3.29142 6.14023 3.25869 6.18387C3.18868 6.32479 3.15868 6.22751 3.15413 6.14751C3.14322 5.99931 3.15777 5.86112 3.17414 5.75202C3.18323 5.69747 3.18323 5.67656 3.17414 5.67656L3.17504 5.67838ZM8.53635 6.0075C8.52453 6.0075 8.51271 6.00931 8.49999 6.01659C8.49726 6.01659 8.38725 6.08932 8.35179 6.14205C8.32997 6.15842 8.33361 6.17205 8.33907 6.20115C8.35543 6.24024 8.38452 6.22842 8.41907 6.21024C8.46453 6.20297 8.48544 6.23297 8.48271 6.28661C8.4618 6.35479 8.4918 6.37934 8.4918 6.38389C8.4918 6.38752 8.53453 6.4248 8.58545 6.39571C8.69182 6.35479 8.75819 6.31388 8.9082 6.28206C8.94729 6.28206 8.94456 6.1766 8.88274 6.17296C8.80092 6.1766 8.72819 6.18205 8.64636 6.2457C8.59636 6.25661 8.58817 6.22569 8.57635 6.19842C8.56363 6.13114 8.60545 6.08387 8.59636 6.03295C8.59818 6.03568 8.5709 6.01113 8.53544 6.00931L8.53635 6.0075ZM11.9693 6.13478L11.8966 6.14205C11.8639 6.14842 11.853 6.16296 11.8466 6.20297C11.8493 6.26206 11.8857 6.25933 11.9239 6.28297C11.9457 6.31025 11.9602 6.3357 11.9221 6.38298C11.8857 6.4148 11.8611 6.43298 11.8248 6.4648C11.8093 6.4939 11.7975 6.53754 11.8502 6.55208C11.9457 6.57936 12.1666 6.43571 12.1666 6.43389C12.203 6.40662 12.1903 6.35479 12.1875 6.35479C12.1657 6.33116 12.1184 6.3457 12.0875 6.34116C12.0721 6.34116 12.0239 6.33388 12.0457 6.29024C12.0657 6.26297 12.073 6.24751 12.0866 6.21388C12.1003 6.18115 12.0866 6.15933 12.0339 6.14114C12.0066 6.13569 11.9884 6.13387 11.9675 6.13478H11.9693Z" fill="white"/>
<path d="M11.9397 7.90931H11.8061H11.0049V7.72846C11.0049 7.62852 10.9451 7.54761 10.8713 7.54761C10.7976 7.54761 10.7378 7.62847 10.7378 7.72846V7.90931H3.65973C3.9268 8.27097 4.46099 8.45187 4.86166 8.45187C5.149 8.45187 8.73323 8.45187 10.7378 8.45187V8.81353C10.7378 8.91347 10.7976 8.99438 10.8713 8.99438H11.9397C12.1606 8.99438 12.3404 8.75101 12.3404 8.45182C12.3404 8.15263 12.1606 7.90931 11.9397 7.90931ZM11.9397 8.63268H11.0048V8.45182C11.6485 8.45182 12.0732 8.45182 12.0732 8.45182L12.0492 8.35448C12.0631 8.38296 12.0732 8.41513 12.0732 8.45182C12.0732 8.55165 12.0133 8.63268 11.9397 8.63268Z" fill="white"/>
</svg>
