<svg width="29" height="28" viewBox="0 0 29 28" fill="none" xmlns="http://www.w3.org/2000/svg">
<path d="M24.8307 13.0796V23.16C24.8307 23.3828 24.7437 23.5964 24.5887 23.754C24.4338 23.9115 24.2236 24 24.0045 24H18.2207C18.0016 24 17.7914 23.9115 17.6365 23.754C17.4815 23.5964 17.3945 23.3828 17.3945 23.16V17.6998C17.3945 17.5884 17.351 17.4815 17.2735 17.4028C17.196 17.324 17.0909 17.2798 16.9814 17.2798H12.8501C12.7405 17.2798 12.6355 17.324 12.558 17.4028C12.4805 17.4815 12.437 17.5884 12.437 17.6998V23.16C12.437 23.3828 12.3499 23.5964 12.195 23.754C12.04 23.9115 11.8299 24 11.6107 24H5.82698C5.60785 24 5.39769 23.9115 5.24274 23.754C5.08778 23.5964 5.00073 23.3828 5.00073 23.16V13.0796C5.00094 12.6341 5.17517 12.2069 5.48512 11.892L13.7476 3.49169C14.0575 3.17685 14.4776 3 14.9157 3C15.3538 3 15.774 3.17685 16.0838 3.49169L24.3463 11.892C24.6563 12.2069 24.8305 12.6341 24.8307 13.0796Z" fill="#9E0B0F"/>
</svg>
