<svg width="29" height="28" viewBox="0 0 29 28" fill="none" xmlns="http://www.w3.org/2000/svg">
<path d="M18.9751 24.5C18.9751 24.7321 18.8829 24.9546 18.7188 25.1187C18.5547 25.2828 18.3322 25.375 18.1001 25.375H11.1001C10.868 25.375 10.6455 25.2828 10.4814 25.1187C10.3173 24.9546 10.2251 24.7321 10.2251 24.5C10.2251 24.2679 10.3173 24.0454 10.4814 23.8813C10.6455 23.7172 10.868 23.625 11.1001 23.625H18.1001C18.3322 23.625 18.5547 23.7172 18.7188 23.8813C18.8829 24.0454 18.9751 24.2679 18.9751 24.5ZM25.9751 7V19.25C25.9751 19.9462 25.6985 20.6139 25.2063 21.1062C24.714 21.5984 24.0463 21.875 23.3501 21.875H5.8501C5.1539 21.875 4.48623 21.5984 3.99394 21.1062C3.50166 20.6139 3.2251 19.9462 3.2251 19.25V7C3.2251 6.30381 3.50166 5.63613 3.99394 5.14384C4.48623 4.65156 5.1539 4.375 5.8501 4.375H23.3501C24.0463 4.375 24.714 4.65156 25.2063 5.14384C25.6985 5.63613 25.9751 6.30381 25.9751 7ZM18.5376 13.125C18.5376 12.9844 18.5036 12.8459 18.4387 12.7212C18.3738 12.5965 18.2798 12.4893 18.1646 12.4086L13.7896 9.34609C13.6585 9.25425 13.5047 9.20014 13.345 9.18963C13.1853 9.17913 13.0258 9.21264 12.8838 9.28651C12.7418 9.36039 12.6227 9.4718 12.5397 9.60862C12.4566 9.74544 12.4126 9.90243 12.4126 10.0625V16.1875C12.4126 16.3476 12.4566 16.5046 12.5397 16.6414C12.6227 16.7782 12.7418 16.8896 12.8838 16.9635C13.0258 17.0374 13.1853 17.0709 13.345 17.0604C13.5047 17.0499 13.6585 16.9957 13.7896 16.9039L18.1646 13.8414C18.2798 13.7607 18.3738 13.6535 18.4387 13.5288C18.5036 13.4041 18.5376 13.2656 18.5376 13.125Z" fill="#9E0B0F"/>
</svg>
