<svg width="29" height="28" viewBox="0 0 29 28" fill="none" xmlns="http://www.w3.org/2000/svg">
<path d="M23.7948 18.9755C23.2744 18.0333 22.5008 15.3672 22.5008 11.885C22.5008 9.79374 21.7105 7.78817 20.3037 6.30945C18.8969 4.83073 16.989 4 14.9995 4C13.01 4 11.102 4.83073 9.69527 6.30945C8.28851 7.78817 7.4982 9.79374 7.4982 11.885C7.4982 15.3681 6.72369 18.0333 6.20328 18.9755C6.07039 19.2151 5.99994 19.4872 5.99903 19.7645C5.99813 20.0418 6.0668 20.3144 6.19813 20.555C6.32945 20.7955 6.51879 20.9953 6.74704 21.1343C6.97529 21.2734 7.23439 21.3467 7.4982 21.3469H11.3248C11.4979 22.2371 11.9581 23.0371 12.6277 23.6116C13.2973 24.1862 14.1351 24.5 14.9995 24.5C15.8639 24.5 16.7017 24.1862 17.3713 23.6116C18.0409 23.0371 18.5011 22.2371 18.6742 21.3469H22.5008C22.7645 21.3465 23.0235 21.2731 23.2516 21.134C23.4797 20.9949 23.6689 20.795 23.8002 20.5545C23.9314 20.3141 24 20.0415 23.999 19.7643C23.9981 19.487 23.9276 19.215 23.7948 18.9755ZM14.9995 22.9239C14.5342 22.9237 14.0805 22.772 13.7006 22.4896C13.3208 22.2072 13.0336 21.808 12.8785 21.3469H17.1205C16.9654 21.808 16.6782 22.2072 16.2983 22.4896C15.9185 22.772 15.4647 22.9237 14.9995 22.9239Z" fill="#9E0B0F"/>
</svg>
