<svg width="29" height="28" viewBox="0 0 29 28" fill="none" xmlns="http://www.w3.org/2000/svg">
<path d="M23.4272 21.5569L19.3279 17.4561C20.557 15.8545 21.1308 13.8453 20.933 11.8362C20.7352 9.82713 19.7805 7.96849 18.2626 6.63736C16.7447 5.30623 14.7773 4.60229 12.7595 4.66832C10.7416 4.73436 8.82446 5.56543 7.39687 6.99295C5.96928 8.42048 5.13817 10.3376 5.07213 12.3553C5.00609 14.373 5.71007 16.3404 7.04126 17.8582C8.37245 19.376 10.2312 20.3306 12.2404 20.5284C14.2496 20.7263 16.2588 20.1525 17.8605 18.9234L21.9632 23.0268C22.0596 23.1232 22.1739 23.1996 22.2998 23.2517C22.4257 23.3039 22.5607 23.3307 22.6969 23.3307C22.8332 23.3307 22.9681 23.3039 23.094 23.2517C23.2199 23.1996 23.3343 23.1232 23.4306 23.0268C23.527 22.9305 23.6034 22.8161 23.6556 22.6902C23.7077 22.5643 23.7345 22.4294 23.7345 22.2931C23.7345 22.1569 23.7077 22.022 23.6556 21.8961C23.6034 21.7702 23.527 21.6558 23.4306 21.5595L23.4272 21.5569ZM7.15694 12.6224C7.15694 11.4616 7.50119 10.3268 8.14616 9.36157C8.79113 8.39635 9.70784 7.64406 10.7804 7.19981C11.8529 6.75557 13.0331 6.63934 14.1717 6.86581C15.3103 7.09228 16.3562 7.65129 17.1771 8.47214C17.998 9.29299 18.557 10.3388 18.7835 11.4774C19.01 12.6159 18.8938 13.7961 18.4495 14.8686C18.0052 15.9411 17.2529 16.8577 16.2876 17.5027C15.3224 18.1476 14.1875 18.4918 13.0266 18.4918C11.4704 18.4902 9.97833 17.8714 8.87789 16.771C7.77746 15.6706 7.15854 14.1786 7.15694 12.6224Z" fill="#9E0B0F"/>
</svg>
