<svg width="20" height="20" viewBox="0 0 20 20" fill="none" xmlns="http://www.w3.org/2000/svg">
<path fill-rule="evenodd" clip-rule="evenodd" d="M8.12479 18.7057C8.35342 18.8703 8.59845 18.9317 8.83145 18.9583H11.1685C11.4015 18.9317 11.6466 18.8703 11.8752 18.7057C12.1037 18.5412 12.2394 18.3288 12.3381 18.1168C12.4268 17.9264 12.8737 16.5926 12.8737 16.5926C12.8737 16.5926 13.092 16.2231 13.2713 16.1055C13.6234 15.8746 13.9786 15.8244 14.2101 15.8746C14.2101 15.8746 15.778 16.316 15.9994 16.351C16.2457 16.39 16.5151 16.395 16.7937 16.2821C17.0722 16.1692 17.2617 15.9782 17.4109 15.7791L18.6096 13.7105C18.7035 13.4945 18.7727 13.2506 18.7431 12.9694C18.7134 12.6881 18.5948 12.464 18.458 12.2721C18.3351 12.0999 17.2993 10.9469 17.1201 10.7483C17.1201 10.7483 16.9034 10.4161 16.9034 9.99982C16.9034 9.51252 17.1201 9.25151 17.1201 9.25151C17.1201 9.25151 18.3351 7.89994 18.458 7.72771C18.5948 7.53589 18.7134 7.31171 18.7431 7.03046C18.7727 6.74924 18.7035 6.50539 18.6096 6.2894C18.5254 6.09542 17.4108 4.22069 17.4108 4.22069C17.2617 4.02159 17.0722 3.83067 16.7937 3.71778C16.5151 3.60485 16.2457 3.60982 15.9994 3.64879C15.778 3.68383 14.485 4.04744 14.2101 4.12525C14.2101 4.12525 13.7689 4.22069 13.2713 3.89437C13.092 3.77677 12.9531 3.60674 12.8737 3.40723C12.8737 3.40723 12.4268 2.07354 12.3381 1.88313C12.2394 1.67115 12.1037 1.45869 11.8752 1.29419C11.6466 1.12963 11.4016 1.06819 11.1685 1.04163H8.83145C8.59845 1.06819 8.35342 1.12963 8.12479 1.29419C7.89626 1.45869 7.76062 1.67115 7.66187 1.88313C7.57317 2.07354 7.12631 3.40723 7.12631 3.40723C7.0469 3.60674 6.90797 3.77677 6.72865 3.89437C6.23105 4.22069 5.78995 4.12525 5.78995 4.12525C5.51497 4.04744 4.222 3.68383 4.00058 3.64879C3.75431 3.60982 3.48491 3.60485 3.20633 3.71778C2.92785 3.83067 2.73835 4.02159 2.58915 4.22069C2.58915 4.22069 1.47464 6.09542 1.39036 6.2894C1.29652 6.50539 1.2273 6.74924 1.25694 7.03046C1.28658 7.31171 1.40516 7.53589 1.54203 7.72771C1.66492 7.89994 2.87988 9.25151 2.87988 9.25151C2.87988 9.25151 3.09659 9.51252 3.09659 9.99982C3.09659 10.4161 2.8799 10.7483 2.8799 10.7483C2.7007 10.9469 1.66493 12.0999 1.54203 12.2721C1.40516 12.464 1.28659 12.6881 1.25694 12.9694C1.2273 13.2506 1.29652 13.4945 1.39036 13.7105L2.58914 15.7791C2.73834 15.9782 2.92784 16.1692 3.20634 16.2821C3.48492 16.395 3.75433 16.39 4.00059 16.351C4.22203 16.316 5.78991 15.8746 5.78991 15.8746C6.02135 15.8244 6.37661 15.8746 6.72869 16.1055C6.90798 16.2231 7.12628 16.5926 7.12628 16.5926C7.12628 16.5926 7.57317 17.9264 7.66187 18.1168C7.76062 18.3288 7.89626 18.5412 8.12479 18.7057ZM10.0163 12.9166C11.6271 12.9166 12.9329 11.6108 12.9329 9.99996C12.9329 8.38913 11.6271 7.08329 10.0163 7.08329C8.40545 7.08329 7.09961 8.38913 7.09961 9.99996C7.09961 11.6108 8.40545 12.9166 10.0163 12.9166Z" fill="#273E72"/>
</svg>
