<svg width="25" height="24" viewBox="0 0 25 24" fill="none" xmlns="http://www.w3.org/2000/svg">
<path d="M12.0395 17.04C12.0395 17.2946 11.9384 17.5388 11.7583 17.7188C11.5783 17.8989 11.3341 18 11.0796 18H5.95993C5.70534 18 5.46118 17.8989 5.28116 17.7188C5.10114 17.5388 5 17.2946 5 17.04V2.96C5 2.70539 5.10114 2.46121 5.28116 2.28118C5.46118 2.10114 5.70534 2 5.95993 2H11.0796C11.3341 2 11.5783 2.10114 11.7583 2.28118C11.9384 2.46121 12.0395 2.70539 12.0395 2.96C12.0395 3.21461 11.9384 3.45879 11.7583 3.63882C11.5783 3.81886 11.3341 3.92 11.0796 3.92H6.91986V16.08H11.0796C11.3341 16.08 11.5783 16.1811 11.7583 16.3612C11.9384 16.5412 12.0395 16.7854 12.0395 17.04ZM20.7181 9.3208L17.5183 6.1208C17.338 5.94045 17.0934 5.83913 16.8383 5.83913C16.5833 5.83913 16.3387 5.94045 16.1584 6.1208C15.9781 6.30115 15.8767 6.54575 15.8767 6.8008C15.8767 7.05585 15.9781 7.30045 16.1584 7.4808L17.7191 9.04H11.0796C10.825 9.04 10.5808 9.14114 10.4008 9.32118C10.2208 9.50121 10.1196 9.74539 10.1196 10C10.1196 10.2546 10.2208 10.4988 10.4008 10.6788C10.5808 10.8589 10.825 10.96 11.0796 10.96H17.7191L16.1576 12.5208C15.9773 12.7011 15.8759 12.9458 15.8759 13.2008C15.8759 13.4558 15.9773 13.7005 16.1576 13.8808C16.3379 14.0611 16.5825 14.1625 16.8375 14.1625C17.0926 14.1625 17.3372 14.0611 17.5175 13.8808L20.7173 10.6808C20.8068 10.5917 20.8779 10.4857 20.9264 10.3691C20.9749 10.2524 20.9999 10.1273 21 10.001C21.0001 9.87462 20.9752 9.7495 20.9268 9.63278C20.8784 9.51606 20.8075 9.41004 20.7181 9.3208Z" fill="white"/>
</svg>
