<svg width="19" height="19" viewBox="0 0 19 19" fill="none" xmlns="http://www.w3.org/2000/svg">
<path d="M17.3889 8.52415L14.0491 11.4061L15.0666 15.716C15.1227 15.9499 15.1083 16.1953 15.0251 16.421C14.9418 16.6468 14.7936 16.8428 14.599 16.9843C14.4044 17.1258 14.1722 17.2065 13.9318 17.2162C13.6914 17.2258 13.4535 17.164 13.2482 17.0385L9.5002 14.7318L5.74992 17.0385C5.54466 17.1633 5.30706 17.2245 5.06707 17.2145C4.82707 17.2045 4.5954 17.1237 4.40122 16.9823C4.20705 16.8409 4.05906 16.6452 3.97588 16.4199C3.8927 16.1945 3.87806 15.9496 3.93379 15.716L4.95504 11.4061L1.6152 8.52415C1.43358 8.36719 1.30224 8.1602 1.23756 7.92903C1.17288 7.69786 1.17775 7.45276 1.25154 7.22434C1.32533 6.99592 1.46478 6.7943 1.65248 6.64466C1.84017 6.49502 2.0678 6.40399 2.30692 6.38294L6.68582 6.02966L8.37504 1.94169C8.46647 1.7189 8.62209 1.52833 8.82211 1.39421C9.02213 1.26009 9.25752 1.18848 9.49834 1.18848C9.73917 1.18848 9.97455 1.26009 10.1746 1.39421C10.3746 1.52833 10.5302 1.7189 10.6216 1.94169L12.3101 6.02966L16.689 6.38294C16.9286 6.40321 17.1569 6.49373 17.3453 6.64316C17.5337 6.79259 17.6738 6.99429 17.748 7.22299C17.8223 7.45169 17.8274 7.69722 17.7627 7.92881C17.698 8.1604 17.5665 8.36775 17.3845 8.5249L17.3889 8.52415Z" fill="black"/>
</svg>
