<svg width="34" height="34" viewBox="0 0 34 34" fill="none" xmlns="http://www.w3.org/2000/svg">
<path opacity="0.06" d="M0 4C0 1.79086 1.79086 0 4 0H30C32.2091 0 34 1.79086 34 4V30C34 32.2091 32.2091 34 30 34H4C1.79086 34 0 32.2091 0 30V4Z" fill="#343434"/>
<path d="M14.1875 14.1875C14.1875 13.9389 14.2863 13.7004 14.4621 13.5246C14.6379 13.3488 14.8764 13.25 15.125 13.25H19.8125C20.0611 13.25 20.2996 13.3488 20.4754 13.5246C20.6512 13.7004 20.75 13.9389 20.75 14.1875C20.75 14.4361 20.6512 14.6746 20.4754 14.8504C20.2996 15.0262 20.0611 15.125 19.8125 15.125H15.125C14.8764 15.125 14.6379 15.0262 14.4621 14.8504C14.2863 14.6746 14.1875 14.4361 14.1875 14.1875ZM15.125 18.25H19.8125C20.0611 18.25 20.2996 18.1512 20.4754 17.9754C20.6512 17.7996 20.75 17.5611 20.75 17.3125C20.75 17.0639 20.6512 16.8254 20.4754 16.6496C20.2996 16.4738 20.0611 16.375 19.8125 16.375H15.125C14.8764 16.375 14.6379 16.4738 14.4621 16.6496C14.2863 16.8254 14.1875 17.0639 14.1875 17.3125C14.1875 17.5611 14.2863 17.7996 14.4621 17.9754C14.6379 18.1512 14.8764 18.25 15.125 18.25ZM25.4375 22C25.4375 22.7459 25.1412 23.4613 24.6137 23.9887C24.0863 24.5162 23.3709 24.8125 22.625 24.8125H13.875C13.1291 24.8125 12.4137 24.5162 11.8863 23.9887C11.3588 23.4613 11.0625 22.7459 11.0625 22V12C11.0625 11.7514 10.9637 11.5129 10.7879 11.3371C10.6121 11.1613 10.3736 11.0625 10.125 11.0625C9.87636 11.0625 9.6379 11.1613 9.46209 11.3371C9.28627 11.5129 9.1875 11.7514 9.1875 12C9.1875 12.2914 9.44922 12.5086 9.45156 12.5109L9.4375 12.5C9.54067 12.572 9.6283 12.664 9.69516 12.7706C9.76202 12.8772 9.80674 12.9961 9.82667 13.1203C9.8466 13.2445 9.84132 13.3715 9.81115 13.4936C9.78098 13.6158 9.72653 13.7306 9.65105 13.8313C9.57558 13.9319 9.48061 14.0163 9.37182 14.0795C9.26302 14.1427 9.14263 14.1833 9.0178 14.199C8.89297 14.2147 8.76626 14.2051 8.64522 14.1707C8.52419 14.1364 8.4113 14.0781 8.31328 13.9992C8.21016 13.9234 7.3125 13.2148 7.3125 12C7.3125 11.2541 7.60882 10.5387 8.13626 10.0113C8.66371 9.48382 9.37908 9.1875 10.125 9.1875H20.75C21.4959 9.1875 22.2113 9.48382 22.7387 10.0113C23.2662 10.5387 23.5625 11.2541 23.5625 12V19.8125H23.875C24.0778 19.8125 24.2752 19.8783 24.4375 20C24.5398 20.0766 25.4375 20.7852 25.4375 22ZM14.2359 20.4531C14.2982 20.2666 14.4176 20.1044 14.5771 19.9894C14.7367 19.8744 14.9283 19.8125 15.125 19.8125H21.6875V12C21.6875 11.7514 21.5887 11.5129 21.4129 11.3371C21.2371 11.1613 20.9986 11.0625 20.75 11.0625H12.7766C12.8832 11.3635 12.9377 11.6806 12.9375 12V22C12.9375 22.2486 13.0363 22.4871 13.2121 22.6629C13.3879 22.8387 13.6264 22.9375 13.875 22.9375C14.1236 22.9375 14.3621 22.8387 14.5379 22.6629C14.7137 22.4871 14.8125 22.2486 14.8125 22C14.8125 21.7203 14.5648 21.5016 14.5625 21.5C14.4051 21.3819 14.2888 21.2172 14.2302 21.0293C14.1716 20.8414 14.1736 20.6398 14.2359 20.4531ZM23.5625 22C23.5597 21.8889 23.5262 21.7807 23.4656 21.6875H16.6687C16.6824 21.7911 16.6892 21.8955 16.6891 22C16.6893 22.3194 16.6348 22.6365 16.5281 22.9375H22.625C22.8736 22.9375 23.1121 22.8387 23.2879 22.6629C23.4637 22.4871 23.5625 22.2486 23.5625 22Z" fill="#343434"/>
</svg>
