<svg width="29" height="28" viewBox="0 0 29 28" fill="none" xmlns="http://www.w3.org/2000/svg">
<path d="M23.4274 21.5569L19.3281 17.4561C20.5572 15.8545 21.1311 13.8453 20.9332 11.8362C20.7354 9.82713 19.7807 7.96849 18.2628 6.63736C16.7449 5.30623 14.7775 4.60229 12.7597 4.66832C10.7419 4.73436 8.8247 5.56543 7.39711 6.99295C5.96953 8.42048 5.13841 10.3376 5.07237 12.3553C5.00634 14.373 5.71031 16.3404 7.04151 17.8582C8.3727 19.376 10.2314 20.3306 12.2406 20.5284C14.2498 20.7263 16.259 20.1525 17.8607 18.9234L21.9634 23.0268C22.0598 23.1232 22.1742 23.1996 22.3001 23.2517C22.426 23.3039 22.5609 23.3307 22.6972 23.3307C22.8334 23.3307 22.9683 23.3039 23.0942 23.2517C23.2201 23.1996 23.3345 23.1232 23.4309 23.0268C23.5272 22.9305 23.6037 22.8161 23.6558 22.6902C23.7079 22.5643 23.7348 22.4294 23.7348 22.2931C23.7348 22.1569 23.7079 22.022 23.6558 21.8961C23.6037 21.7702 23.5272 21.6558 23.4309 21.5595L23.4274 21.5569ZM7.15718 12.6224C7.15718 11.4616 7.50143 10.3268 8.1464 9.36157C8.79137 8.39635 9.70809 7.64406 10.7806 7.19981C11.8532 6.75557 13.0334 6.63934 14.172 6.86581C15.3106 7.09228 16.3565 7.65129 17.1774 8.47214C17.9982 9.29299 18.5573 10.3388 18.7838 11.4774C19.0102 12.6159 18.894 13.7961 18.4497 14.8686C18.0055 15.9411 17.2531 16.8577 16.2879 17.5027C15.3226 18.1476 14.1878 18.4918 13.0269 18.4918C11.4706 18.4902 9.97857 17.8714 8.87814 16.771C7.77771 15.6706 7.15878 14.1786 7.15718 12.6224Z" fill="#343434"/>
</svg>
