<svg width="29" height="28" viewBox="0 0 29 28" fill="none" xmlns="http://www.w3.org/2000/svg">
<path d="M24.187 11.8867L15.437 3.13667C15.1088 2.80873 14.6639 2.62451 14.2 2.62451C13.736 2.62451 13.2911 2.80873 12.9629 3.13667L4.21293 11.8867C4.04964 12.0487 3.9202 12.2417 3.83213 12.4542C3.74407 12.6668 3.69914 12.8947 3.69996 13.1248V23.6248C3.69996 23.8569 3.79215 24.0794 3.95624 24.2435C4.12034 24.4076 4.3429 24.4998 4.57496 24.4998H11.575C11.807 24.4998 12.0296 24.4076 12.1937 24.2435C12.3578 24.0794 12.45 23.8569 12.45 23.6248V17.4998H15.95V23.6248C15.95 23.8569 16.0421 24.0794 16.2062 24.2435C16.3703 24.4076 16.5929 24.4998 16.825 24.4998H23.825C24.057 24.4998 24.2796 24.4076 24.4437 24.2435C24.6078 24.0794 24.7 23.8569 24.7 23.6248V13.1248C24.7008 12.8947 24.6559 12.6668 24.5678 12.4542C24.4797 12.2417 24.3503 12.0487 24.187 11.8867ZM22.95 22.7498H17.7V16.6248C17.7 16.3927 17.6078 16.1702 17.4437 16.0061C17.2796 15.842 17.057 15.7498 16.825 15.7498H11.575C11.3429 15.7498 11.1203 15.842 10.9562 16.0061C10.7921 16.1702 10.7 16.3927 10.7 16.6248V22.7498H5.44996V13.1248L14.2 4.37479L22.95 13.1248V22.7498Z" fill="#343434"/>
</svg>
