<svg width="28" height="28" viewBox="0 0 28 28" fill="none" xmlns="http://www.w3.org/2000/svg">
<path d="M16.649 12.9167L13.1906 10.9202C12.7446 10.6614 12.2145 10.6626 11.7707 10.9202C11.327 11.1767 11.0625 11.6353 11.0625 12.1483V16.1424C11.0625 16.6543 11.327 17.1151 11.7707 17.3705C11.9932 17.4999 12.2372 17.5634 12.4801 17.5634C12.7242 17.5634 12.9682 17.4999 13.1906 17.3705L16.649 15.3751C17.0928 15.1175 17.3584 14.6578 17.3584 14.1459C17.3584 13.6329 17.0928 13.1732 16.649 12.9167Z" fill="#343434"/>
<path d="M18.8762 8.72315C18.5436 8.39286 18.0034 8.394 17.6719 8.72883C17.3417 9.06252 17.3439 9.60165 17.6776 9.93194C18.8036 11.0477 19.4233 12.5425 19.4233 14.1406C19.4233 15.7387 18.8036 17.2335 17.6776 18.3492C17.3439 18.6795 17.3417 19.2186 17.6719 19.5534C17.8388 19.7203 18.0578 19.8043 18.2769 19.8043C18.4937 19.8043 18.7105 19.7225 18.8762 19.558C20.3267 18.121 21.1258 16.1961 21.1258 14.1406C21.1258 12.0839 20.3267 10.1612 18.8762 8.72315Z" fill="#343434"/>
<path d="M9.2613 8.72883C8.92987 8.394 8.39074 8.39286 8.05705 8.72315C6.60651 10.1612 5.80859 12.0851 5.80859 14.1406C5.80859 16.1972 6.60651 18.121 8.05705 19.5591C8.22276 19.7225 8.43955 19.8043 8.65634 19.8043C8.87539 19.8043 9.09558 19.7203 9.2613 19.5534C9.59272 19.2186 9.59045 18.6795 9.25562 18.3492C8.12969 17.2335 7.51111 15.7387 7.51111 14.1406C7.51111 12.5425 8.12969 11.0477 9.25562 9.93307C9.59045 9.60165 9.59272 9.06252 9.2613 8.72883Z" fill="#343434"/>
<path d="M22.0904 5.51504C21.7578 5.18249 21.2187 5.18249 20.8861 5.51504C20.5536 5.8476 20.5536 6.38673 20.8861 6.71929C22.8701 8.70329 23.9632 11.3388 23.9632 14.1411C23.9632 16.9435 22.8701 19.5801 20.8861 21.5641C20.5536 21.8967 20.5536 22.4358 20.8861 22.7683C21.053 22.9341 21.2709 23.0169 21.4888 23.0169C21.7068 23.0169 21.9247 22.9341 22.0904 22.7683C24.3956 20.462 25.6657 17.3975 25.6657 14.1411C25.6657 10.8836 24.3956 7.82025 22.0904 5.51504Z" fill="#343434"/>
<path d="M2.96424 14.1411C2.96424 11.3388 4.05612 8.70215 6.04011 6.71816C6.37267 6.3856 6.37267 5.8476 6.04011 5.51504C5.70756 5.18249 5.16956 5.18249 4.837 5.51504C2.5318 7.82025 1.26172 10.8836 1.26172 14.1411C1.26172 17.3975 2.5318 20.462 4.837 22.7683C5.00271 22.9341 5.22064 23.0169 5.43856 23.0169C5.65648 23.0169 5.8744 22.9341 6.04011 22.7683C6.37267 22.4358 6.37267 21.8967 6.04011 21.5641C4.05612 19.5801 2.96424 16.9435 2.96424 14.1411Z" fill="#343434"/>
</svg>
