<svg width="29" height="28" viewBox="0 0 29 28" fill="none" xmlns="http://www.w3.org/2000/svg">
<path d="M23.4277 21.5569L19.3284 17.4561C20.5575 15.8545 21.1313 13.8453 20.9335 11.8362C20.7356 9.82713 19.7809 7.96849 18.2631 6.63736C16.7452 5.30623 14.7778 4.60229 12.76 4.66832C10.7421 4.73436 8.82495 5.56543 7.39736 6.99295C5.96977 8.42048 5.13866 10.3376 5.07262 12.3553C5.00658 14.373 5.71056 16.3404 7.04175 17.8582C8.37294 19.376 10.2317 20.3306 12.2409 20.5284C14.2501 20.7263 16.2593 20.1525 17.861 18.9234L21.9637 23.0268C22.06 23.1232 22.1744 23.1996 22.3003 23.2517C22.4262 23.3039 22.5611 23.3307 22.6974 23.3307C22.8337 23.3307 22.9686 23.3039 23.0945 23.2517C23.2204 23.1996 23.3348 23.1232 23.4311 23.0268C23.5275 22.9305 23.6039 22.8161 23.656 22.6902C23.7082 22.5643 23.735 22.4294 23.735 22.2931C23.735 22.1569 23.7082 22.022 23.656 21.8961C23.6039 21.7702 23.5275 21.6558 23.4311 21.5595L23.4277 21.5569ZM7.15743 12.6224C7.15743 11.4616 7.50168 10.3268 8.14665 9.36157C8.79161 8.39635 9.70833 7.64406 10.7809 7.19981C11.8534 6.75557 13.0336 6.63934 14.1722 6.86581C15.3108 7.09228 16.3567 7.65129 17.1776 8.47214C17.9985 9.29299 18.5575 10.3388 18.784 11.4774C19.0105 12.6159 18.8942 13.7961 18.45 14.8686C18.0057 15.9411 17.2534 16.8577 16.2881 17.5027C15.3229 18.1476 14.188 18.4918 13.0271 18.4918C11.4709 18.4902 9.97881 17.8714 8.87838 16.771C7.77795 15.6706 7.15903 14.1786 7.15743 12.6224Z" fill="#9CA3A3"/>
</svg>
