<svg width="29" height="28" viewBox="0 0 29 28" fill="none" xmlns="http://www.w3.org/2000/svg">
<path d="M23.7562 18.1861C22.975 16.7347 22.56 14.6514 22.56 12.1658C22.56 10.0001 21.7634 7.92307 20.3455 6.39169C18.9276 4.86032 17.0045 4 14.9993 4C12.994 4 11.0709 4.86032 9.65299 6.39169C8.23507 7.92307 7.43849 10.0001 7.43849 12.1658C7.43849 14.6524 7.02535 16.7347 6.24407 18.1861C6.08465 18.4821 6.00014 18.8182 5.99903 19.1607C5.99793 19.5031 6.08026 19.8399 6.23777 20.1371C6.39428 20.4345 6.62145 20.6814 6.89581 20.8522C7.17018 21.0231 7.48181 21.1118 7.79853 21.1092H11.0551C11.1444 22.1723 11.5985 23.161 12.3283 23.8809C13.0582 24.6008 14.0108 25 14.9993 25C15.9877 25 16.9404 24.6008 17.6702 23.8809C18.4 23.161 18.8541 22.1723 18.9435 21.1092H22.2C22.5162 21.1113 22.8273 21.0224 23.1012 20.8515C23.375 20.6806 23.6018 20.434 23.758 20.1371C23.9162 19.8403 23.9993 19.5038 23.999 19.1613C23.9987 18.8189 23.915 18.4825 23.7562 18.1861ZM14.9993 22.6646C14.5843 22.6647 14.182 22.5099 13.8605 22.2265C13.539 21.943 13.3181 21.5483 13.2351 21.1092H16.7634C16.6804 21.5483 16.4595 21.943 16.138 22.2265C15.8165 22.5099 15.4143 22.6647 14.9993 22.6646ZM8.39799 18.7761C9.19457 17.0263 9.59871 14.8041 9.59871 12.1658C9.59871 10.6188 10.1677 9.13527 11.1805 8.04143C12.1933 6.94759 13.5669 6.33307 14.9993 6.33307C16.4316 6.33307 17.8052 6.94759 18.818 8.04143C19.8308 9.13527 20.3998 10.6188 20.3998 12.1658C20.3998 14.8031 20.803 17.0263 21.5996 18.7761H8.39799Z" fill="#343434"/>
</svg>
