<svg width="29" height="28" viewBox="0 0 29 28" fill="none" xmlns="http://www.w3.org/2000/svg">
<path d="M23.3501 4.375H5.8501C5.1539 4.375 4.48623 4.65156 3.99394 5.14384C3.50166 5.63613 3.2251 6.30381 3.2251 7V19.25C3.2251 19.9462 3.50166 20.6139 3.99394 21.1062C4.48623 21.5984 5.1539 21.875 5.8501 21.875H23.3501C24.0463 21.875 24.714 21.5984 25.2063 21.1062C25.6985 20.6139 25.9751 19.9462 25.9751 19.25V7C25.9751 6.30381 25.6985 5.63613 25.2063 5.14384C24.714 4.65156 24.0463 4.375 23.3501 4.375ZM24.2251 19.25C24.2251 19.4821 24.1329 19.7046 23.9688 19.8687C23.8047 20.0328 23.5822 20.125 23.3501 20.125H5.8501C5.61803 20.125 5.39547 20.0328 5.23138 19.8687C5.06729 19.7046 4.9751 19.4821 4.9751 19.25V7C4.9751 6.76794 5.06729 6.54538 5.23138 6.38128C5.39547 6.21719 5.61803 6.125 5.8501 6.125H23.3501C23.5822 6.125 23.8047 6.21719 23.9688 6.38128C24.1329 6.54538 24.2251 6.76794 24.2251 7V19.25ZM18.9751 24.5C18.9751 24.7321 18.8829 24.9546 18.7188 25.1187C18.5547 25.2828 18.3322 25.375 18.1001 25.375H11.1001C10.868 25.375 10.6455 25.2828 10.4814 25.1187C10.3173 24.9546 10.2251 24.7321 10.2251 24.5C10.2251 24.2679 10.3173 24.0454 10.4814 23.8813C10.6455 23.7172 10.868 23.625 11.1001 23.625H18.1001C18.3322 23.625 18.5547 23.7172 18.7188 23.8813C18.8829 24.0454 18.9751 24.2679 18.9751 24.5ZM18.5857 12.3966L13.3357 8.89656C13.2039 8.80862 13.0507 8.75812 12.8924 8.75046C12.7342 8.74279 12.5768 8.77824 12.4371 8.85303C12.2974 8.92781 12.1807 9.03913 12.0993 9.17509C12.0179 9.31105 11.975 9.46655 11.9751 9.625V16.625C11.975 16.7835 12.0179 16.939 12.0993 17.0749C12.1807 17.2109 12.2974 17.3222 12.4371 17.397C12.5768 17.4718 12.7342 17.5072 12.8924 17.4995C13.0507 17.4919 13.2039 17.4414 13.3357 17.3534L18.5857 13.8534C18.7057 13.7736 18.8042 13.6653 18.8722 13.5382C18.9403 13.4111 18.976 13.2692 18.976 13.125C18.976 12.9808 18.9403 12.8389 18.8722 12.7118C18.8042 12.5847 18.7057 12.4764 18.5857 12.3966ZM13.7251 14.9898V11.2656L16.5229 13.125L13.7251 14.9898Z" fill="#343434"/>
</svg>
