<svg width="26" height="26" viewBox="0 0 26 26" fill="none" xmlns="http://www.w3.org/2000/svg">
<path d="M9.7765 3.75779C9.72371 3.54974 9.75538 3.32926 9.86461 3.14448C9.97384 2.95971 10.1517 2.82566 10.3595 2.77162C12.0915 2.32491 13.9086 2.32491 15.6407 2.77162C15.8326 2.82074 15.9999 2.93824 16.1112 3.10203C16.2225 3.26582 16.2702 3.46463 16.2452 3.66109C16.2203 3.85754 16.1244 4.03813 15.9757 4.1689C15.827 4.29967 15.6356 4.37162 15.4376 4.37123C15.3691 4.37087 15.3008 4.362 15.2345 4.34482C13.7689 3.96642 12.2313 3.96642 10.7657 4.34482C10.6622 4.37135 10.5545 4.37721 10.4487 4.36205C10.343 4.34689 10.2412 4.31102 10.1493 4.2565C10.0575 4.20197 9.97723 4.12985 9.91325 4.04428C9.84928 3.9587 9.80281 3.86135 9.7765 3.75779ZM3.3872 11.1719C3.49004 11.2004 3.59749 11.2084 3.70342 11.1955C3.80935 11.1825 3.91169 11.1488 4.00459 11.0962C4.09749 11.0437 4.17913 10.9734 4.24485 10.8893C4.31056 10.8052 4.35907 10.709 4.38759 10.6062C4.79241 9.14809 5.56128 7.81688 6.62197 6.73764C6.76084 6.58187 6.83445 6.37865 6.82755 6.17009C6.82065 5.96152 6.73377 5.76361 6.58491 5.61736C6.43606 5.47111 6.23664 5.38775 6.02798 5.38454C5.81933 5.38134 5.61744 5.45853 5.46416 5.60014C4.21107 6.87533 3.30244 8.44795 2.82353 10.1704C2.79478 10.2732 2.78655 10.3806 2.79932 10.4866C2.81209 10.5925 2.8456 10.6949 2.89794 10.7879C2.95029 10.8809 3.02044 10.9627 3.10438 11.0285C3.18833 11.0944 3.28443 11.1431 3.3872 11.1719ZM15.2345 21.6551C13.7689 22.0335 12.2313 22.0335 10.7657 21.6551C10.5584 21.605 10.3396 21.6384 10.1567 21.7481C9.97372 21.8578 9.84128 22.0351 9.78794 22.2417C9.73459 22.4483 9.76464 22.6675 9.87157 22.8521C9.9785 23.0367 10.1537 23.1718 10.3595 23.2283C12.0915 23.6751 13.9086 23.6751 15.6407 23.2283C15.8464 23.1718 16.0217 23.0367 16.1286 22.8521C16.2356 22.6675 16.2656 22.4483 16.2123 22.2417C16.1589 22.0351 16.0265 21.8578 15.8435 21.7481C15.6606 21.6384 15.4418 21.605 15.2345 21.6551ZM21.6126 10.6082C21.6702 10.8159 21.808 10.9921 21.9956 11.0982C22.1832 11.2043 22.4053 11.2315 22.613 11.1739C22.8207 11.1162 22.9969 10.9785 23.103 10.7909C23.2091 10.6032 23.2363 10.3812 23.1787 10.1735C22.6994 8.45113 21.7909 6.8786 20.5381 5.60318C20.464 5.5241 20.3749 5.46062 20.2759 5.41649C20.177 5.37235 20.0702 5.34845 19.9619 5.34619C19.8536 5.34393 19.7459 5.36336 19.6452 5.40333C19.5445 5.4433 19.4528 5.50301 19.3755 5.57893C19.2983 5.65486 19.2369 5.74548 19.1952 5.84546C19.1535 5.94544 19.1321 6.05275 19.1325 6.16109C19.1328 6.26944 19.1548 6.37661 19.1972 6.47632C19.2396 6.57603 19.3015 6.66626 19.3792 6.7417C20.438 7.8213 21.206 9.1515 21.6116 10.6082H21.6126ZM23.1807 15.8275C22.6432 17.7654 21.5619 19.5089 20.0648 20.8518C19.9722 20.9354 19.8616 20.9965 19.7415 21.0305C19.6215 21.0644 19.4953 21.0703 19.3726 21.0476C19.25 21.0249 19.1342 20.9743 19.0342 20.8996C18.9343 20.825 18.8528 20.7283 18.7963 20.6172C18.2529 19.5467 17.4238 18.6476 16.4007 18.0195C15.3776 17.3915 14.2006 17.059 13.0001 17.059C11.7996 17.059 10.6226 17.3915 9.5995 18.0195C8.57642 18.6476 7.74725 19.5467 7.20392 20.6172C7.1474 20.7282 7.06609 20.8248 6.96627 20.8995C6.86645 20.9741 6.7508 21.0247 6.62827 21.0475C6.50574 21.0703 6.37961 21.0646 6.25965 21.0308C6.13968 20.997 6.02908 20.9361 5.93642 20.8528C4.43923 19.5092 3.35799 17.765 2.82049 15.8265C2.76298 15.6188 2.79032 15.3968 2.89651 15.2093C3.00269 15.0217 3.17902 14.8841 3.3867 14.8266C3.59437 14.7691 3.81639 14.7964 4.0039 14.9026C4.19142 15.0088 4.32907 15.1851 4.38658 15.3928C4.75002 16.7058 5.41023 17.9178 6.31627 18.9353C7.22282 17.6204 8.49866 16.6036 9.98267 16.0133C9.18636 15.3865 8.6052 14.527 8.32003 13.5545C8.03487 12.582 8.05988 11.5448 8.39157 10.5872C8.72327 9.6296 9.34517 8.79915 10.1708 8.2114C10.9964 7.62364 11.9846 7.3078 12.9981 7.3078C14.0115 7.3078 14.9998 7.62364 15.8254 8.2114C16.651 8.79915 17.2729 9.6296 17.6046 10.5872C17.9363 11.5448 17.9613 12.582 17.6761 13.5545C17.3909 14.527 16.8098 15.3865 16.0135 16.0133C17.4975 16.6036 18.7733 17.6204 19.6799 18.9353C20.5859 17.9178 21.2461 16.7058 21.6095 15.3928C21.6381 15.29 21.6866 15.1938 21.7523 15.1097C21.818 15.0256 21.8997 14.9553 21.9926 14.9028C22.0855 14.8502 22.1878 14.8165 22.2937 14.8035C22.3997 14.7905 22.5071 14.7985 22.6099 14.8271C22.7128 14.8556 22.809 14.9041 22.8931 14.9699C22.9771 15.0356 23.0474 15.1172 23.1 15.2101C23.1525 15.303 23.1862 15.4054 23.1992 15.5113C23.2122 15.6172 23.2042 15.7246 23.1756 15.8275H23.1807ZM13.0001 15.4375C13.6429 15.4375 14.2712 15.2469 14.8057 14.8898C15.3402 14.5326 15.7567 14.0251 16.0027 13.4312C16.2487 12.8373 16.313 12.1839 16.1876 11.5534C16.0622 10.923 15.7527 10.3439 15.2982 9.88938C14.8437 9.43486 14.2646 9.12533 13.6341 8.99993C13.0037 8.87453 12.3502 8.93889 11.7564 9.18487C11.1625 9.43086 10.6549 9.84742 10.2978 10.3819C9.9407 10.9163 9.75009 11.5447 9.75009 12.1875C9.75009 13.0494 10.0925 13.8761 10.702 14.4856C11.3115 15.0951 12.1381 15.4375 13.0001 15.4375Z" fill="#9E0B0F"/>
</svg>
