<svg width="24" height="24" viewBox="0 0 24 24" fill="none" xmlns="http://www.w3.org/2000/svg">
<path d="M21.6001 9.08271C21.6001 9.36986 21.4809 9.64525 21.2687 9.8483C21.0565 10.0513 20.7687 10.1654 20.4686 10.1654H3.87435C3.57427 10.1654 3.28649 10.0513 3.07431 9.8483C2.86212 9.64525 2.74292 9.36986 2.74292 9.08271C2.74292 8.79555 2.86212 8.52016 3.07431 8.31712C3.28649 8.11407 3.57427 8 3.87435 8H20.4686C20.7687 8 21.0565 8.11407 21.2687 8.31712C21.4809 8.52016 21.6001 8.79555 21.6001 9.08271ZM20.4686 12.9173H3.87435C3.57427 12.9173 3.28649 13.0314 3.07431 13.2344C2.86212 13.4375 2.74292 13.7128 2.74292 14C2.74292 14.2872 2.86212 14.5625 3.07431 14.7656C3.28649 14.9686 3.57427 15.0827 3.87435 15.0827H20.4686C20.7687 15.0827 21.0565 14.9686 21.2687 14.7656C21.4809 14.5625 21.6001 14.2872 21.6001 14C21.6001 13.7128 21.4809 13.4375 21.2687 13.2344C21.0565 13.0314 20.7687 12.9173 20.4686 12.9173Z" fill="#343434"/>
</svg>
