<svg width="36" height="36" viewBox="0 0 36 36" fill="none" xmlns="http://www.w3.org/2000/svg">
<path d="M18 22.9219C20.7139 22.9219 22.9219 20.7139 22.9219 18V10.9219C22.9219 8.20795 20.7139 6 18 6C15.2861 6 13.0781 8.20795 13.0781 10.9219V18C13.0781 20.7139 15.2861 22.9219 18 22.9219Z" fill="#343434"/>
<path d="M25.0312 15.8906C24.6429 15.8906 24.3281 16.2054 24.3281 16.5938V18C24.3281 21.4893 21.4893 24.3281 18 24.3281C14.5107 24.3281 11.6719 21.4893 11.6719 18V16.5938C11.6719 16.2054 11.3571 15.8906 10.9688 15.8906C10.5804 15.8906 10.2656 16.2054 10.2656 16.5938V18C10.2656 22.0277 13.3605 25.3456 17.2969 25.7021V28.5938H13.7812C13.3929 28.5938 13.0781 28.9086 13.0781 29.2969C13.0781 29.6852 13.3929 30 13.7812 30H22.2188C22.6071 30 22.9219 29.6852 22.9219 29.2969C22.9219 28.9086 22.6071 28.5938 22.2188 28.5938H18.7031V25.7021C22.6395 25.3456 25.7344 22.0277 25.7344 18V16.5938C25.7344 16.2054 25.4196 15.8906 25.0312 15.8906Z" fill="#343434"/>
<path d="M10.9688 13.0781C11.3571 13.0781 11.6719 12.7633 11.6719 12.375V8.85938C11.6719 8.47106 11.3571 8.15625 10.9688 8.15625C10.5804 8.15625 10.2656 8.47106 10.2656 8.85938V12.375C10.2656 12.7633 10.5804 13.0781 10.9688 13.0781Z" fill="#343434"/>
<path d="M8.15625 6C7.76794 6 7.45312 6.31481 7.45312 6.70312V14.4844C7.45312 14.8727 7.76794 15.1875 8.15625 15.1875C8.54456 15.1875 8.85938 14.8727 8.85938 14.4844V6.70312C8.85938 6.31481 8.54456 6 8.15625 6Z" fill="#343434"/>
<path d="M25.0312 8.15625C24.6429 8.15625 24.3281 8.47106 24.3281 8.85938V12.375C24.3281 12.7633 24.6429 13.0781 25.0312 13.0781C25.4196 13.0781 25.7344 12.7633 25.7344 12.375V8.85938C25.7344 8.47106 25.4196 8.15625 25.0312 8.15625Z" fill="#343434"/>
<path d="M27.8438 6C27.4554 6 27.1406 6.31481 27.1406 6.70312V14.4844C27.1406 14.8727 27.4554 15.1875 27.8438 15.1875C28.2321 15.1875 28.5469 14.8727 28.5469 14.4844V6.70312C28.5469 6.31481 28.2321 6 27.8438 6Z" fill="#343434"/>
</svg>
