<svg width="18" height="19" viewBox="0 0 18 19" fill="none" xmlns="http://www.w3.org/2000/svg">
<path d="M9 2.1875C7.55373 2.1875 6.13993 2.61637 4.9374 3.41988C3.73486 4.22339 2.7976 5.36544 2.24413 6.70163C1.69067 8.03781 1.54586 9.50811 1.82801 10.9266C2.11017 12.3451 2.80661 13.648 3.82928 14.6707C4.85196 15.6934 6.15492 16.3898 7.57341 16.672C8.99189 16.9541 10.4622 16.8093 11.7984 16.2559C13.1346 15.7024 14.2766 14.7651 15.0801 13.5626C15.8836 12.3601 16.3125 10.9463 16.3125 9.5C16.3105 7.56123 15.5394 5.70246 14.1685 4.33154C12.7975 2.96063 10.9388 2.18955 9 2.1875ZM8.71875 5.5625C8.88563 5.5625 9.04876 5.61198 9.18752 5.7047C9.32627 5.79741 9.43441 5.92919 9.49828 6.08336C9.56214 6.23754 9.57885 6.40719 9.54629 6.57086C9.51373 6.73453 9.43337 6.88487 9.31537 7.00287C9.19737 7.12087 9.04703 7.20123 8.88336 7.23379C8.71969 7.26634 8.55004 7.24963 8.39586 7.18577C8.24169 7.12191 8.10991 7.01377 8.0172 6.87501C7.92449 6.73626 7.875 6.57313 7.875 6.40625C7.875 6.18247 7.9639 5.96786 8.12213 5.80963C8.28037 5.65139 8.49498 5.5625 8.71875 5.5625ZM9.5625 13.4375C9.26413 13.4375 8.97799 13.319 8.76701 13.108C8.55603 12.897 8.4375 12.6109 8.4375 12.3125V9.5C8.28832 9.5 8.14525 9.44074 8.03976 9.33525C7.93427 9.22976 7.875 9.08668 7.875 8.9375C7.875 8.78832 7.93427 8.64524 8.03976 8.53975C8.14525 8.43426 8.28832 8.375 8.4375 8.375C8.73587 8.375 9.02202 8.49353 9.233 8.7045C9.44398 8.91548 9.5625 9.20163 9.5625 9.5V12.3125C9.71169 12.3125 9.85476 12.3718 9.96025 12.4773C10.0657 12.5827 10.125 12.7258 10.125 12.875C10.125 13.0242 10.0657 13.1673 9.96025 13.2727C9.85476 13.3782 9.71169 13.4375 9.5625 13.4375Z" fill="#9E0B0F"/>
</svg>
