<svg width="65" height="66" viewBox="0 0 65 66" fill="none" xmlns="http://www.w3.org/2000/svg">
<path fill-rule="evenodd" clip-rule="evenodd" d="M47.5943 13.7618C42.4665 13.7618 37.9526 18.1434 37.9526 23.5518C37.9526 28.9601 38.1512 23.949 38.1512 24.3829C40.2095 25.214 42.2378 27.4995 43.0864 30.1945C43.4776 30.1945 44.0975 30.4268 44.5248 30.6223C46.1619 31.2518 47.7929 32.0829 49.2313 33.3112C53.7392 32.4801 57.2359 28.5323 57.2359 23.5518C57.2359 18.5712 52.9207 13.7618 47.5943 13.7618ZM46.1558 12.0995H49.0327C49.1651 12.0995 49.2313 12.0323 49.2313 11.8979V11.6656L47.9915 9.80787C47.8591 9.67342 47.7287 9.6062 47.6003 9.6062C47.6003 9.6062 47.3716 9.6062 47.3716 9.80787L45.9693 11.6656L45.7406 11.8979C45.893 12.0323 46.0355 12.0995 46.1679 12.0995H46.1558ZM40.4021 14.3912H40.8295L43.279 12.9306L43.4776 12.729C43.4776 12.5945 43.4114 12.4519 43.279 12.3012L41.022 11.2684C40.8896 11.2684 40.8234 11.3356 40.8234 11.4701C40.8234 11.4701 40.5947 11.4701 40.5947 11.6718L40.2035 13.9634C40.2035 14.3912 40.4021 14.3912 40.4021 14.3912ZM36.7128 18.9684L36.9114 19.4023C37.1401 19.4023 37.3327 18.9684 37.3327 18.9684L38.7711 16.4812V16.249C38.7711 16.0473 38.5725 16.0473 38.3498 16.0473L35.9003 16.249V16.8784L36.7188 18.9684H36.7128ZM36.5142 23.5518V21.8895C36.5142 21.8895 36.5142 21.6573 36.3156 21.6573H35.8943L34.0646 23.1179C34.0646 23.3195 33.8359 23.3195 33.8359 23.5518H36.5142ZM54.7503 32.4801H54.3591L51.9095 33.9406L51.6808 34.1423C51.6808 34.3745 51.9095 34.3745 51.9095 34.3745L54.1665 35.4012H54.3651C54.5637 35.4012 54.5637 35.1995 54.5637 35.1995L54.985 32.9079C54.985 32.6756 54.985 32.474 54.7563 32.474L54.7503 32.4801ZM58.4457 27.8968C58.4457 27.7623 58.3795 27.6951 58.247 27.6951C58.1146 27.6951 57.9722 27.7623 57.8197 27.8968L56.4174 30.4206V30.6223C56.616 30.6223 56.616 30.824 56.8086 30.824L59.0656 30.6223C59.2943 30.6223 59.2943 30.4206 59.2943 30.4206C59.4267 30.2658 59.4929 30.1232 59.4929 29.9929L58.4457 27.9029V27.8968ZM61.1239 23.1179L59.0656 21.6573H58.867L58.6744 21.8895V25.0062C58.6744 25.0062 58.867 25.0062 58.867 25.2079H59.0656L61.1239 23.5456H61.3225C61.3225 23.3908 61.2563 23.2462 61.1239 23.1118V23.1179ZM57.8197 18.9684C58.0484 18.9684 58.0484 19.4023 58.247 19.4023C58.4457 19.4023 58.4457 18.9684 58.4457 18.9684L59.4929 16.8784C59.4929 16.6768 59.4929 16.4812 59.2943 16.4812C59.2943 16.3264 59.218 16.249 59.0656 16.249L56.8086 16.0473C56.6762 16.0473 56.5458 16.1145 56.4174 16.249V16.4812L57.8197 18.9684ZM51.9095 12.9306L54.3591 14.3912H54.7503C54.9028 14.3912 54.979 14.324 54.979 14.1895L54.5577 11.6656C54.5577 11.5312 54.4915 11.464 54.3591 11.464C54.3591 11.2623 54.1605 11.2623 54.1605 11.2623L51.9035 12.2951C51.9035 12.5273 51.6748 12.5273 51.6748 12.7229C51.6748 12.7229 51.9035 12.7229 51.9035 12.9245L51.9095 12.9306Z" fill="#F4C605"/>
<path fill-rule="evenodd" clip-rule="evenodd" d="M55.5695 38.0053H54.1672C52.9274 38.0053 51.489 38.0053 50.2431 38.6347C49.0334 35.2797 45.964 33.4219 43.0871 32.3953C42.4672 32.1936 41.8473 31.9614 41.4501 31.7658C40.2103 28.0197 37.1348 25.3247 33.2168 25.3247C29.2987 25.3247 29.9487 25.7219 28.7089 26.7486C26.2593 28.4414 24.8209 31.3319 24.8209 34.6808C23.3825 33.6175 21.9441 32.988 20.1144 32.988C16.8464 32.988 13.7408 35.2797 12.5311 38.6286H10.864C6.15749 38.6286 2.26953 41.7453 2.26953 45.2653C2.26953 48.7853 3.90657 49.8425 6.15749 51.1075C7.59592 51.9386 9.03435 52.3358 10.864 52.3358C12.6936 52.3358 12.1038 52.1341 12.5311 52.1341C13.3496 53.9919 14.9806 55.6847 16.4191 56.5158C17.6288 57.1147 18.8686 57.5425 20.1084 57.5425C22.558 57.5425 24.6163 56.5158 26.0547 54.6214C27.4931 55.6847 28.9316 56.0819 30.5626 56.0819C33.2107 56.0819 35.4677 54.6214 37.1348 52.5619C38.3445 54.2241 39.9755 55.4525 41.8413 55.8803C42.4612 55.8803 43.0811 56.0819 43.707 56.0819C46.9751 56.0819 49.8519 53.9919 51.2904 51.1014C51.6816 51.303 52.3015 51.4986 52.9274 51.4986H54.1672C57.8265 51.4986 60.932 49.6408 61.9431 47.1536C62.563 46.3225 62.7617 45.4608 62.7617 44.6297C62.7617 41.3114 59.6922 38.6225 55.5695 37.993V38.0053Z" fill="#DFCFE5"/>
</svg>
