<svg width="18" height="18" viewBox="0 0 18 18" fill="none" xmlns="http://www.w3.org/2000/svg">
<mask id="mask0_277_172" style="mask-type:luminance" maskUnits="userSpaceOnUse" x="0" y="0" width="17" height="18">
<path d="M0 0.5H17V17.5H0V0.5Z" fill="white"/>
</mask>
<g mask="url(#mask0_277_172)">
<path d="M10.9998 6.49994C10.9998 5.11918 12.1191 3.99988 13.4998 3.99988C14.8806 3.99988 15.9999 5.11918 15.9999 6.49994C15.9999 7.88067 14.8806 9 13.4998 9H3.54199" stroke="#343434" stroke-width="1.5" stroke-miterlimit="10" stroke-linecap="round" stroke-linejoin="round"/>
<path d="M3.90259 4.00043C3.90259 2.6197 5.02189 1.50037 6.40264 1.50037C7.78337 1.50037 8.90267 2.6197 8.90267 4.00043C8.90267 5.38119 7.78337 6.50049 6.40264 6.50049H1" stroke="#343434" stroke-width="1.5" stroke-miterlimit="10" stroke-linecap="round" stroke-linejoin="round"/>
<path d="M8.50014 14.0002C8.50014 15.3809 9.61945 16.5002 11.0002 16.5002C12.3809 16.5002 13.5002 15.3809 13.5002 14.0002C13.5002 12.6194 12.3809 11.5001 11.0002 11.5001H1" stroke="#343434" stroke-width="1.5" stroke-miterlimit="10" stroke-linecap="round" stroke-linejoin="round"/>
</g>
</svg>
