<svg width="14" height="14" viewBox="0 0 14 14" fill="none" xmlns="http://www.w3.org/2000/svg">
<path d="M12.8132 6.28073L10.3523 8.40424L11.102 11.5799C11.1434 11.7523 11.1327 11.9331 11.0714 12.0995C11.0101 12.2658 10.9008 12.4102 10.7575 12.5145C10.6141 12.6188 10.443 12.6783 10.2659 12.6854C10.0887 12.6925 9.91344 12.6469 9.76217 12.5545L7.00045 10.8548L4.2371 12.5545C4.08584 12.6464 3.91078 12.6915 3.73394 12.6841C3.5571 12.6768 3.38639 12.6172 3.24331 12.5131C3.10024 12.4089 2.99119 12.2647 2.9299 12.0986C2.86861 11.9326 2.85782 11.7521 2.89889 11.5799L3.65139 8.40424L1.19045 6.28073C1.05663 6.16507 0.959851 6.01255 0.912195 5.84221C0.864539 5.67188 0.868121 5.49128 0.922494 5.32297C0.976867 5.15465 1.07962 5.00609 1.21792 4.89583C1.35623 4.78557 1.52395 4.7185 1.70014 4.70299L4.9267 4.44268L6.17139 1.43049C6.23876 1.26633 6.35343 1.12591 6.50081 1.02708C6.6482 0.928256 6.82164 0.875488 6.99909 0.875488C7.17654 0.875488 7.34998 0.928256 7.49736 1.02708C7.64474 1.12591 7.75941 1.26633 7.82678 1.43049L9.07092 4.44268L12.2975 4.70299C12.474 4.71792 12.6422 4.78462 12.781 4.89473C12.9199 5.00484 13.0231 5.15346 13.0778 5.32197C13.1325 5.49049 13.1363 5.6714 13.0886 5.84205C13.041 6.01269 12.944 6.16548 12.8099 6.28127L12.8132 6.28073Z" fill="#EA8F09"/>
</svg>
